<?xml version="1.0" encoding="UTF-8"?>
<!DOCTYPE svg PUBLIC "-//W3C//DTD SVG 1.1//EN" "http://www.w3.org/Graphics/SVG/1.1/DTD/svg11.dtd">
<!-- Creator: CorelDRAW -->
<svg xmlns="http://www.w3.org/2000/svg" xml:space="preserve" width="36.7842mm" height="5.2908mm" version="1.1" style="shape-rendering:geometricPrecision; text-rendering:geometricPrecision; image-rendering:optimizeQuality; fill-rule:evenodd; clip-rule:evenodd"
viewBox="0 0 256.52 36.9"
 xmlns:xlink="http://www.w3.org/1999/xlink"
 xmlns:xodm="http://www.corel.com/coreldraw/odm/2003">
 <defs>
  <style type="text/css">
   <![CDATA[
    .fil1 {fill:#2F8F41}
    .fil0 {fill:white}
   ]]>
  </style>
 </defs>
 <g id="Слой_x0020_1">
  <metadata id="CorelCorpID_0Corel-Layer"/>
  <g id="_2151767648">
   <path class="fil0" d="M25.08 3.73c-1.48,-1.3 -3.25,-2.25 -5.15,-2.78 -2.01,-0.59 -4.09,-0.89 -6.18,-0.89 0,0 -0.01,0 -0.01,0 -1.68,0 -3.35,0.24 -4.97,0.71 -1.58,0.45 -3.07,1.18 -4.4,2.15 -1.3,0.96 -2.39,2.2 -3.17,3.62 -0.8,1.51 -1.22,3.19 -1.22,4.9 0,0.09 0,0.18 0,0.27l0 13.64c-0,0.09 -0,0.18 -0,0.27 0,1.71 0.43,3.39 1.24,4.9 0.79,1.42 1.9,2.65 3.22,3.6 1.35,0.96 2.87,1.67 4.48,2.1 1.62,0.45 3.29,0.68 4.97,0.68 0.02,0 0.03,0 0.05,0 2.04,0 4.06,-0.31 6,-0.92 1.86,-0.57 3.59,-1.51 5.07,-2.76l-3.86 -6.51c-1.1,0.9 -2.36,1.59 -3.71,2.02 -1.1,0.32 -2.25,0.49 -3.4,0.5 -0.7,-0 -1.39,-0.11 -2.06,-0.31 -0.68,-0.21 -1.32,-0.54 -1.88,-0.97 -0.59,-0.46 -1.06,-1.06 -1.39,-1.73 -0.36,-0.77 -0.54,-1.61 -0.54,-2.46 0,-0.06 0,-0.12 0,-0.18l0 -10.23c-0,-0.06 -0,-0.12 -0,-0.18 0,-0.85 0.19,-1.69 0.54,-2.47 0.32,-0.67 0.79,-1.26 1.37,-1.73 0.55,-0.44 1.18,-0.77 1.85,-0.97 0.67,-0.21 1.36,-0.31 2.06,-0.31 1.19,0.01 2.38,0.18 3.53,0.5 1.32,0.39 2.55,1.08 3.58,2.02l3.97 -6.45 -0 -0zm26.26 32.79l8.76 0 -12.31 -36.15 -8.44 0 -12.51 36.15 8.8 0 2.11 -7.14 11.43 0 2.16 7.13 -0 0zm-10.81 -16.42l2.83 -9.97 0.21 0 2.83 9.97 0.72 2.47 -7.31 0 0.72 -2.47zm49.79 2.49c-0.25,-1.09 -0.76,-2.12 -1.47,-2.99 -0.88,-1.05 -1.96,-1.92 -3.17,-2.57 -1.72,-0.92 -3.56,-1.64 -5.46,-2.12 -1.44,-0.42 -2.66,-0.8 -3.66,-1.13 -0.84,-0.26 -1.65,-0.61 -2.42,-1.02 -0.51,-0.26 -0.96,-0.62 -1.31,-1.07 -0.25,-0.35 -0.39,-0.78 -0.39,-1.21 0,-0.01 0,-0.01 0,-0.02 -0.03,-0.44 0.07,-0.89 0.29,-1.27 0.21,-0.39 0.53,-0.7 0.92,-0.9 0.9,-0.44 1.89,-0.66 2.89,-0.66 0.09,0 0.19,0 0.28,0.01 1.41,0 2.81,0.14 4.2,0.42 1.65,0.39 3.21,1.09 4.61,2.05l3.66 -6.72c-1.87,-1.34 -4,-2.29 -6.26,-2.78 -2,-0.38 -4.05,-0.58 -6.09,-0.58 -0,0 -0.01,0 -0.02,0 -0.05,0 -0.1,0 -0.16,0 -1.71,0 -3.42,0.25 -5.07,0.74 -1.49,0.44 -2.9,1.16 -4.12,2.12 -1.13,0.91 -2.05,2.05 -2.68,3.36 -0.63,1.34 -0.95,2.8 -0.95,4.27 0,0.05 0,0.11 0,0.16 -0.03,1.38 0.19,2.75 0.67,4.04 0.44,1.1 1.12,2.1 1.99,2.91 0.95,0.87 2.04,1.58 3.22,2.1 1.42,0.63 2.88,1.15 4.38,1.55 1.27,0.34 2.54,0.73 3.78,1.15 0.84,0.28 1.66,0.63 2.45,1.05 0.52,0.26 0.97,0.65 1.31,1.13 0.25,0.4 0.39,0.86 0.39,1.34 0,0.4 -0.1,0.8 -0.28,1.16 -0.23,0.44 -0.57,0.81 -0.98,1.08 -0.56,0.37 -1.18,0.65 -1.83,0.81 -0.85,0.21 -1.72,0.32 -2.6,0.32 -0.08,0 -0.16,-0 -0.23,-0 -1.57,-0 -3.14,-0.3 -4.61,-0.86 -1.65,-0.65 -3.19,-1.56 -4.56,-2.7l-4.58 6.14c1.02,0.93 2.14,1.74 3.32,2.44 1.07,0.63 2.2,1.13 3.37,1.52 1.15,0.37 2.33,0.63 3.53,0.76 1.25,0.14 2.52,0.21 3.78,0.21 1.85,0.01 3.69,-0.22 5.48,-0.68 1.62,-0.4 3.16,-1.1 4.53,-2.05 1.26,-0.88 2.31,-2.04 3.06,-3.38 0.74,-1.39 1.13,-2.94 1.13,-4.52 0,-0.08 -0,-0.16 -0,-0.23 -0,-0.03 -0,-0.06 -0,-0.09 0,-1.09 -0.12,-2.17 -0.35,-3.24l-0 -0zm6.28 -22.22l0 36.15 8.18 0 0 -36.15 -8.18 0zm23.84 15.37l6.3 9.76 7.33 11.02 7.33 0 0 -36.15 -8.19 0 0 20.78 -0.15 0 -7.78 -12.02 -5.92 -8.76 -7.36 0 0 36.16 8.19 0 0 -20.78 0.26 0 -0.01 0 0 0zm54.58 -3.99c0,-0.08 0,-0.18 0,-0.26 0,-1.72 -0.42,-3.41 -1.21,-4.93 -0.78,-1.44 -1.87,-2.68 -3.19,-3.65 -1.35,-0.98 -2.87,-1.72 -4.47,-2.18 -1.63,-0.49 -3.31,-0.74 -5.01,-0.74 -1.68,0 -3.36,0.23 -4.99,0.68 -1.59,0.43 -3.1,1.14 -4.45,2.1 -1.31,0.94 -2.41,2.16 -3.21,3.57 -0.81,1.49 -1.24,3.16 -1.24,4.86 0,0.09 0,0.19 0,0.28l0 13.59c-0,0.09 -0,0.19 -0,0.28 0,1.7 0.39,3.39 1.13,4.92 0.73,1.44 1.78,2.7 3.06,3.67 1.32,1 2.83,1.75 4.42,2.21 1.72,0.5 3.49,0.75 5.27,0.74 0.02,0 0.05,0 0.07,0 1.76,0 3.53,-0.25 5.22,-0.74 1.6,-0.45 3.1,-1.2 4.42,-2.2 1.27,-0.98 2.31,-2.24 3.03,-3.67 0.79,-1.61 1.17,-3.39 1.13,-5.2l0 -13.33 -0 0zm-8.19 11.81c0.03,0.91 -0.15,1.82 -0.51,2.65 -0.31,0.67 -0.76,1.26 -1.31,1.73 -0.54,0.44 -1.16,0.77 -1.83,0.97 -0.65,0.21 -1.33,0.31 -2.01,0.32 -0.69,0 -1.37,-0.11 -2.03,-0.31 -0.66,-0.21 -1.28,-0.54 -1.83,-0.97 -0.57,-0.47 -1.03,-1.06 -1.34,-1.73 -0.34,-0.77 -0.52,-1.62 -0.52,-2.46 0,-0.06 0,-0.13 0,-0.19l0 -10.23c-0.03,-0.91 0.15,-1.82 0.52,-2.65 0.31,-0.67 0.77,-1.27 1.34,-1.73 0.55,-0.44 1.17,-0.76 1.83,-0.97 0.66,-0.21 1.34,-0.31 2.03,-0.31 0,0 0,0 0,0 0.68,0 1.36,0.11 2.01,0.31 0.66,0.2 1.29,0.53 1.83,0.97 0.56,0.47 1.01,1.06 1.32,1.73 0.37,0.83 0.54,1.74 0.51,2.65l0 10.24 -0 0z"/>
   <path class="fil1" d="M189.61 35.48c0.8,-0.93 1.23,-2.12 1.21,-3.36 0,-0.02 0,-0.04 0,-0.06 0,-0.6 -0.12,-1.19 -0.35,-1.75 -0.23,-0.57 -0.58,-1.08 -1.02,-1.51 -0.65,-0.63 -1.46,-1.05 -2.35,-1.23 -0.29,-0.06 -0.59,-0.09 -0.88,-0.09 -0.6,0 -1.19,0.12 -1.74,0.34 -0.54,0.22 -1.03,0.55 -1.44,0.97 -0.41,0.42 -0.75,0.92 -0.98,1.47 -0.24,0.56 -0.36,1.17 -0.36,1.79 0,0.02 0,0.03 0,0.05 -0.01,0.63 0.1,1.25 0.33,1.83 0.23,0.58 0.57,1.11 1.01,1.55 0.42,0.45 0.94,0.81 1.51,1.05 0.57,0.24 1.18,0.35 1.79,0.34 0.06,0 0.12,0 0.18,0 0.56,0 1.1,-0.11 1.61,-0.34 0.56,-0.24 1.07,-0.62 1.48,-1.09l0 0zm8.01 -35.1l0 36.15 8.18 0 0 -13.33 5.05 0 5.35 13.33 8.75 0 -6.33 -14.74c0.89,-0.52 1.71,-1.17 2.42,-1.91 0.7,-0.73 1.32,-1.54 1.83,-2.41 0.5,-0.86 0.89,-1.77 1.16,-2.73 0.27,-0.93 0.41,-1.89 0.41,-2.86 -0,-1.41 -0.2,-2.82 -0.59,-4.17 -0.38,-1.35 -1.03,-2.61 -1.9,-3.7 -0.91,-1.11 -2.07,-2.01 -3.37,-2.62 -1.47,-0.66 -3.06,-1 -4.67,-1 -0.11,0 -0.22,0 -0.33,0l-15.96 0 0 0zm8.18 7.4l6.07 0c0.12,-0.01 0.24,-0.02 0.35,-0.02 0.48,0 0.95,0.08 1.39,0.25 0.56,0.21 1.07,0.53 1.49,0.96 0.67,0.77 1.03,1.75 1.03,2.77 0,0.04 -0,0.07 -0,0.11 0.01,0.09 0.01,0.18 0.01,0.27 0,1.06 -0.44,2.08 -1.2,2.81 -0.41,0.39 -0.9,0.68 -1.43,0.85 -0.53,0.17 -1.1,0.22 -1.65,0.14l-6.08 0 0 -8.13 0.01 0zm50.71 17.26l0 -24.66 -8.19 0 0 23.3c0.03,0.91 -0.15,1.82 -0.51,2.65 -0.31,0.67 -0.76,1.26 -1.31,1.73 -0.54,0.44 -1.16,0.77 -1.83,0.97 -0.65,0.2 -1.33,0.31 -2.01,0.31 -0.69,0 -1.37,-0.11 -2.03,-0.31 -0.66,-0.21 -1.28,-0.54 -1.83,-0.97 -0.57,-0.47 -1.03,-1.06 -1.34,-1.73 -0.34,-0.78 -0.52,-1.62 -0.52,-2.47 0,-0.06 0,-0.12 0,-0.18l0 -23.29 -8.19 0 0 24.87c-0,0.09 -0,0.18 -0,0.28 0,1.7 0.41,3.38 1.19,4.89 0.76,1.42 1.84,2.66 3.13,3.62 1.34,0.98 2.85,1.71 4.45,2.15 1.66,0.47 3.38,0.71 5.11,0.71 1.73,0 3.45,-0.25 5.11,-0.74 1.61,-0.46 3.12,-1.22 4.45,-2.23 1.3,-0.99 2.37,-2.26 3.13,-3.7 0.78,-1.53 1.19,-3.22 1.19,-4.94 0,-0.08 -0,-0.17 -0,-0.25l0 -0z"/>
  </g>
 </g>
</svg>
