<svg width="32" height="32" viewBox="0 0 32 32" fill="none" xmlns="http://www.w3.org/2000/svg">
<path d="M20.1309 24.0258C20.2431 24.3816 20.2989 24.7146 20.4485 24.9979C20.7471 25.5614 21.2809 25.7462 21.8887 25.7562C22.4302 25.7646 22.9227 25.6462 23.2953 25.214C23.5504 24.9185 23.6412 24.5596 23.6489 24.1892C23.6657 23.3378 23.6543 22.4856 23.6534 21.6342C23.6534 21.6105 23.6458 21.586 23.6328 21.5135C23.5572 21.6311 23.5015 21.7151 23.4488 21.8006C22.4874 23.3691 20.2355 23.2141 19.3565 22.1091C18.9855 21.6425 18.7854 21.1065 18.7121 20.5238C18.67 20.1909 18.654 19.8534 18.6525 19.5174C18.6464 18.0108 18.6441 16.5049 18.6525 14.9982C18.6563 14.3057 18.7732 13.6337 19.1069 13.0121C19.7254 11.8605 20.9961 11.6032 21.93 11.8353C22.605 12.0034 23.0968 12.4287 23.4923 12.9823C23.5275 13.0312 23.5649 13.0785 23.6016 13.1266C23.6191 13.1228 23.6367 13.1182 23.655 13.1144C23.655 13.0037 23.655 12.8937 23.655 12.783C23.655 12.5478 23.6496 12.3126 23.6603 12.0774C23.6626 12.0316 23.7298 11.9507 23.768 11.9499C24.2178 11.9407 24.6683 11.9438 25.1387 11.9438C25.1433 12.0255 25.1494 12.0927 25.1494 12.1599C25.1494 16.1574 25.1517 20.1558 25.1479 24.1533C25.1479 24.9742 24.9386 25.7279 24.3331 26.3228C23.9268 26.7214 23.4251 26.9505 22.8731 27.0589C22.1613 27.1987 21.4458 27.2132 20.7402 27.02C19.5574 26.6962 18.9358 25.8806 18.748 24.7001C18.7189 24.5191 18.7121 24.3335 18.7098 24.1495C18.7098 24.1083 18.7732 24.0312 18.8083 24.0304C19.2642 24.022 19.7208 24.0258 20.1309 24.0258ZM20.1553 17.4083C20.1553 18.2024 20.1515 18.9966 20.1561 19.7908C20.1629 20.9179 20.8113 21.6135 21.8696 21.6372C22.6745 21.6547 23.3113 21.2241 23.5152 20.4887C23.5954 20.1985 23.6451 19.89 23.6481 19.5892C23.6619 18.1406 23.6565 16.6927 23.6519 15.2441C23.6519 15.0288 23.6359 14.8119 23.6023 14.5996C23.377 13.1739 22.1972 12.864 21.2168 13.2076C20.9907 13.287 20.7777 13.4642 20.6119 13.6459C20.25 14.0414 20.1637 14.5485 20.1576 15.0655C20.1477 15.8466 20.1553 16.6278 20.1553 17.4098V17.4083Z" fill="#FC0101"/>
<path d="M13.4385 1.39173V0.00575124C14.0747 0.022551 14.71 -0.0759563 15.3133 0.170693C16.1525 0.515087 16.5702 1.18555 16.7198 2.04691C16.7664 2.31495 16.7916 2.58985 16.7916 2.8617C16.7954 11.6082 16.7947 20.3548 16.7939 29.1013C16.7939 29.4151 16.8153 29.7244 16.9619 30.01C17.152 30.3803 17.4537 30.5842 17.8721 30.5995C18.0814 30.6071 18.2914 30.6056 18.5014 30.5995C18.6151 30.5964 18.661 30.6346 18.6602 30.7515C18.6556 31.1203 18.6633 31.4892 18.6533 31.8572C18.6518 31.9084 18.5777 32.0015 18.5388 32C18.0829 31.9901 17.6202 32.0092 17.1727 31.9351C16.2327 31.7793 15.6729 31.1692 15.437 30.2742C15.3346 29.8863 15.2896 29.4724 15.2888 29.07C15.2804 20.3487 15.2835 11.6273 15.2789 2.90675C15.2789 2.6685 15.2491 2.42338 15.1888 2.19277C15.0605 1.70481 14.6817 1.41616 14.1732 1.39249C13.9334 1.3818 13.6928 1.39173 13.4385 1.39173Z" fill="#FC0101"/>
<path d="M11.977 14.9685C11.9151 15.0548 11.8571 15.1433 11.7922 15.2266C11.5173 15.5763 11.1499 15.784 10.7269 15.8856C10.0106 16.0581 9.29285 16.0597 8.58114 15.8543C7.75107 15.6137 7.22955 15.0525 7.02414 14.2308C6.74996 13.1327 6.78895 12.0369 7.22498 10.9785C7.55024 10.1882 8.15812 9.70254 8.97442 9.50095C9.35851 9.40626 9.76324 9.37265 10.1603 9.35582C10.7185 9.33216 11.2782 9.34437 11.8364 9.35356C11.99 9.35582 12.0327 9.30544 12.0304 9.15805C12.0228 8.73272 12.032 8.30664 12.0274 7.88131C12.0129 6.65489 11.2103 6.02339 10.0228 6.11197C9.12406 6.17918 8.61017 6.75265 8.55059 7.65982C8.53891 7.83393 8.44902 7.92099 8.28104 7.92099C7.95729 7.92099 7.63347 7.92099 7.30897 7.92099C7.241 7.92099 7.17228 7.91486 7.08748 7.91104C7.09211 7.1818 7.22798 6.51132 7.66482 5.92564C8.00003 5.47663 8.44601 5.17882 8.97517 5.02305C9.83653 4.76876 10.7086 4.76265 11.5631 5.04824C12.7009 5.427 13.2675 6.26774 13.4026 7.4292C13.4248 7.61783 13.4255 7.80953 13.4263 7.99966C13.4279 10.5288 13.4271 13.0579 13.4271 15.5862C13.4271 15.7604 13.3415 15.8474 13.1705 15.8474C12.859 15.8474 12.5474 15.8382 12.2374 15.8512C12.064 15.8581 12.0167 15.7947 12.0251 15.6313C12.0373 15.4136 12.0281 15.1945 12.0281 14.9761C12.0114 14.9738 11.9945 14.9715 11.9778 14.97L11.977 14.9685ZM12.0518 11.8422H12.0274C12.0274 11.4344 12.0228 11.0282 12.0296 10.6219C12.032 10.4783 11.9961 10.4203 11.838 10.4234C11.2798 10.4325 10.7208 10.4226 10.1626 10.428C9.28747 10.4371 8.70105 10.8442 8.42918 11.6742C8.2085 12.3485 8.16194 13.0442 8.33755 13.7398C8.48188 14.3125 8.84462 14.6989 9.4219 14.8218C9.73877 14.8898 10.0801 14.8982 10.4047 14.8684C11.2996 14.7844 11.8342 14.2927 11.9655 13.3977C12.0411 12.8861 12.0266 12.3615 12.0518 11.8422Z" fill="#FC0101"/>
</svg>
