<svg width="542" height="542" viewBox="0 0 542 542" fill="none" xmlns="http://www.w3.org/2000/svg">
    <g clip-path="url(#clip0_83_2803)">
        <path d="M290.16 309.04C288.94 313.74 287.18 318.37 286.59 323.15C284.91 336.79 283.56 350.47 282.36 364.15C280.96 379.99 279.71 395.84 278.67 411.7C277.7 426.43 277.01 441.19 276.32 455.94C274.99 484.45 273.64 512.97 272.52 541.49C271.9 557.26 271.7 573.04 271.33 588.82C271.29 590.62 271.33 592.41 270.72 594.22C270.25 586.41 269.69 578.6 269.33 570.78C268.26 547.73 267.43 524.66 266.19 501.62C265.13 481.92 263.66 462.24 262.34 442.55C261.34 427.67 260.56 412.78 259.21 397.93C257.55 379.63 255.49 361.37 253.44 343.12C252.26 332.61 250.8 322.13 249.32 311.66C249.13 310.33 248.08 309.13 247.42 307.87C246.08 297.59 235.64 288.94 223.74 288.25C217.53 286.95 211.37 285.12 205.09 284.45C184.03 282.23 162.94 280.23 141.83 278.54C127.95 277.43 114.02 276.99 100.12 276.22C77.3 274.96 54.49 273.6 31.67 272.42C20.39 271.84 9.1 271.35 -2.19 271.23C-20.13 271.03 -38.07 271.18 -56 271.18C-56 270.7 -56 270.22 -56 269.75C-44.44 269.23 -32.88 268.72 -21.32 268.17C-9.88 267.63 1.56 267.15 12.99 266.46C33.65 265.21 54.3 263.82 74.96 262.52C86.37 261.8 97.79 261.28 109.19 260.42C124.71 259.26 140.22 257.95 155.72 256.54C169.72 255.27 183.74 254.05 197.68 252.27C206.74 251.12 215.67 249.01 224.66 247.32C236.96 245.5 245.06 238.86 248.32 226.67C249.69 219.23 251.45 211.85 252.34 204.35C254.2 188.59 255.7 172.79 257.16 156.99C258.1 146.78 258.89 136.54 259.44 126.3C260.61 104.63 261.62 82.95 262.63 61.27C263.37 45.39 264.01 29.51 264.66 13.63C265.55 -8.23 266.41 -30.09 266.98 -52C267.32 -47.15 267.76 -42.3 267.99 -37.45C269.08 -14.13 270.05 9.2 271.18 32.52C271.67 42.75 272.37 52.98 273.09 63.2C274.37 81.18 275.73 99.15 277.09 117.12C278.11 130.65 278.99 144.2 280.29 157.7C281.63 171.68 283.33 185.63 285.02 199.58C286.06 208.1 287.4 216.58 288.59 225.08C289.12 226.44 289.73 227.78 290.17 229.18C293.28 239.14 300.2 244.62 310.29 246.41C314.64 247.65 318.91 249.5 323.35 250.03C337.65 251.73 352.01 253.04 366.35 254.33C381.21 255.67 396.07 256.91 410.95 258C423.2 258.9 435.45 259.66 447.72 260.21C480.07 261.65 512.42 263.06 544.78 264.25C561.55 264.87 578.35 264.98 595.13 265.34C595.87 265.36 596.61 265.55 598.44 265.83C589.39 266.38 581.46 266.94 573.53 267.31C550.47 268.38 527.4 269.17 504.36 270.45C479.84 271.82 455.35 273.61 430.84 275.26C416.29 276.24 401.72 277.05 387.2 278.41C369.91 280.04 352.64 282.03 335.4 284.18C327.62 285.15 319.93 286.9 312.2 288.3C309.82 289.02 307.3 289.44 305.1 290.52C297.31 294.35 291.35 299.78 290.18 309.01L290.16 309.04Z"
              fill="#FEC700"/>
        <path d="M223.72 288.26C235.62 288.95 246.06 297.6 247.4 307.88C217.37 329.42 190.69 354.89 163.28 379.5C146.23 394.81 129.33 410.28 112.34 425.65C111.2 426.68 109.87 427.5 108.62 428.42C108.3 428.09 107.99 427.76 107.67 427.43C110.75 423.72 113.78 419.95 116.93 416.29C144.12 384.72 171.5 353.3 198.44 321.52C207.43 310.91 215.32 299.37 223.72 288.25V288.26Z"
              fill="#E79004"/>
        <path d="M290.158 309.04C291.328 299.81 297.288 294.38 305.078 290.55C307.278 289.47 309.808 289.05 312.178 288.33C326.728 306 340.858 324.03 355.918 341.25C380.438 369.29 405.568 396.8 430.428 424.53C431.458 425.68 432.418 426.88 433.418 428.06C433.128 428.33 432.838 428.61 432.538 428.88C419.828 417.92 407.138 406.94 394.408 396C366.228 371.77 338.108 347.48 309.788 323.42C303.618 318.18 296.718 313.8 290.148 309.02L290.158 309.04Z"
              fill="#E79004"/>
        <path d="M248.279 226.68C245.019 238.87 236.919 245.51 224.619 247.33C220.219 241.34 215.819 235.35 211.419 229.36C189.839 204.78 168.329 180.14 146.669 155.63C132.589 139.69 118.289 123.95 104.369 107.53C105.459 108.14 106.699 108.58 107.619 109.39C136.219 134.24 164.669 159.25 193.389 183.96C207.089 195.74 221.289 206.96 235.259 218.43C239.599 221.18 243.939 223.93 248.279 226.68Z"
              fill="#E79004"/>
        <path d="M428.889 104.44C424.999 109.12 421.179 113.86 417.199 118.47C401.739 136.42 386.229 154.33 370.729 172.24C370.309 172.72 369.719 173.06 369.219 173.47C353.649 192.17 338.009 210.82 322.569 229.62C318.169 234.98 314.349 240.81 310.259 246.43C300.169 244.63 293.249 239.15 290.139 229.19C289.699 227.79 289.089 226.45 288.559 225.09C293.939 221.31 299.569 217.83 304.639 213.66C316.679 203.78 328.449 193.57 340.329 183.49C358.639 166.86 376.939 150.22 395.259 133.61C406.219 123.67 417.199 113.76 428.889 104.44Z"
              fill="#E79004"/>
        <path d="M105.9 429.55C106.4 429.02 106.9 428.49 107.4 427.95C107.61 428.11 107.82 428.28 108.03 428.44L106.67 430.23L105.91 429.55H105.9Z"
              fill="#E79004"/>
        <path d="M106.66 430.24C106.31 430.56 105.96 430.87 105.61 431.19C105.4 430.96 105.16 430.76 104.9 430.58C105.23 430.24 105.57 429.9 105.9 429.55C106.15 429.78 106.41 430.01 106.66 430.23V430.24Z"
              fill="#E79004"/>
        <path d="M105.609 431.19C105.249 431.49 104.889 431.8 104.529 432.1L104.569 432.15C104.679 431.63 104.789 431.1 104.899 430.58C105.159 430.75 105.399 430.96 105.609 431.19Z"
              fill="#E79004"/>
        <path d="M104.529 432.1C104.369 432.34 104.209 432.57 104.049 432.81C103.959 432.6 103.869 432.4 103.779 432.19C104.039 432.18 104.299 432.16 104.569 432.15L104.529 432.1Z"
              fill="#E79004"/>
    </g>
    <defs>
        <clipPath id="clip0_83_2803">
            <rect width="542" height="542" fill="white"/>
        </clipPath>
    </defs>
</svg>
