<svg width="32" height="32" viewBox="0 0 32 32" fill="none" xmlns="http://www.w3.org/2000/svg">
<path d="M2.45911 0.998201L8.0877 0.986328L9.22282 1.89678V0.986328H22.7952V1.89678L23.7046 0.987527H27.5394L29.5803 2.80734V26.9841L25.5008 31.0637H8.32428L4.03303 26.7724L4.02356 19.3076L2.44257 16.8126L2.45911 0.998201Z" fill="white"/>
<path d="M22.5971 3.50515L24.3874 1.69385H27.0948L28.9102 3.29151V6.8785L25.3296 10.1262L25.3233 11.6212H28.8664L28.8726 13.4619H22.5971V10.0257L24.7266 8.03434L26.2153 6.84072L26.2025 3.26321L25.2982 3.25386V5.98014H22.5971V3.50515Z" fill="#FF9900"/>
<path d="M9.42654 3.31033L7.63407 1.69385H3.15305V13.4619H7.87696L9.42654 11.8537V8.30233L8.53024 7.4313L9.42642 6.62723L9.42654 3.31033ZM6.74208 11.8349H5.85009V8.22906H6.74208V11.8349ZM6.74208 6.8471H5.85009V3.27891H6.74208V6.8471Z" fill="#488ACB"/>
<path d="M10.1971 1.69385V13.4626H14.8834V11.666H12.8481V8.44968H14.8834V6.66559H12.8481V3.49951L14.8834 3.55946V1.69516L10.1971 1.69385Z" fill="#488ACB"/>
<path d="M10.1968 14.2118V25.9798H14.8831V24.1831H12.8479V20.9668H14.8831V19.1827H12.8479V16.0167H14.8831V14.2118H10.1968Z" fill="#488ACB"/>
<path d="M15.5881 1.69385H21.9076V3.56186H20.1047V13.4872H17.1649V3.50515H15.5881V1.69385Z" fill="#488ACB"/>
<path d="M3.15305 14.2273H9.47259V16.0386H7.66967V25.964H4.72972V15.9819H3.15305V14.2273Z" fill="#488ACB"/>
<path d="M28.8724 14.2364H26.2079V19.3168H25.3045L25.2974 14.2259H22.5872V25.9623H25.3033L25.3057 20.6863H26.209L26.2067 25.9623H28.8724V14.2364Z" fill="#488ACB"/>
<path d="M17.3775 14.2259H20.1729L21.9083 15.9999V19.2963H19.1929V16.2411H18.2821V24.2918H19.1993V20.8879H21.9083V24.3831L20.3473 25.9695H17.3815L15.5726 24.1432V15.9842L17.3775 14.2259Z" fill="#488ACB"/>
</svg>
