<svg width="542" height="542" viewBox="0 0 542 542" fill="none" xmlns="http://www.w3.org/2000/svg">
    <g clip-path="url(#clip0_83_2548)">
        <path d="M0 100C0 44.7715 44.7715 0 100 0H442C497.228 0 542 44.7715 542 100V442C542 497.228 497.228 542 442 542H100C44.7715 542 0 497.228 0 442V100Z"
              fill="#FF4101"/>
        <path d="M109.649 262.113C111.655 262.872 113.383 263.348 114.936 264.152C122.301 267.96 122.953 277.445 116.216 282.266C113.066 284.521 109.44 285.723 105.638 285.768C91.1272 285.938 76.611 285.921 62.0949 285.966C61.4376 285.966 60.7634 285.989 60.2365 285.479C57.1145 282.414 53.9926 279.348 50.2417 275.66C52.1625 275.66 53.154 275.66 54.1456 275.66C68.5654 275.66 82.9852 275.66 97.4107 275.66C98.9179 275.66 100.425 275.705 101.864 275.11C103.547 274.413 104.318 273.184 104.289 271.376C104.267 269.524 103.354 268.294 101.626 267.847C100.272 267.495 98.8385 267.337 97.4391 267.331C80.8492 267.297 64.2593 267.348 47.675 267.257C45.437 267.246 44.7514 267.858 44.8307 270.096C44.9951 274.697 44.8251 279.309 44.9101 283.915C44.9384 285.513 44.4115 286.04 42.8137 286.006C38.9495 285.915 35.0853 285.938 31.2211 286C29.7593 286.023 28.9944 285.723 29.0001 284.006C29.0624 269.983 29.0737 255.976 29.0001 241.965C28.9888 239.919 30.0879 239.998 31.4931 239.998C45.063 240.015 58.6387 240.004 72.2143 240.01C81.733 240.01 91.2518 240.01 100.771 240.044C104.584 240.055 108.284 240.763 111.7 242.486C115.791 244.543 118.488 247.698 118.193 252.492C117.899 257.246 115.105 260.192 110.59 261.574C110.352 261.648 110.148 261.818 109.638 262.107L109.649 262.113ZM72.1973 250.305C64.8429 250.305 57.4828 250.305 50.1284 250.305C44.7458 250.305 44.8307 250.305 44.8421 255.71C44.8421 257.58 45.4313 258.09 47.2728 258.084C63.4944 258.022 79.716 258.061 95.9432 258.033C100.323 258.027 102.323 256.679 102.232 254.027C102.147 251.506 100.204 250.322 95.9659 250.316C88.0449 250.299 80.1183 250.316 72.1973 250.31V250.305Z"
              fill="#020000"/>
        <path d="M499.472 271.666C504.357 276.482 508.878 280.93 514 285.973C510.974 285.973 508.674 285.995 506.379 285.973C502.521 285.933 498.232 286.885 494.928 285.514C491.619 284.137 489.285 280.42 486.531 277.717C485.319 276.533 484.05 275.394 482.951 274.108C481.8 272.765 480.458 272.386 478.724 272.397C468.168 272.465 457.607 272.442 447.051 272.414C446.071 272.414 445.017 272.731 443.669 271.825C446.989 268.595 450.213 265.49 453.408 262.346C454.275 261.496 455.323 261.694 456.332 261.694C466.888 261.683 477.449 261.694 488.005 261.677C489.693 261.677 491.399 261.751 493.047 261.201C495.314 260.447 496.379 258.867 496.351 256.521C496.328 254.147 495.149 252.56 492.866 252C491.416 251.643 489.886 251.484 488.39 251.484C472.457 251.45 456.525 251.507 440.598 251.41C438.326 251.399 437.736 252.09 437.759 254.277C437.861 263.96 437.742 273.649 437.85 283.332C437.872 285.446 437.266 286.109 435.141 286.018C431.379 285.854 427.6 285.916 423.832 285.995C422.246 286.029 421.713 285.508 421.719 283.893C421.77 269.978 421.781 256.056 421.713 242.141C421.702 240.333 422.37 239.971 424.013 239.971C446.825 240.027 469.641 240.01 492.452 240.05C496.356 240.056 500.135 240.872 503.682 242.526C509.513 245.257 512.725 249.812 512.68 256.306C512.634 262.793 509.394 267.309 503.535 269.995C502.436 270.499 501.297 270.912 499.472 271.655V271.666Z"
              fill="#040100"/>
        <path d="M288.06 240.01C295.981 240.01 303.896 240.078 311.817 239.964C313.845 239.936 314.423 240.576 314.299 242.514C314.146 244.95 314.146 247.409 314.299 249.846C314.418 251.766 313.636 252.191 311.857 252.18C301.675 252.112 291.493 252.254 281.311 252.078C278.501 252.027 277.895 252.894 277.94 255.557C278.104 264.866 277.951 274.175 278.048 283.484C278.07 285.456 277.51 286.085 275.521 286.011C271.662 285.864 267.792 285.921 263.928 285.989C262.506 286.011 261.94 285.609 261.945 284.091C261.991 269.982 262.002 255.88 261.94 241.772C261.928 239.828 263.044 239.998 264.302 240.004C272.223 240.015 280.139 240.01 288.06 240.01Z"
              fill="#020000"/>
        <path d="M174.355 285.983C160.966 285.983 147.578 285.944 134.183 286.029C132.138 286.04 131.237 285.592 131.464 283.388C131.656 281.524 131.628 279.62 131.47 277.751C131.294 275.688 132.172 275.246 134.076 275.252C161.046 275.303 188.01 275.303 214.98 275.252C216.94 275.252 217.7 275.796 217.518 277.79C217.28 280.397 218.578 283.779 217.031 285.439C215.456 287.133 212.034 285.949 209.427 285.961C197.733 286.023 186.044 285.989 174.349 285.989L174.355 285.983Z"
              fill="#040100"/>
        <path d="M366.883 285.983C353.415 285.983 339.941 285.944 326.473 286.029C324.4 286.04 323.584 285.541 323.799 283.377C323.997 281.422 323.946 279.428 323.81 277.462C323.686 275.654 324.462 275.258 326.111 275.263C353.239 275.303 380.368 275.303 407.496 275.252C409.366 275.252 409.989 275.819 409.848 277.66C409.701 279.62 409.672 281.615 409.848 283.575C410.04 285.649 409.174 286.034 407.287 286.023C393.819 285.949 380.345 285.983 366.877 285.983H366.883Z"
              fill="#040100"/>
        <path d="M174.661 240.011C187.942 240.011 201.223 240.062 214.504 239.96C216.725 239.943 217.836 240.317 217.53 242.815C217.23 245.314 218.544 248.555 217.014 250.17C215.462 251.807 212.193 250.691 209.688 250.691C184.73 250.731 159.766 250.691 134.807 250.765C132.376 250.77 131.096 250.368 131.47 247.597C131.793 245.206 130.484 242.079 131.997 240.532C133.515 238.98 136.643 240.045 139.056 240.033C150.927 239.982 162.791 240.011 174.661 240.011Z"
              fill="#040100"/>
        <path d="M367.082 250.713C353.609 250.713 340.135 250.668 326.661 250.758C324.491 250.775 323.557 250.277 323.812 247.971C324.083 245.466 322.803 242.197 324.282 240.611C325.919 238.849 329.268 240.044 331.857 240.038C356.827 239.987 381.791 240.038 406.761 239.948C409.186 239.936 410.223 240.429 409.849 243.002C409.492 245.472 410.92 248.702 409.237 250.283C407.713 251.716 404.563 250.685 402.132 250.69C390.449 250.73 378.766 250.707 367.082 250.707V250.713Z"
              fill="#040100"/>
        <path d="M174.399 268.323C161.016 268.323 147.638 268.266 134.255 268.38C131.989 268.397 131.247 267.739 131.479 265.541C131.74 263.037 130.465 259.813 131.983 258.181C133.53 256.515 136.794 257.648 139.292 257.643C164.359 257.597 189.425 257.66 214.485 257.552C217.063 257.541 217.783 258.3 217.522 260.708C217.262 263.116 218.485 266.244 217.058 267.79C215.596 269.377 212.429 268.289 210.015 268.3C198.145 268.357 186.269 268.323 174.399 268.323Z"
              fill="#020000"/>
        <path d="M366.697 268.322C353.404 268.322 340.118 268.271 326.831 268.373C324.587 268.39 323.511 267.988 323.817 265.5C324.123 263.007 322.797 259.761 324.338 258.157C325.896 256.531 329.16 257.647 331.664 257.642C356.736 257.602 381.808 257.647 406.88 257.562C409.169 257.557 410.137 258.027 409.854 260.458C409.565 262.956 410.863 266.226 409.367 267.801C407.848 269.399 404.557 268.288 402.047 268.299C390.267 268.356 378.482 268.322 366.702 268.322H366.697Z"
              fill="#020000"/>
        <path d="M256.028 251.603C254.64 252.407 253.598 252.13 252.606 252.135C244.521 252.164 236.43 252.101 228.345 252.186C226.486 252.203 225.602 251.841 225.738 249.75C225.914 247.132 225.857 244.498 225.75 241.874C225.687 240.356 226.276 239.965 227.71 239.982C232.69 240.05 237.676 240.022 242.662 239.999C243.643 239.999 244.441 240.169 245.184 240.917C248.691 244.441 252.261 247.909 256.023 251.603H256.028Z"
              fill="#020000"/>
        <path d="M513.534 394.81C444.33 394.81 375.131 394.795 305.928 394.871C303.472 394.871 302.991 394.186 303 391.882C303.09 371.432 303.052 350.981 303.057 330.531C303.057 329.747 303.109 328.968 303.137 328.184C304.157 328.156 305.177 328.099 306.192 328.099C374.286 328.099 442.385 328.099 510.479 328.09C511.499 328.09 512.514 328.033 513.534 328V394.805V394.81ZM461.749 377.891C466.306 377.891 470.862 377.891 475.419 377.891C479.9 377.891 479.824 377.891 479.829 373.405C479.829 371.762 479.329 371.276 477.685 371.299C471.245 371.384 464.804 371.333 458.364 371.333C453.642 371.333 453.722 371.333 453.637 366.686C453.604 364.878 454.067 364.254 455.979 364.292C462.259 364.41 468.549 364.373 474.829 364.325C479.215 364.292 478.46 365.019 478.644 360.42C478.715 358.65 478.162 358.144 476.401 358.173C470.277 358.272 464.148 358.21 458.019 358.21C453.628 358.21 453.712 358.21 453.632 353.914C453.604 352.181 454.057 351.6 455.856 351.628C462.217 351.727 468.582 351.723 474.942 351.647C480.174 351.586 479.362 352.691 479.499 347.048C479.532 345.631 479.074 345.121 477.629 345.126C466.868 345.169 456.106 345.164 445.345 345.126C444 345.126 443.598 345.613 443.603 346.916C443.641 356.633 443.65 366.346 443.598 376.064C443.589 377.518 444.066 377.929 445.487 377.91C450.908 377.839 456.328 377.882 461.744 377.882L461.749 377.891ZM415.635 369.751C411.782 362.092 407.896 354.414 404.072 346.703C403.51 345.57 402.825 345.084 401.536 345.126C399.024 345.216 396.512 345.178 394 345.14C392.687 345.121 392.036 345.263 392.876 346.807C398.25 356.718 403.571 366.658 408.878 376.607C409.388 377.565 410.002 377.934 411.088 377.91C414.148 377.844 417.213 377.863 420.277 377.901C421.226 377.915 421.868 377.693 422.355 376.782C427.719 366.686 433.12 356.61 438.527 346.538C439.061 345.542 438.886 345.131 437.71 345.145C434.882 345.173 432.053 345.188 429.23 345.14C428.167 345.121 427.719 345.712 427.308 346.538C423.417 354.301 419.512 362.059 415.64 369.751H415.635ZM354.549 377.886H366.807C371.637 377.886 371.51 377.886 371.67 373.15C371.746 370.974 370.981 370.563 369.002 370.601C362.642 370.714 356.272 370.572 349.912 370.686C347.999 370.719 347.527 370.072 347.565 368.268C347.674 363.098 347.636 357.922 347.589 352.752C347.565 350.334 348.618 347.109 347.197 345.702C345.544 344.073 342.267 345.391 339.708 345.15C338.131 345.003 337.517 345.49 337.531 347.199C337.607 356.761 337.611 366.323 337.531 375.88C337.517 377.608 338.131 377.943 339.703 377.915C344.652 377.825 349.6 377.882 354.553 377.882L354.549 377.886ZM387.625 361.539C387.625 356.836 387.526 352.133 387.673 347.435C387.734 345.49 387.04 345.008 385.264 345.131C383.39 345.258 381.492 345.221 379.612 345.14C378.163 345.079 377.525 345.461 377.539 347.095C377.61 356.733 377.596 366.37 377.549 376.012C377.544 377.391 377.889 377.995 379.386 377.915C381.501 377.801 383.635 377.783 385.746 377.92C387.403 378.028 387.677 377.315 387.654 375.88C387.583 371.101 387.625 366.318 387.625 361.539Z"
              fill="#2ACBCB"/>
        <path d="M461.75 377.891C456.329 377.891 450.908 377.849 445.492 377.92C444.071 377.939 443.594 377.528 443.604 376.073C443.66 366.356 443.651 356.643 443.608 346.925C443.604 345.622 444.005 345.131 445.351 345.136C456.112 345.174 466.873 345.174 477.634 345.136C479.079 345.131 479.537 345.641 479.504 347.058C479.362 352.7 480.179 351.6 474.947 351.657C468.587 351.727 462.222 351.737 455.862 351.638C454.063 351.609 453.609 352.19 453.638 353.923C453.713 358.22 453.628 358.22 458.024 358.22C464.153 358.22 470.277 358.281 476.406 358.182C478.168 358.154 478.72 358.659 478.649 360.43C478.46 365.029 479.216 364.302 474.834 364.335C468.549 364.382 462.264 364.42 455.984 364.302C454.072 364.264 453.609 364.887 453.642 366.696C453.727 371.342 453.642 371.342 458.369 371.342C464.81 371.342 471.25 371.394 477.691 371.309C479.334 371.285 479.834 371.772 479.834 373.415C479.834 377.901 479.905 377.901 475.424 377.901C470.868 377.901 466.311 377.901 461.754 377.901L461.75 377.891Z"
              fill="#FAFDFD"/>
        <path d="M415.637 369.751C419.509 362.059 423.414 354.301 427.305 346.538C427.716 345.716 428.164 345.121 429.227 345.14C432.055 345.188 434.879 345.173 437.707 345.145C438.878 345.136 439.058 345.542 438.524 346.538C433.118 356.61 427.716 366.686 422.352 376.781C421.865 377.698 421.223 377.915 420.274 377.901C417.214 377.863 414.15 377.844 411.085 377.91C409.999 377.934 409.386 377.565 408.876 376.607C403.573 366.658 398.251 356.718 392.873 346.807C392.037 345.263 392.689 345.121 393.997 345.14C396.509 345.178 399.026 345.216 401.533 345.126C402.822 345.079 403.507 345.57 404.069 346.703C407.893 354.414 411.78 362.092 415.633 369.751H415.637Z"
              fill="#FAFDFD"/>
        <path d="M354.55 377.887C349.601 377.887 344.648 377.831 339.7 377.92C338.132 377.949 337.513 377.613 337.528 375.885C337.608 366.323 337.608 356.762 337.528 347.205C337.513 345.491 338.123 345.004 339.704 345.155C342.264 345.396 345.541 344.079 347.193 345.708C348.615 347.115 347.566 350.34 347.585 352.758C347.632 357.928 347.67 363.103 347.562 368.274C347.524 370.082 347.996 370.724 349.908 370.691C356.269 370.578 362.638 370.72 368.999 370.606C370.977 370.568 371.742 370.984 371.667 373.156C371.506 377.887 371.634 377.892 366.803 377.892C362.719 377.892 358.634 377.892 354.545 377.892L354.55 377.887Z"
              fill="#FEFEFE"/>
        <path d="M387.625 361.54C387.625 366.318 387.578 371.101 387.654 375.88C387.677 377.32 387.403 378.033 385.746 377.92C383.635 377.778 381.501 377.802 379.386 377.915C377.889 377.995 377.544 377.391 377.549 376.012C377.596 366.375 377.61 356.733 377.539 347.095C377.525 345.462 378.163 345.079 379.612 345.141C381.496 345.221 383.39 345.259 385.264 345.131C387.04 345.008 387.734 345.49 387.672 347.435C387.521 352.134 387.625 356.837 387.625 361.54Z"
              fill="#FEFEFE"/>
    </g>
    <defs>
        <clipPath id="clip0_83_2548">
            <rect width="542" height="542" fill="white"/>
        </clipPath>
    </defs>
</svg>
