<svg width="32" height="32" viewBox="0 0 32 32" fill="none" xmlns="http://www.w3.org/2000/svg">
<path d="M11.1154 14.816C11.1154 14.816 11.0981 13.436 11.1154 12.7474C11.1139 12.5892 11.1559 12.4337 11.2367 12.2977C11.3175 12.1617 11.4341 12.0505 11.5738 11.9762C11.7134 11.9019 11.8708 11.8674 12.0287 11.8764C12.1867 11.8854 12.3391 11.9375 12.4694 12.0272C13.6218 12.7321 14.7742 13.4475 15.9266 14.1735C16.0656 14.2512 16.1805 14.3658 16.2585 14.5047C16.3365 14.6435 16.3746 14.8012 16.3687 14.9604C16.3627 15.1195 16.3129 15.274 16.2247 15.4066C16.1365 15.5392 16.0134 15.6449 15.8689 15.712C14.6878 16.3535 13.5027 16.9873 12.3139 17.6134C11.608 17.9851 11.0988 17.547 11.1161 16.7432C11.1161 16.1008 11.1154 14.816 11.1154 14.816Z" fill="white"/>
<path d="M13.2002 7.22799C9.19637 4.83381 6.70999 5.51468 6.70999 5.51468C6.75339 5.34864 6.91534 5.33057 7.04344 5.29036C7.11093 5.26918 7.17861 5.24794 7.23428 5.20817C7.37785 5.15433 7.52477 5.11167 7.67156 5.06905C7.76042 5.04325 7.84923 5.01746 7.93722 4.98922C8.16828 4.92507 8.40303 4.87504 8.64017 4.83941C8.91078 4.79371 9.1841 4.7658 9.45836 4.75586H10.1843C10.4612 4.76039 10.7374 4.78349 11.0112 4.825C11.8859 4.90781 12.7465 5.10143 13.5723 5.4012C13.7282 5.47504 13.872 5.57218 13.9987 5.6893C13.9987 5.6893 14.6325 6.05368 16.6576 8.2584C18.5153 10.2807 19.6276 12.032 19.6276 12.032C19.6276 12.032 15.892 8.83763 13.2002 7.22799Z" fill="url(#paint0_linear_20702_741)"/>
<path d="M6.40239 5.68821C8.78125 4.18577 13.0454 5.28472 13.9942 5.68821C13.0464 4.65715 11.4433 2.89755 9.42501 1.61812C8.48482 1.02211 7.60211 0.49455 6.9092 0.277965C6.36437 0.107666 5.63553 -0.00801206 5.38439 0.000433794C5.13325 0.00887965 4.50515 0.0304259 4.04048 0.419246C3.36805 0.981916 2.97103 1.74933 2.78303 2.33518C2.56856 3.00354 2.40736 3.40169 2.28462 4.11897C2.05386 5.46751 1.9819 6.21139 1.88373 7.60415C1.75724 9.39882 1.80873 10.6435 1.85396 12.2856C1.92668 14.9257 2.03824 19.0343 2.45596 19.463C2.53328 19.1919 2.10774 8.40064 6.40239 5.68821Z" fill="url(#paint1_linear_20702_741)"/>
<path d="M19.3771 19.5444C23.6254 17.617 24.4819 15.1855 24.4819 15.1855C24.5936 15.3158 24.5162 15.4592 24.4763 15.5874C24.4553 15.6549 24.4342 15.7227 24.4352 15.7911C24.3977 15.9397 24.3491 16.0848 24.3005 16.2297C24.2711 16.3175 24.2417 16.4051 24.2148 16.4936C24.1359 16.72 24.0433 16.9415 23.9376 17.1567C23.821 17.4051 23.6883 17.6457 23.5402 17.8768L23.1268 18.4735C22.9654 18.6985 22.789 18.9124 22.599 19.1137C22.0328 19.7855 21.3835 20.3826 20.6667 20.8907C20.5172 20.9768 20.3555 21.0397 20.187 21.0771C20.187 21.0771 19.5266 21.3905 16.5609 21.7994C13.8406 22.1745 11.7676 22.0913 11.7676 22.0913C11.7676 22.0913 16.5209 20.8402 19.3771 19.5444Z" fill="url(#paint2_linear_20702_741)"/>
<path d="M24.5137 14.8317C24.3938 17.6427 21.0619 20.5218 20.1898 21.0718C21.5772 20.88 23.9365 20.5645 26.1377 19.6343C27.163 19.2009 28.0994 18.7759 28.6721 18.3297C29.1224 17.9788 29.6326 17.4456 29.7687 17.2344C29.9047 17.0232 30.2448 16.4946 30.1898 15.8912C30.1103 15.0181 29.7057 14.2546 29.3312 13.7664C28.904 13.2095 28.6685 12.8502 28.1489 12.3408C27.1719 11.3831 26.6014 10.9003 25.5125 10.0263C24.1094 8.90019 23.0571 8.23363 21.6816 7.33553C19.4701 5.89163 16.0295 3.64328 15.4391 3.74243C15.618 3.9604 24.7303 9.75681 24.5137 14.8317Z" fill="url(#paint3_linear_20702_741)"/>
<path d="M6.15346 20.44C6.23896 25.1043 8.13177 26.8544 8.13177 26.8544C7.9679 26.9054 7.86691 26.7775 7.76504 26.69C7.71137 26.644 7.65755 26.5978 7.59436 26.5715C7.47274 26.4782 7.35883 26.376 7.24503 26.274C7.17613 26.2122 7.10728 26.1505 7.03677 26.0907C6.86013 25.9286 6.69352 25.7558 6.53787 25.5734C6.35597 25.3679 6.18774 25.1507 6.03425 24.9231L5.6503 24.307C5.50774 24.0696 5.38126 23.823 5.27171 23.5687C4.87941 22.7825 4.58859 21.9497 4.40624 21.0903C4.38645 20.9189 4.39286 20.7455 4.42526 20.5761C4.42526 20.5761 4.39935 19.8455 5.19947 16.9607C5.93342 14.3145 6.83152 12.4443 6.83152 12.4443C6.83152 12.4443 6.09598 17.3042 6.15346 20.44Z" fill="url(#paint4_linear_20702_741)"/>
<path d="M8.4422 27.0233C5.90898 25.7989 4.58653 21.5987 4.4272 20.5801C4.0534 21.9298 3.40781 24.2209 3.38933 26.6105C3.38072 27.7237 3.39981 28.7518 3.58244 29.4544C3.72605 30.0069 4.01333 30.6867 4.15331 30.8953C4.2933 31.104 4.64376 31.6257 5.2195 31.8144C6.05266 32.0876 6.91395 32.0187 7.51059 31.8684C8.19125 31.6969 8.61442 31.6232 9.2881 31.348C10.5547 30.8307 11.224 30.4983 12.458 29.8451C14.0481 29.0033 15.0772 28.3014 16.4469 27.3945C18.6492 25.9366 22.0772 23.669 22.2201 23.0877C21.9491 23.1655 13.0155 29.2337 8.4422 27.0233Z" fill="url(#paint5_linear_20702_741)"/>
<defs>
<linearGradient id="paint0_linear_20702_741" x1="9.93879" y1="4.75586" x2="19.6276" y2="12.032" gradientUnits="userSpaceOnUse">
<stop stop-color="#E2312D"/>
<stop offset="1" stop-color="#F39E30"/>
</linearGradient>
<linearGradient id="paint1_linear_20702_741" x1="7.8992" y1="0" x2="2.43849" y2="19.463" gradientUnits="userSpaceOnUse">
<stop stop-color="#FCC700"/>
<stop offset="0.63" stop-color="#EF8934"/>
</linearGradient>
<linearGradient id="paint2_linear_20702_741" x1="23.2668" y1="18.2724" x2="11.7678" y2="22.0921" gradientUnits="userSpaceOnUse">
<stop stop-color="#312783"/>
<stop offset="1" stop-color="#0A97DB"/>
</linearGradient>
<linearGradient id="paint3_linear_20702_741" x1="28.3366" y1="19.3009" x2="15.449" y2="3.72723" gradientUnits="userSpaceOnUse">
<stop stop-color="#098BD2"/>
<stop offset="0.63" stop-color="#312783"/>
</linearGradient>
<linearGradient id="paint4_linear_20702_741" x1="5.77755" y1="24.5156" x2="6.8289" y2="12.4446" gradientUnits="userSpaceOnUse">
<stop stop-color="#372374"/>
<stop offset="1" stop-color="#7077EB"/>
</linearGradient>
<linearGradient id="paint5_linear_20702_741" x1="2.82142" y1="28.7628" x2="22.2278" y2="23.1041" gradientUnits="userSpaceOnUse">
<stop stop-color="#8052E7"/>
<stop offset="0.63" stop-color="#29235C"/>
</linearGradient>
</defs>
</svg>
