<svg xmlns="http://www.w3.org/2000/svg" viewBox="0 0 256 256">
    <defs>
        <style>.cls-1{fill:#fff;}.cls-2{fill:#f1564d;}</style>
    </defs>
    <path class="cls-1"
          d="M128.09,42.47c-30.41,0-53.18,20.19-53.18,49v29.21c0,28.82,23.81,46.16,53.18,46.16h0c29.37,0,53.18-17.34,53.18-46.16V91.48C181.27,62.66,160.54,42.47,128.09,42.47Z"/>
    <polygon class="cls-1"
             points="116.73 213.53 112.63 203.97 98.86 203.97 98.86 174 88.8 174 88.93 213.53 116.73 213.53"/>
    <polygon class="cls-1"
             points="30.44 213.53 24.63 203.97 9.03 203.97 9.03 183.03 24.63 183.03 30.44 174 6.39 174 0 183.03 0 203.97 6.39 213.53 30.44 213.53"/>
    <path class="cls-1" d="M56.11,204V183l-6.55-9H34.07l-6.62,9V204l6.62,9.55H49.56Zm-9-20.95V204H36.47V183H47.09Z"/>
    <path class="cls-1" d="M86.91,204V183l-6.56-9H64.86l-6.62,9V204l6.62,9.55H80.35Zm-9-20.95V204H67.27V183H77.88Z"/>
    <polygon class="cls-1"
             points="166.94 174 159.01 174 158.89 174 151.08 213.53 159.13 213.53 162.98 194.06 166.83 213.53 174.88 213.53 167.06 174 166.94 174"/>
    <polygon class="cls-1"
             points="207.6 174 207.6 183.27 207.6 188.24 207.6 197.51 207.6 204.26 207.6 213.53 215.65 213.53 230.1 213.53 230.1 204.26 215.65 204.26 215.65 198.12 230.1 198.12 230.1 188.24 215.65 188.24 215.65 183.03 230.1 183.03 230.1 174 215.65 174 207.6 174"/>
    <polygon class="cls-1"
             points="176.81 174 176.81 213.53 184.86 213.53 184.86 183.03 191.01 198.54 197.17 183.03 197.17 213.53 205.22 213.53 205.22 174 176.81 174"/>
    <polygon class="cls-1"
             points="252.29 183.03 255.32 174 236.22 174 232.26 180.48 232.26 198.24 247.95 198.24 247.95 204.26 232.26 204.26 232.26 204.26 236.22 213.53 251.8 213.53 256 206.3 256 196.43 251.47 190.08 240.52 190.08 240.52 183.03 252.29 183.03"/>
    <polygon class="cls-1"
             points="144.88 183.03 150.07 174 127.69 174 122.92 183.03 122.92 204.26 127.69 213.53 141.2 213.53 149.46 213.53 149.46 190.08 133.88 190.08 136.43 198.12 141.38 198.12 141.38 204.26 131.18 204.26 131.18 183.03 144.88 183.03"/>
    <path class="cls-2"
          d="M113.85,61.27a15.19,15.19,0,0,1,14-9.34,15,15,0,0,1,9.43,3.29,15.51,15.51,0,0,1,1.57,1.46l3.91-2.15v9.52h0l0,.16h-7l-.15-.37a8.42,8.42,0,0,0-14.81-1.37l4.51,3.46-5.46,3.77a8.42,8.42,0,0,0,15.76.61l.15-.37h7l-.18.74A15.28,15.28,0,0,1,137.29,79a15.16,15.16,0,0,1-24.41-9.57l-4.35-3.44Z"/>
    <path class="cls-2"
          d="M171,108.84c-5.23,6.4-16.11,10.23-24.71,7.89.35,2.39.7,4.3,1.61,5,7.6,5.73,16.44-2.06,16.44-2.06s4.1,8.63-1.09,20.93c-5.9,14-20.79,19.85-35.26,19.19-14.46.66-29.35-5.22-35.25-19.19-5.19-12.3-1.1-20.93-1.1-20.93s8.84,7.79,16.45,2.06c.92-.69,1.2-2.68,1.51-5.15-8.68,2.69-20-1.17-25.3-7.72-15-18.43,6.4-40,6.4-40S90.8,90,111.36,81.26c-1.17,7.71,4.66,9.26,7.78,13.42,2.72-3.81,5.17-5.47,8.63-5.47,3.74,0,6.07.28,9.16,4.58,3.22-3.54,8.13-5.39,7-12.53,20.57,8.77,20.65-12.4,20.65-12.4S186.05,90.41,171,108.84Z"/>
    <path class="cls-1"
          d="M151.15,132c-4.89-8.45-12.25,3.5-24.25,3.54s-19.35-12-24.24-3.54c-3.56,6.13,4.1,18,24.26,18S154.7,138.13,151.15,132Z"/>
    <path class="cls-1"
          d="M127.77,104.36c4.59,0,11.13,10.47,11.13,14.69s-3.51,6.47-11,6.47c-9.81,0-11-4-11-6.47C116.83,114.3,123.17,104.36,127.77,104.36Z"/>
    <path class="cls-1"
          d="M143.4,107.57c-3.57-7.8.75-17.65,9.81-17.52,11.11.15,13.06-6.81,13.36-5.38C174.1,109,151.81,110.44,143.4,107.57Z"/>
    <path class="cls-1"
          d="M111.94,107.57c3.57-7.8-.75-17.65-9.81-17.52C91,90.2,89.06,83.24,88.76,84.67,81.24,109,103.53,110.44,111.94,107.57Z"/>
</svg>
