<svg width="32" height="32" viewBox="0 0 32 32" fill="none" xmlns="http://www.w3.org/2000/svg">
<path d="M16 31.5356L0 26.0034V6.69492L16 1L32 6.69492V26.0034L16 31.5356Z" fill="url(#paint0_radial_20826_195)"/>
<path d="M9.4915 7.61766C10.6298 7.61766 11.5525 7.15628 11.5525 6.58715C11.5525 6.01802 10.6298 5.55664 9.4915 5.55664C8.35323 5.55664 7.43048 6.01802 7.43048 6.58715C7.43048 7.15628 8.35323 7.61766 9.4915 7.61766Z" fill="#FDFEFD"/>
<path d="M16 7.61766C17.1383 7.61766 18.061 7.15628 18.061 6.58715C18.061 6.01802 17.1383 5.55664 16 5.55664C14.8617 5.55664 13.939 6.01802 13.939 6.58715C13.939 7.15628 14.8617 7.61766 16 7.61766Z" fill="#FDFEFD"/>
<path d="M24.5695 6.58715C24.5695 7.15628 23.6467 7.61766 22.5085 7.61766C21.3702 7.61766 20.4474 7.15628 20.4474 6.58715C20.4474 6.01802 21.3702 5.55664 22.5085 5.55664C23.6467 5.55664 24.5695 6.01802 24.5695 6.58715Z" fill="#FDFEFD"/>
<path d="M4.12201 12.3905L1.95251 11.5227V24.7024L6.7254 26.4922C7.59319 26.7634 8.54777 26.4488 8.67794 25.1905C8.80811 23.9322 8.73218 15.4459 8.67794 11.36C8.66786 10.6007 8.33082 9.46173 7.15929 9.02783C5.98777 8.59393 3.19997 7.68998 1.95251 7.29224V9.40749L6.61692 11.0888V24.16L4.12201 23.2922V12.3905Z" fill="#FDFEFD"/>
<path d="M29.9566 11.5227L26.5763 12.716V14.8312L27.7871 14.4516V23.2922L25.2922 24.16V11.0888L29.9566 9.40749V7.29224C28.7091 7.68998 25.9214 8.59393 24.7498 9.02783C23.5783 9.46173 23.2413 10.6007 23.2312 11.36C23.1769 15.4459 23.101 23.9322 23.2312 25.1905C23.3614 26.4488 24.3159 26.7634 25.1837 26.4922L29.9566 24.7024V11.5227Z" fill="#FDFEFD"/>
<path d="M10.522 26.3295V10.2753L12.6373 11.0888V26.3295L14.7525 26.9804V11.7397L15.8373 12.1736H16.1627L17.2475 11.7397V26.9804L19.3627 26.3295V11.0888L21.478 10.2753V26.3295C21.4599 26.7092 21.0983 27.6204 19.7966 28.2278C18.4949 28.8353 16.904 29.3487 16.2712 29.5295H15.7288C15.096 29.3487 13.5051 28.8353 12.2034 28.2278C10.9017 27.6204 10.5401 26.7092 10.522 26.3295Z" fill="#FDFEFD"/>
<defs>
<radialGradient id="paint0_radial_20826_195" cx="0" cy="0" r="1" gradientUnits="userSpaceOnUse" gradientTransform="translate(16 16.2678) rotate(90) scale(15.2678 16)">
<stop stop-color="#E91D20"/>
<stop offset="1" stop-color="#AE181A"/>
</radialGradient>
</defs>
</svg>
