<svg width="32" height="32" viewBox="0 0 32 32" fill="none" xmlns="http://www.w3.org/2000/svg">
<path d="M4.45143 17.535C7.56264 17.9886 10.2191 17.535 12.6842 15.982C15.1492 14.429 18.0211 12.8766 23.358 13.3301C26.3735 13.5693 29.6761 14.3339 31.9976 14.9309C31.3993 6.13929 23.7888 -0.525712 14.9577 0.0713622C6.53351 0.621089 0 7.57266 0 15.982C0 16.2447 1.67099e-07 16.4839 0.023923 16.7466C0.741906 16.9135 2.24964 17.224 4.45143 17.535Z" fill="url(#paint0_linear_20702_802)"/>
<path d="M31.7845 15.7426C31.7845 15.7426 27.1177 14.4049 23.3364 14.1896C19.5551 13.9747 17.5687 13.9748 14.8882 15.5272C12.2078 17.0802 10.0061 19.0633 4.66913 18.1792C2.56312 17.8208 1.10324 17.63 0.0741577 17.4864C0.911755 26.2776 8.71373 32.7278 17.5209 31.892C25.7296 31.1035 32.0238 24.2232 31.9999 15.9813C31.9999 15.9334 31.9999 15.8617 31.9999 15.8143L31.7845 15.7426Z" fill="url(#paint1_linear_20702_802)"/>
<path d="M3.11268 8.8871C0.432283 11.539 0.886966 16.1975 0.886966 16.1975C3.11268 16.6516 5.5538 16.4123 7.10938 15.3134C8.49745 14.334 13.0925 7.93169 10.6753 5.99643C9.5505 5.11278 5.57773 6.42654 3.11268 8.8871Z" fill="#DDDDDD" fill-opacity="0.7"/>
<path d="M5.02717 25.9462C2.29887 23.8918 2.10739 19.6635 2.10739 19.6635C4.06986 18.9707 6.29558 18.875 7.85116 19.6635C9.2153 20.3801 14.1693 25.54 12.2308 27.5709C11.3214 28.5264 7.56398 27.8336 5.02717 25.9462Z" fill="#DDDDDD" fill-opacity="0.7"/>
<path d="M2.30262 12.6571C1.12991 13.8039 1.32139 15.8583 1.32139 15.8583C2.30262 16.0736 3.37955 15.954 4.07361 15.476C4.67192 15.0464 6.5865 12.3706 5.62919 11.3912C5.12661 10.8654 3.37955 11.5821 2.30262 12.6571Z" fill="white" fill-opacity="0.8"/>
<path d="M2.5412 19.9148C2.55441 20.1326 2.69216 21.8146 3.83228 22.6624C4.93318 23.4987 6.60847 23.9049 6.99139 23.3791C7.73329 22.3997 5.67508 20.2258 5.07677 19.9153C4.40703 19.5569 3.40247 19.6048 2.5412 19.9148Z" fill="white" fill-opacity="0.8"/>
<defs>
<linearGradient id="paint0_linear_20702_802" x1="30.3941" y1="8.83908" x2="1.55558" y2="8.83908" gradientUnits="userSpaceOnUse">
<stop stop-color="#338334"/>
<stop offset="1" stop-color="#66A631"/>
</linearGradient>
<linearGradient id="paint1_linear_20702_802" x1="0.0023395" y1="20.3053" x2="31.3537" y2="20.0656" gradientUnits="userSpaceOnUse">
<stop stop-color="#57BCDD"/>
<stop offset="1" stop-color="#109CBF"/>
</linearGradient>
</defs>
</svg>
