<svg width="542" height="542" viewBox="0 0 542 542" fill="none" xmlns="http://www.w3.org/2000/svg">
    <path d="M514.395 160.452C513.769 195.337 513.322 230.237 512.398 265.121C512.07 277.743 511.578 290.365 511.787 302.971C511.906 310.258 508.181 315.951 505.26 321.956C490.552 352.206 475.635 382.338 460.913 412.573C459.542 415.389 458.499 416.194 455.161 415.27C440.87 411.336 426.46 407.879 412.095 404.258C393.9 399.668 375.705 395.078 357.51 390.504C336.439 385.199 315.353 379.953 294.312 374.529C290.14 373.456 286.623 375.378 282.942 376.332C273.808 378.687 264.673 381.086 255.658 383.768C249.16 385.69 242.574 387.479 236.121 389.58C230.31 391.472 224.349 393.186 218.418 394.825C201.788 399.4 185.217 404.228 168.617 408.952C162.209 410.77 155.772 412.528 149.409 414.48C147.606 415.032 146.324 414.54 144.923 413.646C134.552 406.955 123.912 400.652 113.854 393.529C98.028 382.338 81.2339 372.681 65.1848 361.848C53.3678 353.875 41.4614 346.037 29.4805 338.333C27.4688 337.037 26.8727 335.681 27.0217 333.52C28.0648 317.858 29.0781 302.197 30.0766 286.52C31.373 266.06 32.6247 245.585 33.9361 225.125C34.4725 216.855 35.1878 208.614 35.62 200.344C35.7243 198.436 36.4098 197.483 38.034 196.738C79.1178 177.783 120.187 158.813 161.256 139.828C169.317 136.103 177.379 132.392 185.381 128.563C187.408 127.594 188.541 127.847 190.061 129.606C205.275 147.354 220.639 164.982 235.913 182.685C246.001 194.368 256.045 206.111 266.104 217.823C269.173 221.4 269.173 221.355 271.975 217.227C292.032 187.558 312.164 157.934 332.148 128.22C333.623 126.029 335.098 125.776 337.393 126.134C357.659 129.412 377.94 132.616 398.221 135.85C405.181 136.967 412.14 138.13 419.099 139.247C434.567 141.721 450.079 143.911 465.487 146.758C470.897 147.756 476.291 149.038 481.745 149.604C492.042 150.647 502.131 152.942 512.383 154.104C514.156 154.298 514.722 155.207 514.708 156.786C514.708 158.023 514.708 159.26 514.708 160.497C514.618 160.497 514.514 160.497 514.424 160.497L514.395 160.452ZM428.114 221.191C421.736 221.191 416.804 222.92 412.095 225.17C406.253 227.957 403.899 236.406 409.681 241.502C413.972 245.287 418.86 246.256 424.016 246.792C431.094 247.522 437.741 246.166 443.716 242.009C450.288 237.434 448.574 229.328 443.344 226.064C438.307 222.92 432.898 221.549 428.114 221.176V221.191ZM421.751 311.644C432.689 311.644 436.444 305.833 433.419 297.562C430.036 288.308 416.848 280.246 407.043 280.768C397.923 281.245 393.006 289.173 397.745 296.564C403.601 305.728 412.125 311.048 421.751 311.644ZM425.506 202.46C426.147 206.409 428.487 209.315 432.227 211.162C438.56 214.307 445.415 214.664 452.061 213.383C458.201 212.206 464.012 209.598 466.873 203.205C467.231 202.4 467.857 201.819 467.499 200.657C466.411 197.244 464.564 194.607 461.434 192.699C453.149 187.677 438.083 188.378 430.513 194.443C428.055 196.41 425.834 198.69 425.521 202.445L425.506 202.46ZM144.834 271.186C149.334 271.663 153.388 269.547 156.83 266.909C161.807 263.11 166.382 258.788 167.872 252.157C169.75 243.797 164.951 237.836 156.487 239.148C145.579 240.832 139.052 247.806 135.267 257.924C132.749 264.63 136.921 271.902 144.834 271.186ZM287.07 262.841C287.07 265.553 287.353 266.82 288.978 269.473C294.417 278.324 302.672 282.824 312.731 283.882C320.614 284.702 325.829 277.892 322.938 271.022C319.064 261.828 306.204 253.021 294.774 254.556C290.021 255.197 287.055 258.326 287.07 262.856V262.841ZM418.547 362.861C409.278 362.787 405.017 368.36 407.714 375.557C411.052 384.468 424.419 392.724 433.881 391.74C442.151 390.876 445.579 384.752 441.377 377.524C436.101 368.479 427.682 364.083 418.547 362.861ZM146.801 228.21C156.368 228.195 167.753 218.524 169.243 209.181C170.673 200.195 166.277 195.695 157.277 196.916C148.947 198.049 139.395 206.766 137.473 214.992C135.595 223.039 139.246 228.225 146.786 228.21H146.801ZM466.65 157.68C460.421 157.77 455.086 158.724 450.407 161.853C443.358 166.577 443.91 173.879 451.361 177.902C454.982 179.854 458.871 180.584 462.775 180.689C469.123 180.853 475.337 179.839 480.568 175.697C485.932 171.464 486.096 166.532 480.881 162.076C476.589 158.396 471.269 157.904 466.635 157.68H466.65ZM316.069 223.888C321.284 223.65 325.963 222.86 330.195 220.178C337.959 215.26 337.944 206.737 329.629 202.832C320.539 198.556 311.33 198.556 302.717 204.71C297.248 208.614 296.756 214.426 301.659 219.045C305.816 222.965 311.077 223.59 316.069 223.888ZM327.916 363.278C331.402 363.621 335.113 362.801 336.976 359.046C338.749 355.47 337.751 351.789 335.5 348.585C329.838 340.538 322.283 335.74 312.209 335.755C304.55 335.755 301.093 341.209 304.028 348.302C307.381 356.409 318.036 363.234 327.916 363.278ZM146.905 186.679C156.591 186.739 168.394 176.844 170.301 167.054C171.955 158.53 166.337 153.746 157.992 156.429C148.738 159.409 143.031 166.025 138.978 174.415C136.742 179.064 139.946 187.782 146.905 186.679ZM45.0676 297.055C45.008 303.389 48.3907 306.593 54.7239 306.22C63.8437 305.684 74.0364 296.161 74.707 285.164C75.0497 279.531 71.5478 276.148 65.8852 276.104C56.0203 276.029 45.1719 286.952 45.0676 297.055ZM337.527 169.989C331.701 169.468 326.455 170.943 322 174.713C317.335 178.662 317.32 183.997 321.88 188.08C325.159 191.03 329.197 192.073 333.474 192.327C339.807 192.699 345.857 191.835 350.909 187.573C356.02 183.267 355.811 177.455 350.462 173.491C346.617 170.645 342.281 169.512 337.542 169.974L337.527 169.989ZM48.1671 256.493C48.2566 258.46 48.1969 260.397 49.4785 262.141C51.8329 265.36 55.8564 266.611 60.4908 265.196C69.2381 262.528 74.4983 256.15 77.5383 248.014C79.8927 241.726 74.8709 235.065 68.642 235.393C58.7324 235.914 48.3162 246.643 48.1671 256.478V256.493ZM175.427 302.316C172.387 302.003 169.422 302.629 166.62 303.463C162.925 304.566 159.169 306.205 158.32 310.541C157.62 314.028 159.914 316.517 162.597 318.141C171.851 323.759 181.656 324.847 191.551 320.079C197.645 317.143 197.884 311.54 192.504 307.502C187.453 303.702 181.552 302.599 175.442 302.316H175.427ZM356.139 140.305C352.891 140.216 349.657 140.618 346.692 141.885C342.519 143.673 338.57 146.012 338.153 151.154C337.766 156.026 341.223 158.694 345.067 160.199C353.099 163.343 361.161 163.03 368.433 158.053C374.528 153.881 373.932 146.758 367.524 142.987C363.992 140.901 360.148 140.305 356.139 140.32V140.305ZM80.2504 205.768C80.4143 199.524 76.7336 196.186 70.4302 196.872C61.5488 197.84 52.1608 207.929 51.9075 216.84C51.8031 220.774 53.8894 225.587 60.0735 225.572C69.402 225.572 79.997 215.305 80.2355 205.753L80.2504 205.768ZM169.362 361.207C173.311 362.31 176.351 360.745 179.436 359.18C185.203 356.245 185.799 351.193 180.36 347.751C171.776 342.327 162.507 341.716 153.03 345.292C150.541 346.231 148.321 347.81 148.232 350.835C148.142 353.786 149.692 355.991 152.21 357.452C157.605 360.596 163.357 362.295 169.362 361.207ZM242.186 370.982C246.061 371.176 249.876 370.684 253.512 369.433C256.686 368.345 259.502 366.035 259.845 362.861C260.158 360.104 257.669 357.809 255.032 356.453C246.24 351.923 237.179 351.789 228.164 355.515C225.258 356.722 222.457 358.689 223.276 362.757C223.902 365.856 226.182 367.585 228.79 368.643C233.052 370.357 237.552 371.176 242.172 370.997L242.186 370.982ZM89.3106 333.624C84.6463 333.654 81.7554 334.22 78.5367 335.77C73.0678 338.393 72.4568 342.863 77.0316 346.782C83.2307 352.087 98.3857 353.607 105.538 349.643C110.948 346.648 111.246 341.895 106.12 338.378C101.083 334.921 95.3457 333.669 89.3106 333.609V333.624ZM155.042 379.029C151.987 379.476 148.917 378.91 145.713 380.147C142.569 381.354 140.319 383.083 139.976 385.959C139.633 388.835 142.345 390.787 144.715 391.994C152.404 395.898 160.391 396.971 168.647 393.648C170.957 392.724 173.043 391.234 173.311 388.82C173.594 386.257 171.791 384.156 169.615 382.844C165.175 380.147 160.496 378.135 155.057 379.044L155.042 379.029ZM473.147 276.625C472.879 274.375 473.534 271.499 472.238 268.772C470.792 265.717 468.781 265.434 466.739 268.161C466.083 269.04 465.562 270.039 465.13 271.052C461.002 280.41 459.676 290.186 460.749 300.334C460.972 302.36 461.24 304.536 463.55 305.043C465.815 305.535 466.605 303.359 467.663 301.913C468.095 301.332 468.363 300.617 468.647 299.931C471.657 292.645 473.266 285.089 473.147 276.64V276.625ZM230.891 238.522C230.563 240.548 231.413 242.664 231.979 244.795C233.856 251.889 236.688 258.535 241.769 264.019C242.902 265.255 244.258 266.224 246.016 265.628C247.924 264.987 247.864 263.139 247.909 261.604C248.087 255.793 246.255 250.443 243.93 245.242C242.008 240.966 239.921 236.763 236.136 233.724C235.212 232.978 234.184 232.01 232.843 232.71C231.547 233.381 230.876 234.543 230.891 236.048C230.891 236.793 230.891 237.523 230.891 238.537V238.522ZM276.52 325.905C275.417 317.098 272.988 308.664 267.355 301.451C266.193 299.961 264.792 297.92 262.572 298.754C260.247 299.619 260.65 302.211 260.292 304.223C260.232 304.566 260.441 304.953 260.471 305.311C261.111 312.553 263.555 319.214 267.132 325.473C268.22 327.38 269.546 329.183 271.379 330.554C273.823 332.372 275.223 331.538 276.013 328.96C276.296 328.036 276.341 327.038 276.535 325.905H276.52ZM219.134 192.833C219.461 190.3 218.761 187.946 217.956 185.606C215.766 179.288 212.949 173.312 208.047 168.588C206.721 167.307 205.066 166.1 203.085 166.994C201.177 167.858 201.281 169.825 201.401 171.524C202.056 180.972 205.975 189.019 212.353 195.903C213.62 197.274 215.259 198.958 217.465 198.034C219.849 197.051 218.985 194.696 219.134 192.833ZM507.927 204.993C507.823 203.786 507.808 202.788 507.659 201.819C507.316 199.718 507.689 196.618 505.305 196.216C502.473 195.739 501.862 199.018 501.102 201.059C497.586 210.522 496.021 220.342 496.572 230.46C496.677 232.338 496.826 234.618 498.822 235.08C500.819 235.527 501.549 233.276 502.235 231.771C506.154 223.203 507.063 213.994 507.942 204.993H507.927ZM491.744 287.056C492.236 285.119 491.714 282.66 491.61 280.202C491.55 278.637 491.118 277.013 489.568 276.581C487.84 276.104 486.99 277.698 486.32 279.024C481.849 287.831 480.419 297.204 481.194 306.98C481.313 308.545 481.298 310.541 483.205 310.988C485.426 311.51 486.141 309.334 486.812 307.919C489.822 301.496 491.476 294.716 491.744 287.071V287.056ZM477.498 354.829C477.498 353.965 477.513 353.101 477.498 352.236C477.453 350.537 477.811 348.451 475.725 347.796C473.504 347.095 472.685 349.226 471.97 350.642C468.051 358.346 466.352 366.601 466.501 375.215C466.531 376.72 466.605 378.731 468.319 379.312C470.286 379.983 471.15 378.105 471.88 376.764C475.606 369.939 477.23 362.548 477.498 354.829ZM506.616 291.438C506.616 289.709 506.616 287.995 506.616 286.267C506.616 285.402 506.139 284.881 505.364 284.657C504.53 284.419 503.919 284.866 503.487 285.492C502.98 286.192 502.458 286.907 502.16 287.697C499.24 295.342 497.392 303.195 497.63 311.436C497.675 312.866 497.347 314.893 499.091 315.235C501.028 315.623 501.609 313.537 502.19 312.151C505.021 305.549 506.601 298.635 506.616 291.438Z"
          fill="#BF1B21"/>
</svg>
