<svg width="542" height="542" viewBox="0 0 542 542" fill="none" xmlns="http://www.w3.org/2000/svg">
    <path d="M534.324 233.54C528.292 203.451 518.672 174.648 501.284 148.927C487.006 125.102 467.548 106.339 444.301 91.4098C415.528 72.9365 383.63 63.1429 350.025 58.3112C339.769 56.8356 329.498 55.4324 319.227 54.0002H271.56C268.928 54.5644 266.309 55.3601 263.633 55.6639C255.72 56.5318 247.763 57.2262 238.91 58.0652C259.886 94.9107 280.095 130.396 300.927 166.996H269.984C285.766 187.22 300.898 206.604 316.275 226.336C308.406 229.837 301.52 232.889 294.099 236.202C303.589 249.164 312.485 261.344 321.396 273.525C334.402 291.694 347.493 309.821 360.339 328.106C362.799 331.607 365.272 331.144 368.932 330.623C383.138 328.627 397.518 325.473 411.694 325.994C444.865 327.238 468.431 343.7 480.481 375.15C488.626 396.386 490.492 418.635 489.233 441.116C488.38 456.146 486.557 471.133 485.096 486.8C492.806 486.8 500.503 486.323 508.097 486.945C514.159 487.437 516.705 485.252 517.848 479.495C523.822 449.145 531.185 419.011 535.916 388.459C543.93 336.858 544.639 285.04 534.324 233.54ZM417.221 247.688C405.561 247.688 396.114 238.242 396.114 226.582C396.114 214.922 405.561 205.49 417.221 205.49C428.88 205.49 438.312 214.937 438.312 226.582C438.312 238.227 428.866 247.688 417.221 247.688Z"
          fill="url(#paint0_linear_138_415)"/>
    <path d="M320.937 486.423H186.922C186.922 480.116 186.835 473.302 186.951 466.503C187.11 456.55 187.414 446.583 187.645 436.645C187.674 436.63 187.703 436.601 187.732 436.587C187.891 436.457 188.065 436.312 188.224 436.182C188.036 436.283 187.862 436.384 187.66 436.486H187.645V436.645C184.766 438.598 181.888 440.551 178.155 443.068C179.356 429.122 180.484 416.146 181.714 401.868C177.692 405.123 174.481 407.712 170.126 411.228C170.893 397.514 171.588 385.145 172.282 372.776C171.4 372.675 170.517 372.588 169.649 372.487C167.06 391.192 164.485 409.897 161.678 430.366C166.018 427.864 168.405 426.489 171.761 424.551C170.054 438.569 168.448 451.704 166.843 464.825C166.756 465.375 166.669 465.924 166.582 466.459C166.987 466.228 167.407 465.997 167.812 465.765C169.418 464.897 171.023 464.029 173.627 462.611C172.976 471.045 172.398 478.582 171.776 486.582C169.374 486.712 167.262 486.929 165.165 486.929C130.084 486.958 95.0035 486.857 59.923 487.074C55.207 487.103 52.4439 486.061 50.8382 481.302C45.0228 464.073 38.8891 446.945 32.8712 429.788C31.6849 425.983 30.4987 422.193 29.6018 419.343C21.3995 428.384 12.9801 437.672 4.5608 446.974C3.66389 447.494 2.78145 448.03 1.88455 448.565C1.37823 448.767 0.886382 448.955 0.394531 449.158C0.74172 448.825 1.07444 448.478 1.42163 448.145C1.73989 447.74 2.04368 447.321 2.36193 446.901C2.63679 446.54 2.92612 446.163 3.21544 445.802C4.11235 444.688 4.98032 443.588 5.80489 442.475C6.64393 441.375 7.43957 440.247 8.19181 439.118C9.71077 436.876 11.0995 434.59 12.3581 432.261C12.9946 431.104 13.5877 429.932 14.1519 428.761C14.9909 426.996 15.7721 425.216 16.4954 423.408C16.9728 422.207 17.4068 421.007 17.8263 419.792C22.5134 406.092 23.5839 391.365 22.3976 375.626C17.1898 306.362 26.6941 239.846 64.7402 179.797C95.6111 131.061 139.4 97.6726 191.479 74.4254C193.229 73.6442 197.019 74.816 198.466 76.3783C207.102 85.6656 215.131 95.5316 223.753 104.833C235.904 117.94 248.403 130.728 260.728 143.69C262.334 145.368 263.795 147.19 266.095 149.867C251.976 150.749 238.942 151.574 224.187 152.499C246.248 176.05 267.426 198.647 289.502 222.212C276.959 224.642 265.415 226.87 252.888 229.286C262.84 239.528 272.301 249.278 281.777 259.029C307.628 284.316 333.493 309.602 359.171 334.716C310.535 377.362 309.552 430.034 320.937 486.423Z"
          fill="url(#paint1_linear_138_415)"/>
    <path d="M5.80704 442.474C4.98247 443.588 4.1145 444.688 3.21759 445.787H3.20312C4.10003 444.688 4.968 443.588 5.80704 442.474Z"
          fill="url(#paint2_linear_138_415)"/>
    <path d="M3.21288 445.789C2.92356 446.165 2.63423 446.541 2.35938 446.903C2.63423 446.526 2.92356 446.165 3.19841 445.789H3.21288Z"
          fill="url(#paint3_linear_138_415)"/>
    <defs>
        <linearGradient id="paint0_linear_138_415" x1="335.65" y1="85.098" x2="641.473" y2="305.395"
                        gradientUnits="userSpaceOnUse">
            <stop stop-color="#F8AC13"/>
            <stop offset="1" stop-color="#E71D7C"/>
        </linearGradient>
        <linearGradient id="paint1_linear_138_415" x1="114.91" y1="103.83" x2="420.446" y2="377.051"
                        gradientUnits="userSpaceOnUse">
            <stop stop-color="#F8AC13"/>
            <stop offset="1" stop-color="#E71D7C"/>
        </linearGradient>
        <linearGradient id="paint2_linear_138_415" x1="4.03425" y1="442.712" x2="6.4465" y2="444.664"
                        gradientUnits="userSpaceOnUse">
            <stop stop-color="#F8AC13"/>
            <stop offset="1" stop-color="#E71D7C"/>
        </linearGradient>
        <linearGradient id="paint3_linear_138_415" x1="2.6318" y1="445.869" x2="3.43837" y2="446.505"
                        gradientUnits="userSpaceOnUse">
            <stop stop-color="#F8AC13"/>
            <stop offset="1" stop-color="#E71D7C"/>
        </linearGradient>
    </defs>
</svg>
