<svg width="32" height="32" viewBox="0 0 32 32" fill="none" xmlns="http://www.w3.org/2000/svg">
<g clip-path="url(#clip0_20702_797)">
<path d="M31.6814 16.0269C31.4688 15.389 31.1499 14.7512 30.7246 14.1664C30.2994 13.5817 29.7146 13.1033 28.9704 12.7312C28.2262 12.3591 27.3757 12.1465 26.3126 12.1465H19.0301C17.8607 14.1664 15.7875 15.6017 13.3423 15.8675C13.236 16.4522 13.1829 17.09 13.1829 17.7811C13.1829 18.3658 13.2892 18.9505 13.5018 19.6416C13.7144 20.2795 14.0333 20.9173 14.4586 21.5021C14.8839 22.0868 15.4686 22.5652 16.2128 22.9373C16.957 23.3094 17.9669 23.522 18.9769 23.522H26.2594V19.6416H18.8175C18.2328 19.6416 17.8075 19.4821 17.5417 19.11C17.2228 18.7911 17.0633 18.3658 17.0633 17.8342C17.0633 17.3027 17.2228 16.8774 17.5949 16.5585C17.9138 16.2395 18.3391 16.0801 18.8175 16.0801H26.2594C26.8442 16.0801 27.2694 16.2395 27.5352 16.6116C27.8542 16.9306 28.0136 17.3558 28.0136 17.8874V24.1068C28.0136 24.6383 27.8541 25.0636 27.482 25.3825C27.1631 25.7014 26.7379 25.8609 26.2063 25.8609H16.5849V29.2629H26.2594C26.8442 29.2629 27.4289 29.1566 28.1199 28.944C28.7578 28.7314 29.3957 28.4124 29.9804 27.9872C30.5651 27.5619 31.0435 27.1367 31.4156 26.4456C31.7877 25.7014 32.0003 25.1699 32.0003 24.1599V17.9406C31.9472 17.3027 31.894 16.6648 31.6814 16.0269Z" fill="white"/>
<path d="M12.0137 15.9723H5.84758C5.31601 15.9723 4.89074 15.8129 4.5718 15.4939C4.25286 15.175 4.04024 14.7497 4.04024 14.2182V8.47725C4.04024 7.94568 4.19972 7.52042 4.51866 7.20148C4.8376 6.88253 5.26287 6.66991 5.79443 6.66991H13.2364C13.7148 6.66991 14.14 6.82939 14.4589 7.14833C14.7779 7.46727 14.9905 7.89254 14.9905 8.42411C14.9905 8.95567 14.8311 9.38091 14.5122 9.69985C14.1932 10.0188 13.7679 10.2314 13.2364 10.2314H5.79443V14.165H13.0769C14.0869 14.165 15.15 13.9524 15.8411 13.5803C16.5853 13.2082 17.17 12.7298 17.5952 12.1451C18.0205 11.5604 18.3926 10.9756 18.5521 10.2846C18.7647 9.64671 18.871 9.00883 18.871 8.42411C18.871 7.41413 18.6584 6.51046 18.2863 5.76627C17.9142 5.02207 17.4357 4.43732 16.851 4.01207C16.2663 3.58682 15.6816 3.21473 14.9905 3.05526C14.3526 2.84263 13.7148 2.73633 13.13 2.73633H5.68808C4.6781 2.73633 3.77444 2.94894 3.03024 3.32104C2.28605 3.69314 1.70136 4.17155 1.27611 4.75628C0.850857 5.341 0.478733 5.92573 0.319263 6.61676C0.106636 7.25464 0.000335693 7.89253 0.000335693 8.47725V14.2713C0.000335693 15.2813 0.21295 16.185 0.585047 16.9292C0.957144 17.6734 1.43559 18.2581 2.02032 18.6834C2.60504 19.1086 3.18977 19.4807 3.8808 19.6402C4.51868 19.8528 5.15657 19.9591 5.74129 19.9591H11.9075V15.9723H12.0137Z" fill="#B48834"/>
</g>
<defs>
<clipPath id="clip0_20702_797">
<rect width="32" height="32" fill="white"/>
</clipPath>
</defs>
</svg>
