<svg width="300" height="300" viewBox="0 0 300 300" fill="none" xmlns="http://www.w3.org/2000/svg">
    <path fill-rule="evenodd" clip-rule="evenodd"
          d="M272.207 127.598C279.079 134.065 284.639 141.798 288.582 150.371L248.955 157.355C247.085 150.876 244.211 144.729 240.438 139.139L272.207 127.598ZM295.182 181.033H251.947C252.101 174.122 251.386 167.219 249.817 160.486L289.934 153.416C293.368 162.222 295.158 171.582 295.214 181.033H295.182ZM219.24 100.045C227.557 102.274 235.679 105.176 243.525 108.722L222.296 120.976C216.975 117.316 211.292 114.212 205.336 111.714L219.24 100.045ZM247.06 110.415C255.149 114.336 262.697 119.289 269.514 125.15L238.543 136.424C234.713 131.38 230.21 126.884 225.16 123.063L247.06 110.415Z"
          fill="#E7344C"/>
    <path fill-rule="evenodd" clip-rule="evenodd"
          d="M215.42 99.0454L201.962 110.331C152.669 91.1669 78.7706 101.015 36.6102 119.306C37.991 121.434 38.4827 124.019 37.9798 126.506C36.9481 131.609 31.8727 135.054 26.7497 134.129C21.6267 133.204 18.0767 128.201 18.8946 123.06C19.7126 117.919 24.6397 114.265 29.7969 114.976C32.3104 115.322 34.5882 116.64 36.1417 118.646C70.5515 95.6704 152.754 83.331 215.42 99.0454Z"
          fill="white"/>
    <path fill-rule="evenodd" clip-rule="evenodd"
          d="M210.862 157.74C215.813 156.898 223.722 158.069 223.798 163.042V193.917C218.474 195.226 210.692 193.506 210.841 188.466L210.862 157.74ZM186.801 144.431C189.15 144.288 191.492 144.034 193.826 144.461C196.375 144.928 199.103 146.271 199.683 148.967V154.12C196.92 154.525 194.017 154.376 191.326 153.584C188.33 152.702 186.833 151.064 186.833 148.669L186.801 144.431ZM186.96 157.729C191.326 156.898 199.809 157.815 199.885 163.031V193.906C195.052 195.226 186.808 193.467 186.96 188.455V157.729ZM136.772 159.049C142.495 157.297 148.329 157.495 154.233 157.495C161.806 157.495 175.436 159.668 176.037 169.451V193.938C171.629 194.694 163.995 193.296 163.155 189.094V171.24C163.155 165.175 157.013 164.335 151.933 164.292C147.303 164.252 138.487 163.927 138.487 170.356V193.906C133.302 194.694 125.562 193.376 125.562 189.222V157.814C133.302 155.834 136.589 158.941 136.772 159.049ZM77.4603 172.027H102.128C102.128 165.343 95.8838 164.458 90.6355 164.458C84.9671 164.458 77.4603 164.532 77.4603 172.027ZM92.6849 157.495C102.7 157.495 109.613 160.181 113.424 165.554C115.177 168.164 114.819 171.266 114.819 174.253C114.138 178.191 107.92 179.041 104.801 178.937H77.4603V182.748C77.9394 187.241 86.4216 187.274 89.2035 187.231H106.238C111.193 187.231 115.079 189.188 114.691 194.098H90.5556C82.3633 194.098 65.6958 193.906 64.4821 181.556V171.91C65.1635 158.495 82.4613 157.495 92.6849 157.495ZM17.5094 174.998C17.5094 178.521 16.7152 182.99 20.4478 184.921C24.4948 187.015 32.7165 186.859 36.95 185.427C41.8051 183.785 41.3045 179.306 41.3045 175.115C41.3045 171.448 41.7526 166.906 37.6701 165.197C33.4152 163.416 26.0536 163.595 21.7816 164.972C16.8865 166.55 17.5094 170.799 17.5094 174.998ZM39.0794 158.133C40.6611 158.378 41.999 158.691 43.0931 159.07C45.4673 156.898 53.6545 157.073 53.6545 157.782V195.641C49.7259 208.002 38.3285 206.979 31.7545 206.98H5.0103C5.0103 201.082 6.60728 200.549 10.3336 200.549L29.029 200.39C36.1921 200.39 42.8057 200.39 41.3151 191.862C37.7746 192.804 33.8565 192.998 30.2214 193.033C18.4818 193.033 10.8162 190.73 7.22479 186.123C4.63016 182.765 5.02094 178.711 5.02094 174.726C5.02094 168.747 5.36391 163.903 11.3982 160.786C19.3609 156.673 30.3957 156.787 39.0794 158.133Z"
          fill="white"/>
    <path d="M222.573 154.164V149.011C221.994 146.314 219.265 144.971 216.716 144.505C214.382 144.078 212.04 144.332 209.691 144.475L209.723 148.712C209.723 151.107 211.221 152.746 214.216 153.627C216.908 154.42 219.81 154.569 222.573 154.164Z"
          fill="white"/>
</svg>
