<svg width="32" height="32" viewBox="0 0 32 32" fill="none" xmlns="http://www.w3.org/2000/svg">
<path d="M17.315 9.07649C18.2238 9.96137 18.9174 10.9419 19.3957 12.066L14.7321 16.6339C14.756 16.4186 14.78 16.1795 14.78 15.9403C14.78 14.4815 14.3495 13.3096 13.4885 12.4247C12.6514 11.5398 11.5035 11.1093 10.0446 11.1093C8.58576 11.1093 7.43781 11.5637 6.60076 12.4247C5.7637 13.3096 5.33322 14.4815 5.33322 15.9642C5.33322 17.447 5.7637 18.6189 6.60076 19.5038C7.46172 20.3887 8.58576 20.8191 10.0446 20.8191C10.236 20.8191 10.4273 20.8191 10.6186 20.7952L6.33768 25.0761C5.02231 24.6217 3.87436 23.9043 2.84598 22.9237C0.956633 21.0822 0 18.7624 0 16.0121C0 13.2617 0.956631 10.9658 2.86989 9.1004C4.78316 7.25889 7.17473 6.32617 10.0925 6.32617C13.0102 6.32617 15.4257 7.25889 17.315 9.07649Z" fill="#6E37FF"/>
<path d="M25.758 6.94805C27.0016 7.40245 28.1256 8.09601 29.1062 9.05264C31.0195 10.8702 32 13.2379 32 16.0121C32 18.7864 31.0434 21.0823 29.154 22.9238C27.2647 24.7653 24.8731 25.6741 21.9554 25.6741C19.0376 25.6741 16.5982 24.7653 14.7089 22.9238C13.824 22.0867 13.1544 21.1301 12.676 20.0778L17.22 15.5338C17.1961 15.6773 17.1961 15.8208 17.1961 15.9643C17.1961 17.447 17.6266 18.619 18.4637 19.5038C19.3007 20.3887 20.4726 20.8192 21.9075 20.8192C23.3425 20.8192 24.4904 20.3887 25.3514 19.5038C26.2124 18.619 26.6429 17.4232 26.6429 15.9643C26.6429 14.5054 26.2124 13.3336 25.3514 12.4487C24.4904 11.5638 23.3186 11.1333 21.8836 11.1333H21.5727L25.758 6.94805Z" fill="#6E37FF"/>
</svg>
