<svg width="542" height="542" viewBox="0 0 542 542" fill="none" xmlns="http://www.w3.org/2000/svg">
    <g clip-path="url(#clip0_348_1434)">
        <path d="M0 100C0 44.7715 44.7715 0 100 0H442C497.228 0 542 44.7715 542 100V442C542 497.228 497.228 542 442 542H100C44.7715 542 0 497.228 0 442V100Z"
              fill="#F8F8F8"/>
        <path fill-rule="evenodd" clip-rule="evenodd"
              d="M58.1284 412.739C50.7981 409.461 47.4713 400.757 50.7352 393.395L164.819 136.205C168.085 128.842 176.753 125.501 184.082 128.779C191.414 132.055 194.741 140.761 191.478 148.123L77.3926 405.314C74.1287 412.676 65.4603 416.019 58.1284 412.739Z"
              fill="#BBDC00"/>
        <path fill-rule="evenodd" clip-rule="evenodd"
              d="M107.227 412.748C99.9091 409.491 96.5881 400.842 99.8463 393.527L185.333 201.631C188.591 194.316 197.243 190.996 204.562 194.253C211.88 197.513 215.201 206.162 211.942 213.477L126.457 405.37C123.199 412.685 114.546 416.007 107.227 412.748Z"
              fill="#BBDC00"/>
        <path fill-rule="evenodd" clip-rule="evenodd"
              d="M156.459 412.748C149.044 409.493 145.679 400.851 148.98 393.541L205.43 267.105C208.731 259.795 217.499 256.478 224.916 259.733C232.329 262.989 235.694 271.633 232.393 278.943L175.945 405.376C172.643 412.685 163.875 416.004 156.459 412.748Z"
              fill="#8FCF69"/>
        <path fill-rule="evenodd" clip-rule="evenodd"
              d="M201.626 412.725C194.089 409.411 190.669 400.613 194.024 393.172L221.337 332.741C224.692 325.299 233.605 321.922 241.143 325.236C248.68 328.552 252.101 337.35 248.745 344.791L221.434 405.219C218.078 412.661 209.165 416.039 201.626 412.725Z"
              fill="#4DC0A1"/>
        <path fill-rule="evenodd" clip-rule="evenodd"
              d="M348.967 412.725C341.43 409.411 338.007 400.613 341.365 393.172L368.675 332.741C372.033 325.299 380.946 321.922 388.483 325.236C396.021 328.552 399.439 337.35 396.086 344.791L368.771 405.219C365.418 412.661 356.506 416.039 348.967 412.725Z"
              fill="#66CCCC"/>
        <path fill-rule="evenodd" clip-rule="evenodd"
              d="M393.994 412.725C386.457 409.411 383.035 400.613 386.392 393.172L413.702 332.741C417.06 325.299 425.973 321.922 433.51 325.236C441.049 328.552 444.466 337.35 441.113 344.791L413.799 405.219C410.446 412.661 401.533 416.039 393.994 412.725Z"
              fill="#EE88D0"/>
        <path fill-rule="evenodd" clip-rule="evenodd"
              d="M443.107 412.725C435.57 409.411 432.148 400.613 435.506 393.172L462.816 332.741C466.173 325.299 475.086 321.922 482.623 325.236C490.162 328.552 493.58 337.35 490.227 344.791L462.912 405.219C459.559 412.661 450.646 416.039 443.107 412.725Z"
              fill="#EE88D0"/>
        <path fill-rule="evenodd" clip-rule="evenodd"
              d="M250.496 412.739C243.165 409.461 239.838 400.757 243.102 393.395L357.186 136.205C360.452 128.842 369.12 125.501 376.449 128.779C383.781 132.055 387.108 140.761 383.845 148.123L269.76 405.314C266.496 412.676 257.827 416.019 250.496 412.739Z"
              fill="#4DC0A1"/>
        <path fill-rule="evenodd" clip-rule="evenodd"
              d="M299.61 412.739C292.279 409.461 288.951 400.757 292.216 393.395L406.301 136.205C409.565 128.842 418.232 125.501 425.564 128.779C432.894 132.055 436.222 140.761 432.957 148.123L318.871 405.314C315.61 412.676 306.941 416.019 299.61 412.739Z"
              fill="#66CCCC"/>
    </g>
    <defs>
        <clipPath id="clip0_348_1434">
            <rect width="542" height="542" fill="white"/>
        </clipPath>
    </defs>
</svg>
