<svg width="32" height="32" viewBox="0 0 32 32" fill="none" xmlns="http://www.w3.org/2000/svg">
<path fill-rule="evenodd" clip-rule="evenodd" d="M31.8871 1.125H24.8801V17.1581C24.9024 17.161 24.9249 17.1646 24.9474 17.1682C25.0015 17.1768 25.0563 17.1855 25.1112 17.1855C25.3519 17.1847 25.5929 17.1818 25.8337 17.1789C26.2468 17.1739 26.6602 17.169 27.0723 17.1745C28.2661 17.1909 29.4592 17.2146 30.6527 17.2384L31.6341 17.2577C31.978 17.2643 32.0021 17.2479 31.9999 16.8964C31.99 15.4258 31.978 13.9574 31.9648 12.4879C31.9569 11.6366 31.9478 10.7853 31.9388 9.93396L31.9387 9.92914C31.9217 8.33033 31.9048 6.73153 31.8948 5.13273C31.889 4.32613 31.8951 3.52049 31.9012 2.71455L31.9012 2.71309L31.9012 2.70676C31.9044 2.29023 31.9075 1.87256 31.909 1.45569C31.909 1.38063 31.9023 1.30605 31.8959 1.23414C31.8926 1.19694 31.8893 1.16046 31.8871 1.125ZM25.9423 15.0075V3.40371H28.0677V12.8952H28.3896C28.5852 12.8949 28.7807 12.8943 28.9763 12.8936C29.4651 12.8919 29.9539 12.8902 30.4428 12.8941C30.6114 12.8952 30.7592 12.9423 30.757 13.169C30.7524 13.5964 30.7532 14.0244 30.7541 14.4643C30.7545 14.643 30.7549 14.8242 30.7549 15.0075H25.9423Z" fill="#DA291C"/>
<path fill-rule="evenodd" clip-rule="evenodd" d="M23.9273 17.2163V1.34084L23.9295 1.33974C23.6746 1.33096 23.4229 1.32072 23.1733 1.31057C22.6445 1.28906 22.1255 1.26795 21.607 1.262C20.9921 1.25424 20.3772 1.25314 19.7624 1.25203C18.989 1.25065 18.2157 1.24926 17.4427 1.23462C16.9521 1.22586 16.928 1.41311 16.9609 1.78322C16.9702 1.89142 16.9828 1.99962 16.9955 2.10779C17.0216 2.33119 17.0478 2.55474 17.0441 2.77749C17.033 3.45284 17.0153 4.12845 16.9977 4.80407C16.9786 5.5317 16.9596 6.25935 16.9488 6.98669C16.9414 7.51067 16.9443 8.03464 16.9471 8.55851C16.9505 9.19622 16.954 9.83378 16.939 10.471C16.9267 10.9827 16.8935 11.4944 16.8604 12.0061C16.8343 12.4087 16.8082 12.8114 16.7922 13.214C16.7853 13.3883 16.8065 13.5633 16.8278 13.7384C16.8433 13.8658 16.8588 13.9934 16.8634 14.1207C16.8791 14.5467 16.892 14.9727 16.9049 15.3988C16.9198 15.8946 16.9349 16.3915 16.9543 16.8877C16.9642 17.1254 17.0857 17.259 17.3529 17.2469C18.1041 17.2119 18.8574 17.1834 19.6097 17.1725C19.7385 17.1707 19.867 17.191 19.9957 17.2113C20.1142 17.2299 20.2329 17.2486 20.3521 17.2502C20.8054 17.2568 21.2588 17.2425 21.7121 17.2228C21.8399 17.2176 21.9679 17.2035 22.0959 17.1894C22.2607 17.1713 22.4258 17.1532 22.5903 17.1538C22.9006 17.1554 23.2115 17.1742 23.5325 17.1935C23.6622 17.2014 23.7936 17.2093 23.9273 17.2163ZM18.4183 14.9781V3.42244H19.8254C20.0882 3.42244 20.351 3.42287 20.6139 3.42329C21.2975 3.42439 21.9815 3.42549 22.6648 3.41916C22.8641 3.41806 22.933 3.4772 22.9298 3.67977C22.9227 4.09565 22.924 4.51153 22.9254 4.93884V4.93991C22.9259 5.113 22.9265 5.28813 22.9265 5.46573H20.6423V8.01162H22.8082V10.0987H22.1512C22.0177 10.0987 21.8844 10.0991 21.7512 10.0995C21.4519 10.1005 21.1525 10.1014 20.8525 10.0976C20.6806 10.0954 20.5678 10.148 20.5678 10.3363V12.8713H22.7622V14.9781H18.4183Z" fill="#DA291C"/>
<path fill-rule="evenodd" clip-rule="evenodd" d="M16.0675 1.34932V17.1711C15.9938 17.1751 15.921 17.1802 15.8489 17.1853C15.7055 17.1954 15.5646 17.2054 15.4247 17.2061C13.4513 17.2203 11.4778 17.2323 9.50545 17.2443L9.48322 17.2444C9.21275 17.2455 9.09887 17.124 9.10106 16.8546C9.10164 16.7502 9.10329 16.6458 9.10494 16.5414C9.10953 16.2507 9.11411 15.9601 9.09559 15.6709C9.07027 15.2652 9.03378 14.8594 8.99732 14.4539C8.97229 14.1754 8.94726 13.897 8.92586 13.6189C8.91272 13.4492 8.92586 13.2772 8.939 13.1064C9.0715 11.3741 9.11201 9.63962 9.10216 7.90294C9.09731 6.896 9.11962 5.8895 9.14193 4.88261C9.1549 4.29752 9.16788 3.71204 9.17552 3.12652C9.17846 2.87996 9.16113 2.6334 9.14379 2.38684C9.13533 2.26657 9.12688 2.1463 9.12077 2.02603C9.11834 1.97781 9.11515 1.92948 9.11195 1.8811C9.10504 1.77684 9.09812 1.67226 9.09887 1.56832C9.10106 1.34494 9.20071 1.23215 9.44708 1.23872C10.7885 1.27705 12.1299 1.31318 13.4701 1.33399C13.8597 1.33993 14.2497 1.33074 14.6399 1.32155C14.8967 1.3155 15.1536 1.30945 15.4105 1.30771C15.5512 1.30699 15.6915 1.31863 15.8372 1.33073C15.9126 1.33699 15.9894 1.34337 16.0686 1.34822H16.0664L16.0675 1.34932ZM15.0371 5.47969V3.45283H10.5509V14.98H14.8926V12.8721H12.6971V10.3634C12.6971 10.1751 12.7934 10.093 12.9883 10.0973C13.2719 10.1035 13.556 10.1021 13.8403 10.1007C13.9622 10.1001 14.0841 10.0995 14.206 10.0995C14.7152 10.0995 14.9692 9.8422 14.9692 9.32645V8.0201H12.777V5.4775H15.036L15.0371 5.47969Z" fill="#DA291C"/>
<path d="M3.21276 5.95709C3.25825 5.98101 3.29588 6.00001 3.32815 6.01632C3.386 6.04554 3.42666 6.06608 3.46462 6.09068L3.61519 6.19039C4.06084 6.48548 4.50569 6.78005 4.95054 7.07728C5.20896 7.25138 5.20568 7.3565 4.94288 7.53061L4.63472 7.73548C4.24262 7.99639 3.85021 8.2575 3.45367 8.51174C3.37921 8.55882 3.25437 8.60372 3.19086 8.57196C3.12845 8.54021 3.08903 8.41209 3.08793 8.32449C3.08027 7.64011 3.07917 6.95354 3.08793 6.26916C3.08866 6.20363 3.12183 6.13907 3.15814 6.06839C3.17644 6.03277 3.19553 5.99561 3.21167 5.95599L3.21276 5.95709Z" fill="#DA291C"/>
<path d="M6.77082 12.5011V13.5326C6.54524 13.2008 6.49487 12.9479 6.77082 12.5011Z" fill="#DA291C"/>
<path fill-rule="evenodd" clip-rule="evenodd" d="M7.7018 17.2818C7.8639 17.2839 8.02842 17.286 8.19505 17.286C8.20098 17.2305 8.20869 17.1738 8.21652 17.1163C8.23325 16.9933 8.25049 16.8664 8.25199 16.7396C8.25746 16.1866 8.25308 15.6315 8.24432 15.0774C8.24323 15.0106 8.20928 14.9329 8.16548 14.8825C7.9615 14.6492 7.99456 14.3866 8.02729 14.1264C8.03497 14.0653 8.04264 14.0044 8.04722 13.9441C8.05766 13.8101 8.07853 13.6771 8.09944 13.5439C8.11802 13.4255 8.13662 13.3069 8.14796 13.1874C8.15584 13.1086 8.14996 13.0287 8.14406 12.9488C8.13932 12.8844 8.13457 12.82 8.13701 12.756C8.14698 12.4586 8.16021 12.1613 8.17344 11.864C8.19363 11.4101 8.21382 10.9563 8.22242 10.5025C8.24541 9.32205 8.25198 8.14163 8.25746 6.96121C8.25797 6.85469 8.26042 6.7477 8.26288 6.64064C8.27101 6.28655 8.27916 5.93161 8.21694 5.59026C8.15343 5.24643 8.11839 4.91574 8.15015 4.573C8.16329 4.43722 8.17314 4.30363 8.17752 4.16785C8.18683 3.89087 8.19463 3.61404 8.20243 3.33729C8.21664 2.83284 8.23084 2.32869 8.25417 1.82453C8.27498 1.3931 8.08773 1.20038 7.65302 1.22775C7.38255 1.24527 7.10989 1.24527 6.83833 1.2387C6.65343 1.23379 6.46875 1.22401 6.28409 1.21423C6.05757 1.20224 5.83108 1.19025 5.60426 1.18724C5.20172 1.18186 4.79852 1.18235 4.39504 1.18284C4.05875 1.18325 3.72226 1.18365 3.38577 1.18067C2.97946 1.17679 2.57348 1.17106 2.16758 1.16533C1.54084 1.15647 0.914273 1.14762 0.286901 1.14563C0.222936 1.14563 0.150938 1.25006 0.099755 1.3243L0.0930844 1.33397C0.0755554 1.35912 0.0797746 1.40018 0.0839598 1.44092C0.0857877 1.45871 0.0876092 1.47643 0.0876092 1.49274L0.0670422 6.08642C0.0534176 9.14764 0.0397928 12.2089 0.0251947 15.2701C0.0241531 15.5232 0.0184054 15.7758 0.0126636 16.0282C0.00633256 16.3064 8.71758e-06 16.5843 8.71758e-06 16.8623C-0.00108629 17.2203 0.100749 17.3222 0.433631 17.3255C0.741611 17.3281 1.04975 17.3326 1.35794 17.337C2.18496 17.349 3.01236 17.3609 3.83801 17.3386C3.96844 17.3349 4.10083 17.3413 4.23368 17.3478C4.61721 17.3664 5.00468 17.3851 5.36007 17.1623C5.37978 17.1503 5.41482 17.1524 5.44001 17.1579C5.82326 17.251 6.20323 17.3178 6.60619 17.2937C6.9669 17.2723 7.3294 17.277 7.7018 17.2818ZM6.43208 12.6892L6.48902 12.6782L6.49231 12.6793V12.6826L6.53403 12.5395C6.55775 12.4582 6.58169 12.3762 6.60509 12.295C6.60931 12.2797 6.61124 12.2618 6.61315 12.2442C6.61669 12.2115 6.62014 12.1797 6.63794 12.1669C6.87775 11.9928 6.90293 11.7869 6.76606 11.5351C6.75292 11.511 6.83286 11.3993 6.87885 11.3927C6.92812 11.385 7.02229 11.4431 7.03762 11.4913C7.06507 11.5752 7.07466 11.6657 7.08439 11.7575C7.08786 11.7902 7.09134 11.8231 7.09566 11.8559C7.40445 11.6938 7.51066 11.2087 7.37379 10.7981C7.38699 10.81 7.40355 10.8217 7.42018 10.8335C7.45735 10.8599 7.49492 10.8865 7.49643 10.9153C7.51066 11.1803 7.51285 11.4464 7.51176 11.7114C7.51098 11.8807 7.5067 12.0501 7.50243 12.2195C7.49473 12.5241 7.48705 12.8286 7.49971 13.1327C7.51487 13.4855 7.55594 13.8364 7.59701 14.1874C7.60934 14.2927 7.62168 14.3982 7.63331 14.5036C7.6445 14.6133 7.66534 14.7219 7.68718 14.8358C7.6974 14.889 7.70785 14.9435 7.71762 14.9997C7.50519 15.0303 7.4581 14.8661 7.42854 14.6942C7.39953 14.5217 7.37326 14.3482 7.34699 14.1747C7.32071 14.0012 7.2944 13.8275 7.26538 13.655C7.25005 13.563 7.21173 13.4743 7.1515 13.3911C7.02558 13.9364 6.95221 14.4762 7.24567 15.0467H6.69707C6.53177 15.0467 6.36667 15.0464 6.20165 15.0462C5.81688 15.0455 5.43231 15.0448 5.0469 15.0478C4.78738 15.05 4.63846 14.9449 4.56509 14.6832C4.40342 14.1091 4.23706 13.536 4.07071 12.9629C3.89569 12.3599 3.72067 11.757 3.55112 11.1529C3.49089 10.9361 3.39125 10.8715 3.1591 10.9405V15.1661C2.97901 15.1661 2.80098 15.1666 2.62446 15.1671C2.15916 15.1684 1.70428 15.1697 1.24941 15.1617C1.0545 15.1573 1.05012 14.9832 1.04903 14.8365C1.04668 14.5534 1.04713 14.2704 1.04757 13.9869C1.04775 13.8735 1.04793 13.7598 1.04793 13.6462C1.04793 13.3863 1.04829 13.1263 1.04865 12.8663C1.04954 12.2164 1.05043 11.5664 1.04574 10.9164C1.04516 10.7918 1.03239 10.6675 1.01961 10.5432C1.00848 10.4348 0.997336 10.3264 0.994275 10.2178C0.992036 10.1259 1.00507 10.0341 1.0181 9.94227C1.02418 9.89942 1.03026 9.85656 1.03479 9.8137C1.03591 9.8044 1.03804 9.7951 1.04014 9.78588C1.04424 9.76798 1.04826 9.7504 1.04465 9.73377C0.977394 9.45505 0.991221 9.1753 1.00505 8.89558C1.01148 8.76541 1.01791 8.63523 1.01618 8.50517C1.01254 8.28315 0.993437 8.06179 0.974332 7.84037C0.958951 7.6621 0.943566 7.48379 0.93624 7.30504C0.932738 7.23148 0.947911 7.15699 0.963174 7.08205C0.976537 7.01645 0.989969 6.9505 0.990991 6.88456C0.991544 6.82653 0.977035 6.76823 0.962527 6.70992C0.948288 6.6527 0.934051 6.59549 0.934051 6.53854C0.928576 5.65377 0.927481 4.7701 0.934051 3.88643C0.934051 3.81101 0.958018 3.73609 0.985384 3.65054C0.998544 3.6094 1.01249 3.5658 1.02494 3.51851C1.04993 3.53479 1.07323 3.55305 1.09423 3.5695C1.13395 3.60062 1.16547 3.62532 1.18481 3.61815C1.55188 3.47217 1.92859 3.49267 2.30484 3.51313C2.50997 3.52429 2.71497 3.53544 2.9182 3.5196C3.20509 3.49661 3.49527 3.50427 3.78326 3.5196C3.87423 3.52441 3.96624 3.5439 4.0577 3.56326C4.19524 3.59239 4.33151 3.62124 4.46107 3.59954C4.92528 3.51993 5.23095 3.77129 5.52906 4.01643C5.59591 4.0714 5.66239 4.12606 5.73018 4.17661C6.43208 4.70112 6.78577 5.43258 6.82847 6.31406C6.8679 7.15065 6.77263 7.96971 6.49997 8.76359C6.32258 9.27825 6.04992 9.7261 5.53089 10.025L6.43208 12.6892Z" fill="#DA291C"/>
<path fill-rule="evenodd" clip-rule="evenodd" d="M4.86643 30.8613L4.8634 30.8613C4.19884 30.8619 3.55112 30.8626 2.90503 30.8511C2.85576 30.8511 2.76706 30.7065 2.76706 30.6288C2.76104 29.8438 2.76514 29.0588 2.76924 28.2738L2.77035 28.0599C2.7712 27.873 2.77437 27.686 2.77754 27.4991C2.78252 27.2053 2.7875 26.9116 2.78349 26.6178C2.76708 25.0722 2.74788 23.5271 2.72868 21.9819C2.72097 21.3617 2.71327 20.7414 2.70574 20.1211C2.70357 19.92 2.70427 19.7188 2.70499 19.5104C2.70536 19.4034 2.70574 19.2944 2.70574 19.1827C2.98278 19.1756 3.25908 19.1695 3.53479 19.1635C4.15259 19.15 4.76764 19.1365 5.38085 19.1115C6.19553 19.0787 6.98065 19.1936 7.73073 19.5079C8.60236 19.8725 9.1619 20.5098 9.28564 21.4581L9.2952 21.5312C9.38859 22.2455 9.48311 22.9685 9.46193 23.6832C9.43675 24.5548 9.18818 25.3903 8.58593 26.0714C8.11617 26.6025 7.51392 26.8839 6.82297 26.9748C6.43096 27.0262 6.03457 27.0558 5.63817 27.0788C5.41808 27.0908 5.32828 27.1576 5.33157 27.4007C5.34117 28.1649 5.33966 28.9291 5.33816 29.6933C5.3376 29.9749 5.33704 30.2564 5.33704 30.5379V30.8598L5.33923 30.8609L4.86643 30.8613ZM5.20345 23.0973C5.20345 23.2189 5.20316 23.3404 5.20286 23.4619C5.20217 23.7454 5.20148 24.0288 5.20455 24.3117C5.20784 24.5898 5.35456 24.6763 5.58014 24.5285C6.1813 24.1343 6.78026 23.7368 7.37704 23.335C7.60261 23.1838 7.60042 23.0623 7.37047 22.9079C6.78136 22.5115 6.18896 22.1184 5.59656 21.7297C5.3469 21.5665 5.20893 21.6421 5.20565 21.9388C5.20272 22.1966 5.2037 22.4548 5.20467 22.7128C5.20516 22.8416 5.20565 22.9709 5.20565 23.0995L5.20345 23.0973Z" fill="#DA291C"/>
<path fill-rule="evenodd" clip-rule="evenodd" d="M18.6227 30.8041L18.845 28.8035C19.0262 28.8035 19.2044 28.8048 19.3805 28.806C19.8066 28.8089 20.2202 28.8117 20.6332 28.797C20.8806 28.7882 20.9518 28.8977 21.0055 29.1058C21.1391 29.6204 21.288 30.1296 21.4413 30.6377C21.4643 30.7154 21.5464 30.8348 21.6033 30.8359C22.1332 30.8464 22.6616 30.8457 23.2071 30.845C23.3447 30.8448 23.4835 30.8446 23.6236 30.8446C23.1997 28.8671 22.7774 26.8962 22.355 24.9243L22.2934 24.6367C21.9104 22.849 21.5272 21.0603 21.1423 19.2649H18.2603C17.88 21.7418 17.5006 24.2169 17.1215 26.6899L16.4908 30.8041H18.6227ZM19.6433 23.0438H19.7462C19.7778 23.1937 19.8101 23.3434 19.8423 23.493C19.9228 23.8666 20.0033 24.2402 20.0736 24.6162C20.1635 25.0977 20.2431 25.5811 20.3228 26.065L20.3237 26.0704C20.3475 26.2153 20.3714 26.3602 20.3956 26.5051C20.447 26.8139 20.3901 26.8741 20.089 26.8687C19.8865 26.8649 19.6841 26.8658 19.4657 26.8667C19.3642 26.8671 19.2583 26.8676 19.1483 26.8676L19.6433 23.0438Z" fill="#DA291C"/>
<path d="M27.245 30.8733H24.9422C24.9405 30.8644 24.9376 30.8532 24.9342 30.8402C24.9264 30.8099 24.916 30.7701 24.9137 30.7287C24.8644 29.6129 24.8163 28.496 24.7692 27.3802C24.7686 27.3668 24.7673 27.3526 24.7659 27.3382C24.7617 27.2949 24.7574 27.2499 24.7746 27.2203C24.9269 26.9739 24.8469 26.8261 24.5852 26.7265L24.7834 26.6958C24.8767 25.8084 24.599 24.9945 24.322 24.1828L24.2753 24.0459C23.9158 22.9874 23.5449 21.9327 23.1739 20.878L22.9515 20.2451C22.9237 20.1683 22.881 20.0953 22.8387 20.0229L22.8157 19.9834C22.6766 19.7392 22.6153 19.4863 22.7073 19.1819C22.8644 19.1819 23.0216 19.1815 23.1788 19.1812C23.7031 19.18 24.2279 19.1788 24.7527 19.1906C24.8305 19.1928 24.9422 19.3067 24.975 19.3932C25.3045 20.2378 25.6252 21.0852 25.9341 21.9018L26.1423 22.4516L27.0063 19.2092C27.1731 19.2092 27.3386 19.2152 27.5025 19.221C27.8848 19.2347 28.2582 19.248 28.6192 19.1852C28.9 19.1364 29.0755 19.2315 29.2993 19.3529C29.3415 19.3757 29.3862 19.4 29.4328 19.4239C29.4039 19.4875 29.3746 19.5503 29.3454 19.6127C29.2753 19.7629 29.2063 19.911 29.1459 20.0634C29.0003 20.4313 28.8579 20.8003 28.7298 21.1748C28.551 21.6921 28.3742 22.21 28.1975 22.7277L28.1971 22.729C27.9063 23.5807 27.6157 24.4321 27.3162 25.2811C27.153 25.7432 27.1366 26.2052 27.153 26.6871C27.1844 27.6734 27.2028 28.6603 27.2216 29.6663C27.2291 30.065 27.2366 30.4674 27.245 30.8733Z" fill="#DA291C"/>
<path d="M10.5778 30.8413H15.4233C15.4233 30.655 15.4228 30.473 15.4223 30.2941C15.4212 29.8738 15.4201 29.4693 15.4254 29.0663C15.4287 28.786 15.3565 28.7049 15.0663 28.7049C14.4169 28.7071 13.7676 28.7071 13.1194 28.7071H12.7339V19.1948H10.5778V30.8413Z" fill="#DA291C"/>
</svg>
