<svg width="542" height="542" viewBox="0 0 542 542" fill="none" xmlns="http://www.w3.org/2000/svg">
    <g clip-path="url(#clip0_200_115)">
        <path d="M0 100C0 44.7715 44.7715 0 100 0H442C497.228 0 542 44.7715 542 100V442C542 497.228 497.228 542 442 542H100C44.7715 542 0 497.228 0 442V100Z"
              fill="#EEEEEE"/>
        <path d="M284.925 466.132C287.14 470.278 289.634 474.297 291.476 478.602C292.881 481.887 293.59 485.508 294.293 489.04C294.457 489.869 293.571 491.217 292.793 491.876C288.463 495.515 283.95 498.927 279.633 502.579C275.835 505.789 274.778 505.58 273.081 500.927C271.689 497.11 270.353 493.268 268.758 489.533C268.144 488.103 266.884 486.951 265.916 485.679C265.492 485.818 265.061 485.963 264.637 486.103C265.137 489.717 265.289 493.426 266.239 496.92C267.106 500.111 268.733 503.124 270.22 506.118C271.271 508.238 270.79 509.574 268.903 510.884C261.706 515.885 254.161 519.955 245.318 521.31C243.191 521.633 242.457 521.24 242.14 519.246C241.748 516.759 241.172 514.303 240.678 511.834C240.222 511.802 239.773 511.771 239.317 511.739C238.811 513.302 238.096 514.828 237.83 516.429C236.773 522.734 234.627 524.437 228.196 524.772C222.018 525.095 215.871 525.899 209.706 526.469C208.661 526.564 207.446 526.867 206.604 526.469C205.864 526.114 204.984 524.81 205.11 524.089C206.148 518.132 207.535 512.233 208.56 506.27C209.288 502.041 210.212 501.086 214.618 500.643C217.308 500.37 219.986 499.845 222.625 499.263C223.556 499.054 224.366 498.319 225.233 497.826L225.107 496.56C223.189 496.522 221.264 496.363 219.359 496.477C216.852 496.629 214.365 497.072 211.858 497.25C209.845 497.395 208.832 496.319 209.307 494.332C209.908 491.806 210.535 489.255 211.491 486.85C212.991 483.071 214.877 479.444 216.409 475.671C217.333 473.392 218.637 472.822 220.771 473.955C221.6 474.392 222.575 474.633 223.296 475.196C229.873 480.374 238.032 481.45 245.679 483.818C247.274 484.311 249.072 484.166 250.774 484.311C250.939 483.938 251.097 483.571 251.262 483.197C249.363 481.925 247.603 480.317 245.533 479.444C239.76 477 233.817 474.968 228.025 472.569C221.79 469.987 221.568 469.005 225.784 462.808C221.435 462.707 217.536 462.473 213.643 462.568C209.763 462.663 205.895 463.119 202.015 463.353C197.907 463.6 196.698 462.27 197.919 458.409C199.306 454.035 201.122 449.807 202.585 445.452C203.711 442.091 204.414 438.628 203.078 434.368C201.914 435.735 201.097 436.71 200.255 437.666C195.242 443.382 193.261 450.389 191.665 457.593C190.406 463.296 189.766 463.511 184 462.511C179.683 461.758 175.1 462.061 170.967 460.802C164.814 458.928 158.927 456.149 152.996 453.598C152.458 453.37 151.964 451.782 152.23 451.168C153.192 448.971 154.604 446.971 155.629 444.8C156.275 443.432 156.547 441.888 156.984 440.426C156.629 440.185 156.281 439.951 155.927 439.71C154.281 440.85 152.641 442.008 150.983 443.129C149.084 444.414 147.267 445.876 145.229 446.876C142.494 448.218 139.766 447.787 137.209 446.059C129.297 440.717 121.352 435.419 113.44 430.083C112.573 429.5 111.744 428.823 111.022 428.07C109.826 426.829 110.085 425.835 111.452 424.715C117.2 419.999 122.998 415.334 128.499 410.34C133.671 405.649 134.588 405.497 140.418 409.099C143.685 411.112 147.267 412.625 150.774 414.213C151.559 414.568 152.635 414.264 153.578 414.264L154.021 413.308C152.426 411.909 150.945 410.352 149.217 409.156C146.546 407.307 143.602 405.852 140.963 403.972C137.57 401.547 137.532 399.825 140.861 397.407C143.647 395.388 146.609 393.578 149.628 391.919C154.028 389.508 158.592 387.4 163.003 385.007C165.149 383.842 166.555 384.216 167.51 386.406C168.802 389.375 169.979 392.4 171.359 395.325C172.859 398.509 174.296 401.775 176.201 404.719C179.227 409.384 182.557 413.853 185.899 418.303C186.905 419.645 188.38 420.645 189.634 421.803C189.956 421.651 190.279 421.493 190.596 421.341C190.38 419.67 190.513 417.859 189.88 416.366C188.583 413.296 186.937 410.371 185.317 407.447C182.12 401.674 178.759 395.983 175.625 390.172C172.657 384.672 173.017 383.728 178.36 380.886C169.39 369.796 160.421 358.7 151.217 347.319C144.248 353.668 137.108 360.175 129.613 366.998C127.663 359.029 125.796 351.553 123.998 344.059C115.459 308.484 106.958 272.897 98.3558 237.342C97.7798 234.962 98.0646 233.633 100.236 232.202C112.807 223.954 125.258 215.529 137.747 207.161C138.595 206.591 139.405 205.971 139.842 205.655C130.746 195.729 121.764 186 112.889 176.176C111.478 174.612 110.617 172.562 109.364 170.84C108.908 170.213 108.091 169.795 107.37 169.428C101.014 166.2 94.6464 163.003 88 159.655C94.5515 134.911 101.128 110.091 107.806 84.8792C113.56 86.8921 119.207 88.8734 124.923 90.8737C128.67 86.0313 132.253 81.2332 136.07 76.625C136.81 75.7324 138.551 75.0108 139.659 75.1944C148.021 76.5996 156.325 78.3087 164.675 79.7773C166.244 80.0495 168.029 79.9672 169.549 79.5051C174.049 78.1378 178.436 76.4034 182.93 75.0361C184.329 74.6057 186.044 74.5044 187.45 74.8842C216.238 82.708 244.464 92.2473 272.322 102.907C273.069 103.192 273.853 103.375 275.005 103.717C273.815 101.521 272.727 99.7609 271.879 97.8872C269.663 93.0132 271.024 90.3356 276.278 89.7722C282.329 89.1203 288.425 88.8544 294.495 88.3543C298.876 87.9935 303.262 87.6454 307.611 87.0314C309.01 86.8352 310.289 85.8034 312.245 84.8539C308.225 82.0117 304.357 82.5435 300.737 82.2143C298.04 81.9674 295.261 82.4548 292.584 82.094C285.266 81.1192 278.487 83.6955 271.511 84.9298C266.998 85.7274 266.53 85.3033 266.08 80.7331C265.542 75.2007 264.669 69.6937 264.2 64.155C263.953 61.2495 264.099 58.2871 264.359 55.3753C264.542 53.3054 265.808 52.0458 268.062 52.9193C271.461 54.2423 274.765 55.7931 278.17 57.0781C280.278 57.8693 282.5 58.3504 284.671 58.9771L285.393 57.6098C284.026 56.3122 282.836 54.6917 281.247 53.7739C278.082 51.9508 274.695 50.5139 271.397 48.9251C268.106 47.3363 267.068 45.1082 267.713 41.5001C268.802 35.417 269.853 29.3213 270.752 23.2066C271.005 21.4848 270.739 19.6681 270.6 17.9084C270.404 15.4207 271.606 14.6738 273.853 15.1232C274.36 15.2245 274.854 15.4461 275.335 15.6486C284.513 19.4466 293.698 23.2192 302.857 27.0615C306.048 28.3971 307.839 30.9101 307.947 34.3663C308.022 36.8792 307.693 39.4049 307.636 41.9242C307.605 43.2282 307.769 44.5385 307.852 45.8424C308.174 46.0134 308.497 46.1843 308.826 46.3552C309.814 45.2348 310.985 44.222 311.744 42.9623C312.985 40.9114 313.903 38.6643 315.068 36.5691C315.796 35.2588 316.745 35.0436 318.15 35.9994C321.106 37.9933 324.221 39.7467 327.24 41.6584C331.627 44.4372 335.501 47.7161 338.375 52.1787C339.951 54.6284 342.084 56.7363 344.053 58.9264C345.8 60.8697 345.667 62.5788 343.85 64.4082C341.85 66.4211 340.09 68.6809 338.033 70.6305C333.178 75.245 331.513 81.4231 329.228 87.3162L329.76 88.0885C331.139 87.4112 332.804 87.0251 333.83 85.9996C336.488 83.3347 338.944 80.4546 341.318 77.5301C343.173 75.2514 344.66 72.6751 346.528 70.409C348.68 67.801 350.769 68.0036 352.516 70.9027C355.219 75.3969 357.763 79.9925 360.485 84.4804C361.517 86.1768 362.618 87.9492 364.093 89.2342C366.961 91.7282 367.429 94.3615 365.517 97.5707C365.169 98.1531 365.062 98.8747 364.568 100.369C366.353 98.7355 367.518 97.6657 369.398 95.9376C368.638 99.1975 368.094 101.552 367.549 103.907C367.537 104.179 367.524 104.445 367.511 104.717C367.689 104.591 367.866 104.464 368.043 104.331C369.752 102.654 371.449 100.957 373.183 99.2988C377.709 94.9691 380.792 95.5705 383.115 101.318C386.488 109.686 389.672 118.137 393.179 126.454C394.173 128.815 396.009 130.822 397.458 132.987C397.914 132.829 398.376 132.67 398.832 132.506C398.832 130.74 399.205 128.872 398.769 127.22C396.889 120.131 395.085 112.984 392.603 106.097C391.211 102.223 388.457 98.8494 386.482 95.1654C383.773 90.1077 383.855 90.1014 389.185 87.753C393.597 85.8097 397.927 83.6892 402.377 81.8282C404.972 80.7394 407.681 79.8722 410.409 79.1506C414.524 78.0619 415.859 79.1759 415.562 83.5183C415.34 86.7655 414.644 89.9748 414.41 93.2221C414.264 95.2033 414.593 97.2163 414.707 99.2102C415.214 99.3305 415.714 99.4507 416.22 99.571C417.144 97.6404 418.404 95.792 418.91 93.7601C419.664 90.7154 419.974 87.5504 420.303 84.4234C420.784 79.8152 422.322 78.3214 427.013 77.7264C433.052 76.9668 439.078 76.0806 445.091 75.1311C446.522 74.9032 447.895 74.2702 449.263 73.7385C452.181 72.6118 453.326 73.2068 453.2 76.3021C453.067 79.4355 452.339 82.5435 452.092 85.6831C451.554 92.5005 451.155 99.3305 450.706 106.154C450.434 110.3 448.452 113.003 444.445 114.307C442.357 114.991 440.147 115.32 438.033 115.928C436.698 116.314 435.419 116.909 434.115 117.415C434.071 117.865 434.033 118.308 433.988 118.757C435.704 119.352 437.375 120.232 439.141 120.485C447.288 121.644 446.769 121.492 445.401 129.638C443.673 139.924 437.596 147.805 432.406 156.243C431.285 158.066 429.716 158.42 427.798 157.452C426.114 156.597 424.329 155.92 422.689 154.99C415.916 151.16 408.618 150.078 401.028 150.4C400.813 150.711 400.598 151.021 400.383 151.331C402.218 152.812 403.87 154.679 405.94 155.68C409.403 157.351 413.131 158.477 416.765 159.8C417.942 160.231 419.183 160.49 420.366 160.927C426.266 163.092 426.449 164.415 422.348 169.175C417.562 174.739 413.157 180.62 408.434 186.234C407.599 187.228 406.067 187.798 404.75 188.171C403.636 188.488 402.358 188.235 400.503 188.235C404.529 190.33 407.985 191.988 411.295 193.9C415.258 196.191 415.423 198.375 411.884 201.097C407.472 204.496 402.94 207.737 398.49 211.092C395.971 212.997 393.053 214.586 392.704 218.903C395.122 217.757 397.591 216.7 399.952 215.434C401.984 214.346 404.022 213.2 405.814 211.776C409.403 208.921 412.865 205.901 416.315 202.869C419.974 199.654 419.968 199.597 422.955 203.42C426.12 207.471 429.399 211.44 432.298 215.675C434.83 219.365 434.223 220.473 429.88 221.258C427.715 221.644 425.5 221.777 423.348 222.201C421.993 222.467 420.702 223.056 419.379 223.499C419.404 223.973 419.436 224.448 419.461 224.923C421.803 225.106 424.234 225.784 426.475 225.385C435.982 223.689 435.305 223.796 438.831 232.658C440.185 236.057 441.774 239.393 443.629 242.545C445.49 245.71 445.287 246.521 441.641 247.071C437.293 247.736 432.938 248.363 428.595 249.072C426.734 249.375 424.899 249.838 423.057 250.243C417.467 251.477 415.492 250.508 412.72 245.28C411.935 243.792 410.998 242.387 410.131 240.944C409.776 241.039 409.416 241.128 409.061 241.222V250.933C401.687 251.471 394.622 252.116 387.837 249.015C385.317 247.863 381.627 247.597 380.431 245.691C379.323 243.925 380.608 240.463 381.228 237.842C382.399 232.924 381.045 228.341 380.102 223.676C379.734 223.568 379.367 223.461 379 223.347C378.272 225.239 377.19 227.075 376.892 229.031C376.38 232.342 376.329 235.728 376.145 239.089C375.886 243.856 374.753 244.565 370.651 242.45C367.505 240.83 364.353 239.21 360.764 237.361C360.637 239.248 360.51 240.678 360.453 242.109C360.219 248.211 359.941 254.319 359.833 260.428C359.801 262.092 359.346 263.054 357.852 263.903C353.649 266.276 349.566 268.846 345.205 271.48C345.844 272.486 346.407 273.436 347.034 274.347C358.428 290.881 369.727 307.491 381.311 323.892C383.893 327.55 384.881 331.266 385.045 335.577C385.628 350.832 385.805 366.144 387.318 381.317C388.134 389.533 391.774 397.426 393.331 405.617C395.148 415.163 401.345 421.784 407.086 428.823C409.15 431.355 411.213 433.881 413.422 436.577C409.935 440.616 406.497 444.705 402.915 448.661C402.123 449.535 400.807 449.927 399.737 450.554C387.716 457.561 375.804 464.828 362.226 468.531C356.117 470.202 349.927 471.778 343.673 472.677C336.007 473.772 328.24 474.399 320.499 474.664C316.581 474.797 312.605 473.797 308.693 473.107C306.617 472.74 305.25 473.044 303.914 474.924C301.547 478.247 299.832 478.26 297.217 475.177C293.862 471.215 290.311 467.569 285.254 465.815C285.114 465.682 284.975 465.549 284.83 465.423L284.893 466.182L284.925 466.132ZM332.494 115.003C332.703 115.124 332.905 115.238 333.114 115.358C333.045 115.111 332.981 114.864 332.912 114.617C331.804 113.51 330.899 111.978 329.563 111.37C321.942 107.87 313.833 107.357 305.617 108.078C304.87 108.142 304.225 109.351 303.528 110.028C304.319 110.604 305.041 111.402 305.927 111.706C306.775 111.997 307.807 111.851 308.744 111.775C316.897 111.123 324.784 112.376 332.488 115.016L332.494 115.003ZM190.393 223.094C184.595 230.044 178.803 237 172.96 244.001C170.441 240.286 167.941 236.608 165.295 232.715C162.966 235.962 160.953 238.766 158.857 241.691C156.946 237.443 155.249 233.677 153.458 229.696C152.338 230.348 151.515 230.772 150.749 231.278C145.153 234.975 139.614 238.766 133.968 242.375C131.227 244.128 128.759 245.767 130.208 249.648C130.48 250.382 130.208 251.312 130.189 252.154C129.17 253.351 127.239 254.585 127.29 255.737C127.48 260.269 127.41 265.162 129.164 269.169C130.518 272.258 133.17 274.512 130.999 278.164C130.917 278.31 131.018 278.575 131.063 278.778C133.132 288.058 135.139 297.35 137.31 306.604C138.032 309.693 140.336 311.149 143.438 311.599C147.229 312.156 148.66 309.339 150.382 306.636C152.901 310.706 155.034 314.688 157.661 318.315C166.428 330.443 174.98 342.761 184.361 354.408C193.425 365.656 202.857 376.715 213.124 386.855C226.841 400.408 241.45 413.061 255.813 425.949C259.978 429.69 264.226 433.596 270.745 432.456C272.113 432.216 273.923 433.159 275.214 434.026C281.38 438.179 287.381 442.584 293.565 446.705C296.508 448.667 299.597 451.32 302.857 451.718C312.89 452.946 322.999 453.162 333.146 452.048C345.926 450.642 357.928 447.003 369.322 441.16C375.082 438.204 376.139 435.324 373.664 429.177C374.044 427.867 374.873 426.494 374.702 425.253C374.322 422.461 373.493 419.733 372.778 416.992C365.638 389.653 356.858 362.84 345.698 336.881C339.292 321.98 332.247 307.358 325.36 292.666C322.651 286.887 319.6 281.266 316.707 275.575C317.745 275.961 318.809 276.278 319.809 276.74C322.195 277.835 324.442 277.784 326.563 276.138C328.702 274.48 329.513 272.448 328.316 269.859C328.88 265.061 329.449 260.269 330.006 255.471C331.456 242.957 333.07 230.455 334.241 217.916C334.678 213.212 335.615 208.433 333.893 203.629C332.095 198.616 330.874 193.4 329.354 188.285C328.671 185.975 327.873 183.69 326.879 180.613C325.588 184.31 324.613 187.12 323.632 189.931C323.404 187.329 323.854 184.899 324.145 182.449C324.246 181.575 324.303 180.202 323.809 179.841C321.777 178.366 321.518 176.727 321.303 174.182C320.771 167.972 319.043 161.877 317.973 155.705C317.574 153.42 316.669 152.008 314.397 151.173C311.757 150.198 309.301 148.729 306.731 147.539C270.347 130.607 232.589 117.371 194.356 105.344C188.501 103.502 183.076 102.932 177.48 105.819C175.638 106.768 173.48 107.091 171.549 107.895C169.22 108.87 167.029 108.838 164.586 108.129C160.769 107.028 156.832 106.357 152.939 105.508C150.401 104.951 148.356 105.173 146.875 107.87C143.76 113.541 140.368 119.061 137.044 124.72C134.025 123.701 130.809 122.612 127.575 121.517C125.625 128.068 123.815 134.151 122.011 140.235C121.644 140.849 121.277 141.469 120.903 142.077C117.365 147.849 118.422 151.92 124.074 155.445C128.866 158.439 133.557 161.617 138.146 164.909C138.937 165.478 139.64 167.327 139.298 168.112C137.747 171.656 138.627 174.283 141.311 176.847C149.211 184.392 156.984 192.058 164.814 199.673C172.188 206.851 179.544 214.042 186.981 221.157C187.893 222.03 189.241 222.442 190.387 223.068L190.393 223.094ZM400.307 102.882C401.744 107.18 402.883 111.427 404.655 115.39C405.162 116.516 407.491 116.826 408.985 117.516C409.472 116.282 410.435 115.022 410.365 113.826C410.093 109.117 408.447 104.812 405.276 101.274C404.491 100.4 403.01 99.7989 401.851 99.7989C401.364 99.7989 400.876 101.692 400.313 102.882H400.307ZM290.951 74.0613C293.356 73.7575 295.888 73.6689 298.262 73.0106C299.161 72.7574 299.945 71.2572 300.281 70.1684C300.446 69.6367 299.604 68.3201 298.958 68.0922C293.362 66.1236 287.862 66.5224 282.633 69.3455C281.962 69.7063 281.386 70.8267 281.373 71.6116C281.367 72.118 282.405 72.9789 283.076 73.0992C285.633 73.5423 288.229 73.7512 290.951 74.0613ZM375.924 162.738C376.709 161.199 377.93 159.737 378.209 158.117C379.671 149.546 377.354 141.507 374.145 133.689C373.892 133.069 372.658 132.854 371.879 132.455C371.486 133.455 370.607 134.563 370.79 135.443C371.252 137.677 372.145 139.829 372.955 141.975C375.468 148.596 375.683 155.477 375.924 162.744V162.738ZM162.706 403.098C162.086 404.434 161.339 405.301 161.345 406.155C161.389 411.283 164.175 415.252 167.403 418.828C168.384 419.917 170.865 421.037 171.758 420.537C173.581 419.505 173.714 417.227 172.473 415.302C170.485 412.232 168.485 409.169 166.327 406.219C165.567 405.174 164.339 404.472 162.712 403.098H162.706ZM233.449 456.504C236.5 453.693 239.387 451.117 242.159 448.427C242.66 447.939 242.83 447.009 242.938 446.249C243.628 441.375 239.792 439.831 236.513 437.419C236.026 440.869 235.64 443.99 235.14 447.085C234.646 450.149 234.044 453.2 233.449 456.504ZM236.425 494.629C237.798 493.686 239.533 492.92 239.45 492.471C239.241 491.318 238.469 489.761 237.507 489.35C234.57 488.09 231.462 487.179 228.354 486.387C227.569 486.185 226.537 486.938 225.619 487.255C225.961 488.059 226.081 489.261 226.683 489.603C229.791 491.363 233.019 492.907 236.431 494.635L236.425 494.629ZM251.104 463.214C255.079 468.967 269.98 470.588 274.423 466.72C270.98 466.543 267.523 466.689 264.194 466.106C260.852 465.518 257.655 464.138 254.357 463.252C253.344 462.979 252.192 463.207 251.104 463.207V463.214ZM406.7 223.663C409.403 223.6 416.043 218.663 416.518 216.086C416.638 215.434 415.207 213.896 415.176 213.909C411.739 215.966 408.175 217.903 405.073 220.41C403.693 221.524 404.966 223.701 406.7 223.663ZM387.052 198.641C380.317 201.831 373.588 205.028 367.264 208.022C371.499 210.123 385.09 204.794 387.052 198.641ZM418.031 127.144C423.639 128.087 429.083 129.031 434.539 129.891C435.039 129.967 435.9 129.664 436.096 129.277C436.28 128.91 435.963 128.087 435.615 127.682C432.146 123.618 422.373 123.308 418.031 127.144ZM320.309 47.3363C313.871 48.52 309.472 58.6606 312.485 64.2309C315.055 58.6796 317.619 53.1535 320.309 47.3363ZM173.726 433.76C166.972 434.811 161.06 444.369 164.035 449.598C167.27 444.312 170.435 439.134 173.726 433.76ZM398.49 165.016C398.769 164.63 399.053 164.238 399.332 163.852C397.439 162.199 395.648 160.402 393.622 158.94C390.761 156.87 388.906 157.528 387.096 161.415C390.938 162.63 394.711 163.826 398.49 165.023V165.016ZM342.381 94.2792C342.211 94.0323 342.04 93.7918 341.869 93.5449C338.539 94.2982 335.767 96.2794 333.665 98.8431C333.051 99.5963 334.216 101.805 334.564 103.344C335.52 102.793 336.76 102.464 337.381 101.654C339.185 99.2988 340.736 96.7478 342.381 94.2728V94.2792ZM214.725 442.882C216.036 439.761 217.308 437.077 218.264 434.286C218.644 433.184 218.315 431.836 218.308 430.602C216.84 431.222 214.434 431.501 214.067 432.52C212.909 435.71 212.491 439.179 214.732 442.882H214.725ZM248.989 513.923C248.382 509.106 247.793 504.415 247.154 499.351C243.444 504.744 244.407 511.827 248.989 513.923ZM401.503 245.058C405.371 241.045 404.079 233.354 399.737 231.455C400.307 235.848 400.876 240.229 401.503 245.058ZM273.537 475.633C269.631 478.431 270.967 482.368 276.468 484.982C275.442 481.71 274.518 478.754 273.537 475.633ZM369.29 224.568C369.619 224.676 369.948 224.784 370.271 224.885C371.088 222.486 372.107 220.131 372.569 217.669C372.683 217.067 370.961 216.118 370.081 215.327C369.815 215.51 369.55 215.694 369.284 215.877V224.568H369.29ZM384.697 181.411C384.849 181.094 385.001 180.784 385.153 180.468C381.507 178.683 377.867 176.898 374.221 175.113C374.044 175.48 373.867 175.847 373.696 176.208C377.361 177.942 381.032 179.676 384.697 181.404V181.411Z"
              fill="#2F5A34"/>
        <path d="M316.7 275.594C319.593 281.285 322.644 286.906 325.353 292.685C332.24 307.377 339.286 321.999 345.691 336.9C356.857 362.859 365.631 389.673 372.771 417.012C373.486 419.746 374.315 422.481 374.695 425.272C374.86 426.513 374.031 427.88 373.657 429.197C372.359 429.855 371.049 430.494 369.758 431.172C352.078 440.546 333.076 443.395 313.358 442.344C308.838 442.103 304.281 441.641 300.293 438.761C294.191 434.349 287.696 430.475 281.689 425.937C277.784 422.987 274.011 420.778 268.89 421.518C267.542 421.715 265.7 421.069 264.63 420.164C254.059 411.194 243.159 402.554 233.234 392.907C220.352 380.393 208.059 367.246 195.9 354.022C183.537 340.571 172.789 325.816 162.794 310.529C159.11 304.889 155.679 299.085 151.995 293.128C149.337 298.996 146.779 304.649 144.032 310.725C143.526 309.504 143.159 308.871 142.994 308.187C140.873 299.262 138.861 290.311 136.645 281.405C135.461 276.651 134.525 271.904 132.594 267.245C130.695 262.669 130.904 257.218 130.189 252.155C130.208 251.313 130.48 250.376 130.208 249.648C128.758 245.768 131.227 244.122 133.967 242.375C139.62 238.767 145.159 234.975 150.748 231.278C151.514 230.772 152.337 230.348 153.457 229.696C155.249 233.677 156.945 237.444 158.857 241.691C160.952 238.767 162.965 235.963 165.294 232.715C167.94 236.608 170.434 240.286 172.96 244.002C178.796 237.001 184.594 230.044 190.393 223.094C191.779 221.872 193.165 220.657 194.583 219.41C198.495 227.24 202.337 234.943 206.186 242.647C209.085 248.527 211.984 254.408 215.098 260.732C216.364 258.592 217.314 256.997 218.263 255.395C219.77 253.281 221.422 251.249 222.701 249.009C223.112 248.287 222.941 246.685 222.384 246.046C214.624 237.07 207.192 227.746 198.811 219.372C181.398 201.958 163.484 185.044 145.729 167.973C142.842 165.2 140.646 162.485 143.247 158.364C144.387 156.56 143.298 155.534 141.823 154.604C135.727 150.742 129.631 146.875 123.618 142.887C122.839 142.368 122.529 141.146 122.004 140.254C123.814 134.171 125.625 128.081 127.568 121.536C130.803 122.631 134.018 123.714 137.038 124.739C140.361 119.08 143.754 113.56 146.868 107.889C148.349 105.192 150.394 104.971 152.932 105.528C156.819 106.376 160.762 107.047 164.579 108.148C167.022 108.857 169.206 108.889 171.542 107.914C173.473 107.104 175.631 106.787 177.473 105.838C183.069 102.951 188.494 103.521 194.349 105.363C232.575 117.39 270.34 130.626 306.724 147.559C309.288 148.755 311.744 150.223 314.39 151.192C316.662 152.027 317.567 153.445 317.966 155.724C319.042 161.896 320.764 167.998 321.296 174.201C321.511 176.746 321.771 178.385 323.802 179.86C324.296 180.221 324.239 181.595 324.138 182.468C323.847 184.918 323.397 187.349 323.625 189.95C324.606 187.14 325.581 184.329 326.873 180.632C327.866 183.709 328.664 185.988 329.348 188.304C330.867 193.419 332.088 198.635 333.886 203.648C335.608 208.453 334.671 213.232 334.234 217.935C333.063 230.474 331.443 242.976 329.999 255.49C329.442 260.288 328.873 265.08 328.309 269.878C328.157 270.423 328.012 270.961 327.86 271.505C327.524 271.765 327.183 272.031 326.847 272.29C320.08 265.156 313.295 258.029 306.56 250.863C306.117 250.388 306.003 249.597 305.737 248.952C306.94 244.799 308.142 240.647 309.339 236.488C310.908 231.551 312.472 226.613 314.042 221.676C313.738 221.562 313.434 221.454 313.13 221.34C312.364 222.651 311.598 223.967 310.731 225.442C296.28 217.517 281.86 209.611 267.447 201.705C267.339 201.926 267.232 202.154 267.118 202.376C272.954 209.896 278.79 217.416 284.633 224.929C290.899 234.234 297.166 243.533 303.433 252.838C307.851 260.421 312.269 268.005 316.688 275.588L316.7 275.594ZM294.628 381.178C293.988 380.747 293.355 380.317 292.716 379.886L292.748 379.912C291.893 379.272 291.045 378.627 290.19 377.987L290.222 378.013C289.589 377.576 288.962 377.139 288.329 376.702C283.455 373.835 280.328 369.575 278.385 364.346C277.657 362.39 276.974 360.397 276.037 358.536C271.954 350.427 267.694 342.407 263.668 334.273C257.161 321.132 250.863 307.89 244.324 294.768C238.848 283.779 233.139 272.904 227.575 261.953C226.625 260.092 225.91 258.111 225.049 256.117C221.194 259.592 220.58 263.036 222.441 267.562C225.264 274.442 227.435 281.601 229.752 288.685C231.113 292.856 230.36 295.034 227.834 296.027C226.84 294.514 225.771 293.135 224.954 291.615C221.169 284.583 217.421 277.531 213.725 270.454C209.901 263.137 206.066 255.82 202.407 248.42C199.761 243.065 197.406 237.57 194.887 232.152C194.127 230.512 193.146 228.367 191.032 229.981C189.019 231.513 187.424 233.696 185.955 235.811C182.879 240.248 180.049 244.856 177.036 249.338C175.827 251.129 174.403 252.775 173.276 254.237C170.517 250.218 168.092 246.698 165.465 242.875C163.674 244.666 162.319 246.508 163.376 248.483C166.839 254.927 167.447 262.308 170.238 268.885C175.853 282.108 181.929 295.147 188.089 308.13C189.665 311.447 189.918 314.58 189.449 318.866C178.499 303.838 170.827 287.912 163.376 270.859C160.686 276.411 158.433 280.962 156.306 285.57C155.97 286.298 155.907 287.501 156.281 288.159C161.674 297.572 167.01 307.016 172.688 316.251C175.53 320.879 178.866 325.234 182.271 329.475C188.608 337.368 195.096 345.141 201.641 352.858C203.996 355.636 206.724 358.105 209.231 360.764C214.497 366.334 219.586 372.082 225.024 377.487C230.233 382.665 235.721 387.558 241.197 392.458C248.065 398.61 255.066 404.611 261.959 410.745C265.896 414.245 269.979 416.923 275.701 416.062C277.17 415.841 279.056 416.98 280.449 417.936C287.095 422.506 293.583 427.31 300.249 431.849C302.73 433.539 305.477 435.773 308.218 435.957C316.555 436.508 324.974 436.552 333.316 436.09C344.856 435.451 355.68 431.849 366.036 426.747C368.397 425.582 368.948 424.316 368.182 421.784C364.472 409.555 361.288 397.161 357.25 385.045C352.376 370.423 347.046 355.94 341.507 341.559C338.596 334.001 334.76 326.804 331.468 319.385C329.373 314.669 327.816 309.694 325.486 305.111C321.195 296.679 316.491 288.457 311.997 280.133C309.25 275.044 306.819 269.752 303.787 264.833C297.179 254.117 290.437 243.476 283.443 233.013C279.056 226.455 274.201 220.195 269.352 213.96C266.909 210.814 263.959 208.066 261.345 205.047C259.338 202.724 257.022 200.477 255.775 197.768C254.977 196.04 255.876 193.527 256.015 191.368C257.579 191.533 259.383 191.241 260.661 191.931C269.726 196.793 278.664 201.882 287.671 206.845C294.545 210.63 301.458 214.333 308.345 218.068C308.731 217.713 309.054 217.555 309.161 217.302C313.687 206.876 317.08 196.103 318.992 184.899C319.144 184.013 318.466 182.563 317.713 182.019C315.827 180.658 315.32 178.961 315.561 176.835C315.232 176.113 315.099 175.094 314.535 174.72C311.567 172.764 308.509 170.922 305.439 169.125C270.283 148.502 232.917 132.949 194.089 120.827C186.835 118.561 179.416 116.846 172.067 114.877C165.826 113.364 159.553 111.953 153.356 110.275C151.489 109.769 150.615 110.313 149.944 111.851C148.273 115.535 146.805 119.327 144.874 122.865C143.437 125.499 143.754 126.993 146.545 128.157C149.362 129.335 150.989 131.253 149.406 134.513C144.317 132.829 139.221 131.151 134.132 129.468C132.967 129.879 131.157 129.974 130.765 130.765C129.486 133.341 128.726 136.177 127.777 138.893C133.752 142.874 139.582 146.761 145.412 150.66C149.659 153.496 150.311 155.047 148.64 159.864C147.944 161.877 148.324 163.105 149.818 164.535C157.35 171.726 164.75 179.056 172.257 186.279C181.727 195.394 191.475 204.224 200.672 213.599C208.3 221.378 215.592 229.531 222.523 237.944C236.133 254.459 248.672 271.784 259.376 290.362C270.922 310.396 282.563 330.38 293.805 350.585C298.293 358.649 301.831 367.246 305.781 375.614C307.781 379.848 306.136 383.438 303.711 386.868C302.996 386.647 302.287 386.432 301.572 386.21L301.584 386.223C300.103 385.166 298.628 384.108 297.147 383.045L297.166 383.058L294.628 381.152H294.634L294.628 381.178ZM135.392 248.42C135.835 250.585 136.284 252.75 136.886 255.68C142.279 249.572 147.178 244.021 152.084 238.469C151.755 238.146 151.419 237.824 151.09 237.501C150.527 237.944 149.97 238.387 149.406 238.836C148.988 238.849 148.476 238.71 148.172 238.9C143.785 241.685 139.424 244.502 135.088 247.363C134.999 247.42 135.284 248.059 135.392 248.42ZM189.133 111.092L189.266 110.883C190.215 111.408 191.114 112.086 192.121 112.44C208.218 118.137 224.416 123.562 240.412 129.537C250.122 133.164 259.655 137.336 269.023 141.773C280.025 146.976 290.786 152.692 301.616 158.25C305.547 160.269 309.389 162.466 313.732 164.833C313.219 161.864 312.82 159.522 312.415 157.174C312.554 155.623 312.554 155.617 310.573 154.661C271.207 135.722 230.157 121.245 188.392 108.705C186.247 108.06 183.708 108.718 181.36 108.769C181.372 109.161 181.379 109.554 181.391 109.952C182.493 109.952 183.588 109.952 184.689 109.952C186.171 110.332 187.658 110.706 189.139 111.085L189.133 111.092ZM300.477 377.481C291.646 353.155 243.716 269.961 236.646 266.783C237.095 267.872 237.418 268.815 237.855 269.701C252.464 299.192 267.251 328.595 281.588 358.219C285.025 365.328 289.114 371.354 296.046 375.253C296.862 375.715 297.552 376.405 298.369 376.867C298.856 377.146 299.47 377.203 300.477 377.481ZM324.075 261.757C324.606 257.693 325.075 254.389 325.467 251.078C326.176 245.065 326.854 239.052 327.518 233.038C328.221 226.708 328.506 220.309 329.689 214.067C330.727 208.592 328.411 204.186 326.784 199.426C324.822 204.813 323.15 210.174 321.524 215.555C318.371 225.974 315.219 236.393 312.168 246.844C311.89 247.799 311.934 249.344 312.523 249.971C316.143 253.876 319.96 257.605 324.075 261.757ZM152.964 249.774C149.881 254.079 147.507 257.826 144.697 261.225C140.886 265.84 138.804 270.6 141.627 276.461C141.715 276.639 141.665 276.879 141.709 277.082C142.931 282.133 144.152 287.184 145.545 292.913C149.596 284 153.337 275.81 157.034 267.6C157.591 266.365 158.654 264.84 158.325 263.821C156.869 259.314 154.989 254.946 152.964 249.768V249.774Z"
              fill="#F8AE16"/>
        <path d="M130.188 252.167C130.903 257.231 130.694 262.681 132.593 267.258C134.524 271.91 135.461 276.664 136.644 281.418C138.86 290.318 140.873 299.274 142.993 308.2C143.158 308.883 143.525 309.516 144.031 310.738C146.785 304.661 149.342 299.009 151.994 293.141C155.678 299.091 159.109 304.902 162.793 310.542C172.788 325.829 183.536 340.584 195.899 354.035C208.059 367.264 220.345 380.412 233.233 392.92C243.158 402.56 254.065 411.207 264.629 420.176C265.699 421.082 267.541 421.727 268.889 421.531C274.01 420.79 277.783 422.999 281.689 425.949C287.689 430.481 294.19 434.362 300.292 438.774C304.274 441.654 308.838 442.116 313.357 442.356C333.075 443.407 352.077 440.559 369.757 431.184C371.042 430.5 372.352 429.867 373.656 429.209C376.131 435.356 375.074 438.236 369.314 441.192C357.92 447.034 345.918 450.674 333.138 452.079C322.991 453.193 312.882 452.978 302.85 451.75C299.59 451.351 296.501 448.699 293.557 446.737C287.373 442.616 281.372 438.21 275.207 434.058C273.915 433.191 272.111 432.248 270.738 432.488C264.218 433.627 259.97 429.716 255.805 425.981C241.443 413.093 226.833 400.44 213.116 386.887C202.855 376.747 193.417 365.688 184.353 354.44C174.972 342.793 166.42 330.475 157.653 318.347C155.033 314.719 152.893 310.738 150.374 306.668C148.646 309.371 147.215 312.181 143.43 311.63C140.335 311.175 138.03 309.719 137.303 306.636C135.138 297.382 133.125 288.089 131.055 278.81C131.011 278.607 130.909 278.335 130.992 278.196C133.169 274.543 130.51 272.284 129.156 269.201C127.402 265.2 127.472 260.301 127.282 255.769C127.232 254.617 129.162 253.382 130.181 252.186L130.188 252.167Z"
              fill="#112517"/>
        <path d="M206.188 242.652C202.339 234.949 198.497 227.245 194.585 219.415C193.167 220.662 191.781 221.884 190.394 223.099C189.249 222.473 187.9 222.061 186.989 221.188C179.551 214.073 172.196 206.882 164.821 199.704C156.991 192.089 149.218 184.417 141.318 176.878C138.628 174.314 137.755 171.681 139.305 168.143C139.647 167.358 138.945 165.509 138.153 164.94C133.564 161.642 128.88 158.464 124.082 155.476C118.429 151.951 117.372 147.881 120.911 142.108C121.284 141.494 121.651 140.88 122.018 140.266C122.544 141.164 122.854 142.386 123.632 142.899C129.646 146.887 135.742 150.754 141.837 154.616C143.306 155.546 144.401 156.572 143.262 158.376C140.66 162.496 142.856 165.212 145.743 167.984C163.505 185.05 181.412 201.97 198.826 219.384C207.2 227.758 214.638 237.076 222.399 246.058C222.949 246.697 223.126 248.299 222.715 249.02C221.43 251.261 219.784 253.293 218.278 255.407C216.556 253.47 214.891 251.489 213.106 249.615C210.853 247.248 208.504 244.976 206.194 242.659L206.188 242.652Z"
              fill="#112517"/>
        <path d="M305.745 248.951C306.01 249.597 306.118 250.388 306.567 250.863C313.303 258.028 320.082 265.156 326.855 272.29C327.19 272.03 327.532 271.764 327.868 271.505C328.02 270.967 328.165 270.422 328.317 269.878C329.513 272.467 328.703 274.499 326.564 276.157C324.437 277.803 322.19 277.854 319.81 276.759C318.81 276.297 317.74 275.98 316.708 275.594C312.29 268.011 307.871 260.427 303.453 252.844C304.219 251.546 304.991 250.249 305.757 248.951H305.745Z"
              fill="#132617"/>
        <path d="M149.408 134.532C150.99 131.272 149.363 129.354 146.547 128.176C143.749 127.005 143.439 125.518 144.875 122.885C146.806 119.346 148.275 115.554 149.946 111.87C151.186 111.858 152.484 111.617 153.668 111.877C159.618 113.206 165.536 114.668 171.468 116.08C181.608 119.036 191.806 121.827 201.883 124.98C225.38 132.329 248.357 141.127 270.373 152.148C285.71 159.826 300.516 168.58 315.556 176.854C315.316 178.981 315.828 180.677 317.708 182.038C318.461 182.582 319.139 184.025 318.987 184.918C317.069 196.122 313.676 206.902 309.156 217.321C309.049 217.574 308.726 217.732 308.34 218.087C301.453 214.352 294.534 210.649 287.666 206.864C278.659 201.901 269.715 196.812 260.656 191.951C259.378 191.261 257.574 191.552 256.01 191.387C255.871 193.546 254.972 196.059 255.77 197.787C257.017 200.496 259.34 202.743 261.34 205.066C263.948 208.092 266.904 210.833 269.347 213.979C274.196 220.214 279.045 226.474 283.438 233.032C290.439 243.495 297.18 254.136 303.782 264.853C306.814 269.771 309.239 275.056 311.992 280.152C316.487 288.476 321.19 296.698 325.481 305.13C327.817 309.713 329.368 314.688 331.463 319.404C334.755 326.823 338.591 334.02 341.502 341.578C347.041 355.966 352.377 370.442 357.245 385.064C361.284 397.18 364.468 409.574 368.177 421.803C368.943 424.335 368.392 425.608 366.031 426.766C355.675 431.868 344.851 435.47 333.312 436.109C324.962 436.571 316.55 436.527 308.213 435.976C305.466 435.793 302.719 433.558 300.244 431.868C293.578 427.329 287.09 422.525 280.444 417.955C279.051 416.999 277.165 415.86 275.696 416.081C269.974 416.942 265.891 414.264 261.954 410.764C255.061 404.637 248.06 398.63 241.192 392.477C235.723 387.577 230.228 382.678 225.019 377.506C219.588 372.107 214.492 366.359 209.226 360.783C206.713 358.124 203.991 355.656 201.636 352.877C195.091 345.154 188.603 337.387 182.266 329.494C178.861 325.253 175.525 320.898 172.683 316.271C167.005 307.035 161.669 297.585 156.276 288.178C155.896 287.52 155.966 286.317 156.301 285.589C158.422 280.981 160.681 276.43 163.372 270.879C170.822 287.931 178.494 303.858 189.445 318.885C189.907 314.6 189.653 311.466 188.084 308.149C181.925 295.167 175.848 282.133 170.233 268.904C167.442 262.327 166.834 254.946 163.372 248.502C162.308 246.527 163.669 244.685 165.46 242.894C168.087 246.717 170.505 250.237 173.272 254.256C174.405 252.794 175.829 251.148 177.032 249.357C180.045 244.875 182.874 240.267 185.95 235.83C187.419 233.716 189.014 231.532 191.027 230C193.141 228.386 194.116 230.532 194.882 232.171C197.401 237.589 199.756 243.084 202.402 248.439C206.061 255.839 209.897 263.156 213.72 270.474C217.417 277.55 221.164 284.602 224.949 291.635C225.766 293.154 226.836 294.534 227.829 296.046C230.355 295.053 231.115 292.875 229.747 288.704C227.431 281.621 225.266 274.461 222.436 267.581C220.575 263.048 221.189 259.611 225.044 256.136C225.899 258.13 226.62 260.111 227.57 261.972C233.134 272.923 238.843 283.798 244.319 294.787C250.858 307.909 257.156 321.151 263.663 334.292C267.695 342.426 271.949 350.446 276.032 358.555C276.969 360.416 277.646 362.41 278.38 364.366C280.33 369.594 283.457 373.86 288.325 376.728C288.958 377.165 289.584 377.601 290.217 378.038L290.186 378.013C291.04 378.652 291.888 379.298 292.743 379.937L292.711 379.912C293.351 380.342 293.984 380.773 294.623 381.203L294.617 381.197C295.465 381.83 296.313 382.469 297.155 383.102L297.136 383.09C298.617 384.147 300.092 385.204 301.573 386.267L301.561 386.254C302.276 386.476 302.985 386.691 303.7 386.913C306.118 383.482 307.77 379.887 305.77 375.658C301.82 367.296 298.282 358.7 293.794 350.63C282.552 330.424 270.911 310.441 259.365 290.406C248.661 271.828 236.122 254.509 222.512 237.988C215.581 229.576 208.289 221.423 200.661 213.643C191.464 204.269 181.716 195.438 172.246 186.323C164.745 179.101 157.339 171.771 149.806 164.58C148.313 163.156 147.926 161.921 148.629 159.908C150.3 155.091 149.648 153.54 145.401 150.705C139.571 146.812 133.735 142.925 127.766 138.937C128.715 136.222 129.475 133.386 130.753 130.81C131.146 130.012 132.963 129.923 134.121 129.512C134.368 129.829 134.545 130.316 134.868 130.43C139.185 132.025 143.515 133.601 147.87 135.089C148.268 135.228 148.882 134.747 149.395 134.557L149.408 134.532Z"
              fill="#FEEB00"/>
        <path d="M300.476 377.481C299.476 377.203 298.855 377.146 298.368 376.867C297.551 376.399 296.861 375.709 296.045 375.253C289.113 371.354 285.031 365.328 281.587 358.219C267.25 328.595 252.463 299.193 237.854 269.701C237.417 268.815 237.088 267.872 236.645 266.783C243.709 269.961 291.645 353.155 300.476 377.481Z"
              fill="#142617"/>
        <path d="M324.07 261.751C319.95 257.598 316.133 253.87 312.518 249.965C311.936 249.332 311.885 247.787 312.164 246.838C315.215 236.387 318.373 225.974 321.519 215.549C323.146 210.174 324.817 204.813 326.78 199.42C328.406 204.18 330.723 208.586 329.685 214.061C328.501 220.296 328.217 226.702 327.514 233.032C326.849 239.045 326.172 245.065 325.463 251.072C325.071 254.383 324.602 257.687 324.07 261.751Z"
              fill="#FEEB00"/>
        <path d="M284.64 224.935C278.804 217.416 272.968 209.896 267.125 202.382C267.233 202.16 267.34 201.932 267.454 201.711C281.874 209.617 296.293 217.523 310.738 225.448C311.599 223.973 312.365 222.663 313.137 221.346C313.441 221.46 313.745 221.568 314.049 221.682C312.479 226.619 310.916 231.557 309.346 236.494C308.681 236.032 308.067 235.431 307.339 235.127C303.921 233.683 300.421 232.424 297.04 230.898C292.863 229.012 288.767 226.936 284.64 224.942V224.935Z"
              fill="#122517"/>
        <path d="M152.965 249.768C154.99 254.945 156.87 259.313 158.326 263.82C158.655 264.839 157.592 266.365 157.035 267.599C153.332 275.803 149.597 283.994 145.546 292.912C144.16 287.184 142.932 282.133 141.71 277.081C141.659 276.879 141.71 276.638 141.628 276.461C138.804 270.599 140.887 265.839 144.698 261.225C147.502 257.832 149.882 254.085 152.965 249.774V249.768Z"
              fill="#FDEA00"/>
        <path d="M312.422 157.18C312.828 159.522 313.226 161.87 313.739 164.839C309.397 162.471 305.554 160.269 301.624 158.256C290.793 152.698 280.032 146.982 269.031 141.779C259.656 137.348 250.13 133.17 240.419 129.543C224.424 123.568 208.225 118.143 192.128 112.446C191.122 112.091 190.223 111.414 189.273 110.889C190.286 111.098 191.331 111.199 192.305 111.522C209.282 117.105 226.354 122.422 243.198 128.378C266.784 136.721 290.014 145.988 312.429 157.186L312.422 157.18Z"
              fill="#FAE801"/>
        <path d="M284.641 224.936C288.768 226.929 292.863 229.012 297.041 230.892C300.421 232.418 303.922 233.677 307.34 235.12C308.074 235.431 308.682 236.026 309.346 236.488C308.144 240.64 306.941 244.799 305.745 248.951C304.979 250.249 304.213 251.547 303.441 252.844C297.174 243.539 290.907 234.241 284.641 224.936Z"
              fill="#305932"/>
        <path d="M315.553 176.853C300.513 168.58 285.708 159.826 270.37 152.148C248.355 141.127 225.383 132.329 201.88 124.98C191.797 121.827 181.605 119.036 171.465 116.08C171.661 115.681 171.864 115.288 172.06 114.89C179.403 116.858 186.828 118.58 194.082 120.84C232.916 132.962 270.275 148.514 305.432 169.137C308.502 170.941 311.559 172.777 314.528 174.733C315.091 175.1 315.224 176.126 315.553 176.847V176.853Z"
              fill="#243116"/>
        <path d="M312.423 157.18C290.009 145.982 266.778 136.715 243.193 128.372C226.349 122.416 209.277 117.092 192.3 111.516C191.325 111.193 190.281 111.092 189.268 110.883L189.135 111.092C187.654 110.712 186.166 110.338 184.685 109.959H181.387C181.374 109.566 181.368 109.174 181.355 108.775C183.71 108.724 186.249 108.066 188.388 108.712C230.153 121.251 271.203 135.728 310.569 154.667C312.55 155.623 312.55 155.629 312.411 157.18H312.423Z"
              fill="#436531"/>
        <path d="M149.409 238.83C149.972 238.387 150.529 237.944 151.093 237.494C151.422 237.817 151.757 238.14 152.087 238.463C147.187 244.014 142.282 249.565 136.888 255.674C136.287 252.743 135.838 250.578 135.395 248.413C140.066 245.217 144.738 242.02 149.409 238.823V238.83Z"
              fill="#FBE900"/>
        <path d="M206.188 242.653C208.498 244.97 210.846 247.243 213.1 249.61C214.885 251.484 216.55 253.465 218.271 255.402C217.322 257.003 216.372 258.598 215.1 260.738C211.979 254.414 209.087 248.534 206.188 242.653Z"
              fill="#315B32"/>
        <path d="M172.062 114.895C171.866 115.294 171.663 115.687 171.467 116.085C165.536 114.674 159.617 113.212 153.667 111.882C152.484 111.617 151.186 111.863 149.945 111.876C150.616 110.332 151.483 109.794 153.357 110.3C159.554 111.977 165.827 113.389 172.068 114.902L172.062 114.895Z"
              fill="#436531"/>
        <path d="M149.407 134.531C148.894 134.721 148.28 135.202 147.881 135.063C143.526 133.575 139.197 131.999 134.88 130.404C134.563 130.284 134.38 129.803 134.133 129.486C139.222 131.17 144.318 132.848 149.407 134.531Z"
              fill="#1F2F17"/>
        <path d="M149.407 238.83C144.736 242.027 140.064 245.223 135.393 248.42C135.285 248.053 134.994 247.42 135.089 247.363C139.425 244.502 143.786 241.678 148.173 238.9C148.477 238.71 148.99 238.849 149.407 238.836V238.83Z"
              fill="#343B16"/>
        <path d="M297.163 383.076C296.315 382.443 295.467 381.804 294.625 381.171C295.473 381.804 296.321 382.443 297.163 383.076Z"
              fill="#4F5017"/>
    </g>
    <defs>
        <clipPath id="clip0_200_115">
            <rect width="542" height="542" fill="white"/>
        </clipPath>
    </defs>
</svg>
