<svg width="32" height="32" viewBox="0 0 32 32" fill="none" xmlns="http://www.w3.org/2000/svg">
<path d="M8.28683 1.34607V30.8282H8.97792V1.34607H8.28683Z" fill="white"/>
<path d="M15.3089 30.8282V1.34607H16V30.8282H15.3089Z" fill="white"/>
<path fill-rule="evenodd" clip-rule="evenodd" d="M3.74068 0C1.79087 0 0.210236 1.58064 0.210236 3.53045V28.4696C0.210236 30.4194 1.79087 32 3.74067 32H20.4337C22.3835 32 23.9642 30.4194 23.9642 28.4696V3.53044C23.9642 1.58063 22.3835 0 20.4337 0H3.74068ZM20.4337 1.05913H3.74068C2.37581 1.05913 1.26937 2.16558 1.26937 3.53045V28.4696C1.26937 29.8344 2.37581 30.9409 3.74067 30.9409H20.4337C21.7986 30.9409 22.905 29.8344 22.905 28.4696V3.53044C22.905 2.16557 21.7986 1.05913 20.4337 1.05913Z" fill="white"/>
<path d="M27.2181 11.1732V19.0902H29.6094V11.1732C29.6094 11.1732 29.2002 11.4387 28.4138 11.4387C27.6273 11.4387 27.2181 11.1732 27.2181 11.1732Z" fill="white"/>
<path fill-rule="evenodd" clip-rule="evenodd" d="M24.9807 19.3757C24.6883 19.3757 24.4512 19.6128 24.4512 19.9053V24.1845C24.4512 24.4769 24.6883 24.714 24.9807 24.714H30.6272C30.9197 24.714 31.1567 24.4769 31.1567 24.1845V19.9053C31.1567 19.6128 30.9197 19.3757 30.6272 19.3757H24.9807ZM25.1613 20.1112C25.1613 20.0376 25.2209 19.978 25.2945 19.978H29.1438C29.2173 19.978 29.277 20.0376 29.277 20.1112C29.277 20.1848 29.2173 20.2444 29.1438 20.2444H25.2945C25.2209 20.2444 25.1613 20.1848 25.1613 20.1112ZM29.7007 20.1112C29.7007 20.0376 29.7603 19.978 29.8338 19.978H30.3465C30.4201 19.978 30.4797 20.0376 30.4797 20.1112C30.4797 20.1848 30.4201 20.2444 30.3465 20.2444H29.8338C29.7603 20.2444 29.7007 20.1848 29.7007 20.1112Z" fill="white"/>
<path fill-rule="evenodd" clip-rule="evenodd" d="M28.3786 11.0215C30.2625 11.0215 31.7897 9.4943 31.7897 7.61037C31.7897 5.72644 30.2625 4.19922 28.3786 4.19922C26.4947 4.19922 24.9674 5.72644 24.9674 7.61037C24.9674 9.4943 26.4947 11.0215 28.3786 11.0215ZM29.1921 5.58627C29.1921 5.75844 29.0526 5.89801 28.8804 5.89801C28.7082 5.89801 28.5687 5.75844 28.5687 5.58627C28.5687 5.4141 28.7082 5.27453 28.8804 5.27453C29.0526 5.27453 29.1921 5.4141 29.1921 5.58627ZM30.5941 6.59899C30.5941 6.98612 30.2802 7.29995 29.8931 7.29995C29.506 7.29995 29.1921 6.98612 29.1921 6.59899C29.1921 6.21183 29.506 5.89801 29.8931 5.89801C30.2802 5.89801 30.5941 6.21183 30.5941 6.59899Z" fill="#0084B9"/>
<path d="M16.4572 10.9461V6.28455V1.62305C17.1978 1.72686 17.9377 1.83571 18.6375 2.11596C19.6705 2.52966 20.7075 3.46782 21.071 4.53825C21.2679 5.11565 21.3101 5.77756 21.3101 10.9461H16.4572Z" fill="#B8A900"/>
<path d="M16.4572 29.2682L16.4572 13.055C16.4572 13.055 21.8025 16.6974 21.8025 18.903V25.6822C21.8025 26.8337 20.5695 27.6931 19.6925 28.2119C18.7113 28.7924 17.5676 29.0709 16.4572 29.2682Z" fill="#B8A900"/>
<path d="M2.89694 8.83308C2.86881 6.87553 2.89694 6.19954 3.07981 5.55172C3.73715 3.28486 5.50825 2.5666 7.59518 1.97461L7.63738 5.57988C7.65145 7.5656 7.65145 10.861 7.59518 16.6069L5.61179 14.6635C3.58684 12.6566 2.96779 11.6705 2.89694 8.83308Z" fill="#B80000"/>
<path d="M7.66552 18.5504V29.5352C5.75451 29.0569 2.88287 28.0102 2.88287 25.8061V18.5504H7.66552Z" fill="#B80000"/>
<path d="M9.62079 17.3532L9.63486 2.77723C11.1842 2.4247 12.862 2.41145 14.4175 2.70681V12.0721H13.4328V9.39628C13.4328 7.19932 13.3906 6.67824 13.2218 6.50925C12.7073 5.99411 11.715 6.12382 11.351 6.74866C11.2103 6.98807 11.1681 7.50915 11.2103 8.62171C11.2932 11.1377 12.6548 12.2913 14.4175 14.0437V30.3097C12.8204 30.455 11.2208 30.5568 9.63486 30.2393V19.2544H10.7602V22.4231C10.7602 24.1694 10.8164 25.7327 10.8868 25.9017C11.1522 26.7652 13.3344 26.6631 13.3344 25.7579C13.3344 23.8841 13.5877 21.9377 12.8702 20.7473C12.5888 20.2684 11.8011 19.3812 9.62079 17.3532Z" fill="#2FB800"/>
</svg>
