<svg width="542" height="542" viewBox="0 0 542 542" fill="none" xmlns="http://www.w3.org/2000/svg">
    <g clip-path="url(#clip0_200_175)">
        <path d="M0 100C0 44.7715 44.7715 0 100 0H442C497.228 0 542 44.7715 542 100V442C542 497.228 497.228 542 442 542H100C44.7715 542 0 497.228 0 442V100Z"
              fill="#EEEEEE"/>
        <path d="M189.262 430.042C190.113 430.149 190.964 430.335 191.815 430.335C244.341 430.335 296.866 430.335 349.366 430.335C350.217 430.335 351.041 430.335 351.999 430.335V477.595H189.262V430.016V430.042Z"
              fill="#030303"/>
        <path d="M297.933 68.9567C322.56 76.1906 338.544 91.8819 345.246 115.844C349.208 130.02 349.767 145.152 352.001 161.11H300.778C299.954 152.838 299.582 144.195 298.119 135.738C295.672 121.748 287.507 115.153 273.598 114.834C258.705 114.515 250.54 120.844 247.269 135.259C242.402 156.748 248.864 175.737 262.72 191.561C276.337 207.066 291.656 221.135 306.683 235.364C339.421 266.321 356.948 302.65 349.049 348.66C342.161 388.899 317.4 410.813 277.055 412.01C231.923 413.34 202.934 392.941 193.413 353.261C192.349 348.846 189.211 317.33 189.211 305.868H244.316C245.513 320.256 245.673 333.022 247.827 345.415C249.981 357.835 258.864 363.899 271.523 363.899C284.209 363.899 292.374 357.755 295.38 345.442C300.167 325.788 296.31 307.331 283.412 292.225C266.018 271.852 246.657 253.156 228.865 233.13C219.875 223.023 210.86 212.412 204.53 200.604C173.387 142.706 195.86 83.6639 257.694 66.5365C263.492 64.9408 282.534 64.4355 297.933 68.9567Z"
              fill="#030303"/>
    </g>
    <defs>
        <clipPath id="clip0_200_175">
            <rect width="542" height="542" fill="white"/>
        </clipPath>
    </defs>
</svg>
