<svg xmlns="http://www.w3.org/2000/svg" width="1071.657" height="735.54" viewBox="0 0 1071.657 735.54">
    <g transform="translate(-464.171 -632.23)">
        <path d="M-339.672,34.422H-1410.329V-253.77H-339.672V34.422ZM-496.188-233.684a136.961,136.961,0,0,0-24.683,2.252A137.277,137.277,0,0,0-544.4-224.9a134.61,134.61,0,0,0-21.723,10.488A128.806,128.806,0,0,0-585.378-200.3,121.3,121.3,0,0,0-601.5-182.9a114.572,114.572,0,0,0-12.333,20.353A112.455,112.455,0,0,0-624.494-114.3a138.4,138.4,0,0,0,9.577,51.672A122.031,122.031,0,0,0-603.53-40.809a117.7,117.7,0,0,0,15.267,18.661A118.073,118.073,0,0,0-569.507-7.007,123.044,123.044,0,0,0-547.649,4.255,139.36,139.36,0,0,0-496.188,13.7a139.361,139.361,0,0,0,51.461-9.442A123.044,123.044,0,0,0-422.869-7.007a118.065,118.065,0,0,0,18.757-15.141,117.686,117.686,0,0,0,15.267-18.661,122.047,122.047,0,0,0,11.387-21.819,138.4,138.4,0,0,0,9.577-51.672A112.454,112.454,0,0,0-378.54-162.55,114.564,114.564,0,0,0-390.873-182.9,121.291,121.291,0,0,0-407-200.3a128.835,128.835,0,0,0-19.253-14.108A134.635,134.635,0,0,0-447.972-224.9a137.282,137.282,0,0,0-23.533-6.536A136.963,136.963,0,0,0-496.188-233.684Zm-617.013,0a136.956,136.956,0,0,0-24.682,2.252,137.28,137.28,0,0,0-23.532,6.536,134.627,134.627,0,0,0-21.723,10.488,128.82,128.82,0,0,0-19.253,14.108,121.289,121.289,0,0,0-16.123,17.4,114.554,114.554,0,0,0-12.333,20.353,112.456,112.456,0,0,0-10.659,48.249,138.4,138.4,0,0,0,9.577,51.672,122.031,122.031,0,0,0,11.387,21.819,117.691,117.691,0,0,0,15.266,18.661,118.081,118.081,0,0,0,18.757,15.141,123.029,123.029,0,0,0,21.858,11.262A139.358,139.358,0,0,0-1113.2,13.7a139.362,139.362,0,0,0,51.461-9.442,123.04,123.04,0,0,0,21.858-11.262,118.08,118.08,0,0,0,18.757-15.141,117.687,117.687,0,0,0,15.267-18.661,122.057,122.057,0,0,0,11.387-21.819,138.4,138.4,0,0,0,9.577-51.672,112.457,112.457,0,0,0-10.658-48.249,114.572,114.572,0,0,0-12.333-20.353,121.3,121.3,0,0,0-16.123-17.4,128.843,128.843,0,0,0-19.253-14.108,134.634,134.634,0,0,0-21.723-10.488,137.288,137.288,0,0,0-23.533-6.536A136.97,136.97,0,0,0-1113.2-233.684Zm318.558,7.693v51.076H-744.8V6h60.306v-180.92h49.846v-51.076Zm-180.1,0h0v51.076h49.846V6h60.306v-180.92h49.847v-51.076h-160Zm-407.38,0V6h132.613V-45.071h-72.307v-180.92ZM-496.188-44.764a64.026,64.026,0,0,1-25.427-5.192,63.918,63.918,0,0,1-11.129-6.166,64.884,64.884,0,0,1-9.711-8.257A67.118,67.118,0,0,1-556.546-86.3a74.486,74.486,0,0,1-5.177-27.691,53.409,53.409,0,0,1,1.339-11.818,57.457,57.457,0,0,1,3.838-11.249,62.219,62.219,0,0,1,6.066-10.369,66.1,66.1,0,0,1,8.024-9.179,68.053,68.053,0,0,1,9.711-7.679,68.054,68.054,0,0,1,11.129-5.869,66.188,66.188,0,0,1,25.427-5.067,66.189,66.189,0,0,1,25.427,5.067,68.049,68.049,0,0,1,11.129,5.869,68.045,68.045,0,0,1,9.712,7.679,66.091,66.091,0,0,1,8.025,9.179,62.219,62.219,0,0,1,6.067,10.369,57.439,57.439,0,0,1,3.838,11.249,53.4,53.4,0,0,1,1.34,11.818A74.487,74.487,0,0,1-435.829-86.3,67.122,67.122,0,0,1-449.92-64.379a64.884,64.884,0,0,1-9.712,8.257,63.909,63.909,0,0,1-11.129,6.166A64.028,64.028,0,0,1-496.188-44.764Zm-617.013,0a64.025,64.025,0,0,1-25.427-5.192,63.911,63.911,0,0,1-11.129-6.166,64.876,64.876,0,0,1-9.712-8.257A67.119,67.119,0,0,1-1173.559-86.3a74.491,74.491,0,0,1-5.178-27.691,53.4,53.4,0,0,1,1.34-11.818,57.448,57.448,0,0,1,3.838-11.249,62.224,62.224,0,0,1,6.067-10.369,66.111,66.111,0,0,1,8.025-9.179,68.046,68.046,0,0,1,9.712-7.679,68.037,68.037,0,0,1,11.129-5.869,66.185,66.185,0,0,1,25.427-5.067,66.19,66.19,0,0,1,25.428,5.067,68.041,68.041,0,0,1,11.129,5.869,68.039,68.039,0,0,1,9.712,7.679,66.084,66.084,0,0,1,8.025,9.179,62.217,62.217,0,0,1,6.067,10.369A57.43,57.43,0,0,1-1049-125.811a53.4,53.4,0,0,1,1.34,11.818,74.483,74.483,0,0,1-5.178,27.691,67.116,67.116,0,0,1-14.091,21.922,64.877,64.877,0,0,1-9.712,8.257,63.923,63.923,0,0,1-11.129,6.166A64.029,64.029,0,0,1-1113.2-44.764Z"
              transform="translate(1875 1176.444)" fill="#fff" stroke="rgba(0,0,0,0)" stroke-miterlimit="10"
              stroke-width="1"/>
        <path d="M611.534,702.383c-11.8-9.834-26.881-16.391-42.616-16.391-11.8,0-27.537,6.885-27.537,20.653,0,14.424,17.375,20,28.52,23.6l16.391,4.917c34.421,10.163,60.974,27.537,60.974,67.531,0,24.586-5.9,49.828-25.569,66.547-19.342,16.39-45.239,23.275-70.154,23.275-31.142,0-61.629-10.49-86.871-28.193l27.536-51.795c16.063,14.1,35.077,25.57,57.041,25.57,15.079,0,31.142-7.54,31.142-24.914,0-18.03-25.242-24.259-39.01-28.193-40.322-11.473-66.875-21.963-66.875-69.825,0-50.156,35.732-82.938,85.233-82.938,24.914,0,55.4,7.868,77.365,20.325Z"
              fill="#fff"/>
        <path d="M892.148,638.787V777.781c0,31.8-1.312,63.269-25.9,87.2C845.6,885.3,813.144,892.518,784.3,892.518s-61.3-7.213-81.955-27.537c-24.586-23.931-25.9-55.4-25.9-87.2V638.787H740.7V768.93c0,32.127,2.294,67.2,43.6,67.2s43.6-35.076,43.6-67.2V638.787Z"
              fill="#fff"/>
        <path d="M932.8,638.787h98.345c53.107,0,89.822,24.586,89.822,81.3,0,58.351-31.47,83.921-87.527,83.921H997.052v81.954H932.8Zm64.252,113.425h10.818c23.275,0,46.222,0,46.222-30.16,0-31.142-21.308-31.47-46.222-31.47H997.052Z"
              fill="#fff"/>
        <path d="M1213.741,693.205v41.3h72.448v54.418h-72.448v42.616h76.382v54.418H1149.489V638.787h140.634v54.418Z"
              fill="#fff"/>
        <path d="M1535.329,885.961h-79.988l-60.646-95.067h-.656v95.067h-64.252V638.787h96.05c48.845,0,85.889,23.275,85.889,76.053,0,34.093-19.014,63.6-54.09,69.826Zm-141.29-136.372h6.229c20.98,0,44.583-3.934,44.583-30.815s-23.6-30.815-44.583-30.815h-6.229Z"
              fill="#fff"/>
        <path d="M581.54,1301.791c-.3,16.272-1.479,30.178-11.391,44.084-10.947,15.237-27.368,21.9-46.008,21.9-35.06,0-59.47-23.818-59.47-58.878,0-36.245,24.558-60.062,60.506-60.062,22.93,0,40.682,10.355,50.3,31.214l-27.516,11.539c-3.994-10.651-12.427-17.752-24.113-17.752-19.084,0-29,18.2-29,35.209,0,17.308,10.356,34.912,29.439,34.912,12.574,0,22.19-6.509,23.374-19.379h-23.67v-22.782Z"
              fill="#fff"/>
        <path d="M746.038,1344.692l-7.692,19.379H707.575l42.9-111.543h31.658l42.013,111.543H793.23l-7.249-19.379ZM766.3,1287h-.295L754.027,1322.5H778.14Z"
              fill="#fff"/>
        <path d="M957.654,1252.528h28.551l22.634,59.618,23.965-59.618h28.848l16.865,111.543h-29l-8.136-64.2h-.3l-26.776,64.2h-11.539l-25.593-64.2h-.3l-9.32,64.2H938.718Z"
              fill="#fff"/>
        <path d="M1248.636,1277.085v18.64h32.694v24.558h-32.694v19.231H1283.1v24.557h-63.464V1252.528H1283.1v24.557Z"
              fill="#fff"/>
        <path d="M1519.2,1281.228a30.508,30.508,0,0,0-19.232-7.4c-5.325,0-12.427,3.107-12.427,9.32,0,6.508,7.841,9.024,12.871,10.651l7.4,2.219c15.533,4.586,27.516,12.426,27.516,30.475,0,11.095-2.663,22.486-11.539,30.031-8.729,7.4-20.415,10.5-31.658,10.5a68.829,68.829,0,0,1-39.2-12.722l12.426-23.375c7.249,6.362,15.83,11.539,25.741,11.539,6.805,0,14.054-3.4,14.054-11.243,0-8.136-11.391-10.946-17.6-12.722-18.2-5.178-30.178-9.912-30.178-31.51,0-22.634,16.125-37.428,38.463-37.428a76.3,76.3,0,0,1,34.913,9.172Z"
              fill="#fff"/>
    </g>
</svg>
