<svg width="542" height="542" viewBox="0 0 542 542" fill="none" xmlns="http://www.w3.org/2000/svg">
    <g clip-path="url(#clip0_200_169)">
        <path d="M0 100C0 44.7715 44.7715 0 100 0H442C497.228 0 542 44.7715 542 100V442C542 497.228 497.228 542 442 542H100C44.7715 542 0 497.228 0 442V100Z"
              fill="#EEEEEE"/>
        <path d="M501.535 205.184C487.562 205.184 473.588 205.076 459.615 205.292C457.593 205.292 455.065 206.267 453.693 207.676C416.575 246.455 379.601 285.378 342.628 324.302C340.461 326.576 338.295 327.515 335.117 327.479C292.042 327.371 248.93 327.407 205.854 327.479C203.11 327.479 201.16 326.865 199.102 324.735C161.948 285.595 124.685 246.563 87.3503 207.567C86.0865 206.231 83.7396 205.329 81.862 205.292C69.4772 205.076 57.0925 205.184 44.6716 205.184C43.2635 205.184 41.8553 205.184 40.2305 205.184V162.578C41.6386 162.505 43.0107 162.397 44.3828 162.397C67.1664 162.397 89.9139 162.325 112.697 162.505C114.828 162.505 117.464 163.697 118.944 165.25C142.919 190.127 166.75 215.114 190.617 240.1C205.24 255.409 219.863 270.682 234.451 285.992C235.606 287.183 236.509 288.664 237.52 290C237.881 289.747 238.242 289.53 238.603 289.278V162.722H302.332V290.577C309.77 282.814 316.378 275.954 322.985 269.058C356.132 234.431 389.278 199.804 422.316 165.141C424.302 163.083 426.252 162.325 429.068 162.325C452.429 162.433 475.755 162.397 499.116 162.361C499.91 162.361 500.741 162.108 501.535 162V205.184Z"
              fill="#E53414"/>
        <path d="M302.301 340.044V423.56H239.258V340.044H302.301Z" fill="#0F2456"/>
    </g>
    <defs>
        <clipPath id="clip0_200_169">
            <rect width="542" height="542" fill="white"/>
        </clipPath>
    </defs>
</svg>
