<svg width="32" height="32" viewBox="0 0 32 32" fill="none" xmlns="http://www.w3.org/2000/svg">
<path d="M26.2911 5.93935C25.215 5.30996 24.1974 4.72712 23.1925 4.1202C22.944 3.97088 22.7668 3.97409 22.5184 4.1202C18.2931 6.61531 14.063 9.10561 9.82509 11.5799C9.35507 11.8544 9.1731 12.2045 9.17466 12.7439C9.1889 16.1623 9.18414 19.5822 9.17943 23.0006C9.17943 23.8211 8.52744 24.1903 7.82953 23.7712C7.38799 23.5063 6.96075 23.2173 6.51764 22.9572C5.93685 22.6184 5.68049 22.1303 5.68365 21.4447C5.69789 17.8658 5.69947 14.2853 5.68049 10.7064C5.67732 10.138 5.88147 9.79761 6.36095 9.52146C10.6005 7.07615 14.8306 4.61633 19.0622 2.15975C19.1793 2.09232 19.2932 2.01846 19.4404 1.92854C18.3817 1.30878 17.3626 0.727548 16.3592 0.117417C16.0965 -0.0415382 15.9114 -0.0367213 15.6487 0.117417C11.4218 2.61093 7.18864 5.09481 2.94908 7.56582C2.4949 7.82917 2.30183 8.15993 2.30341 8.68976C2.31449 13.4311 2.32083 18.1725 2.29867 22.9139C2.2955 23.6765 2.57561 24.1421 3.22127 24.5162C6.02864 26.1427 8.81385 27.8077 11.607 29.4583C11.9076 29.6349 12.2115 29.8051 12.5675 30.0106V29.5017C12.5675 24.5596 12.5723 19.6191 12.5612 14.6771C12.5612 14.1633 12.7448 13.8341 13.1847 13.5789C17.4195 11.1255 21.6464 8.65928 25.8749 6.19462C25.9983 6.12239 26.1186 6.04372 26.2895 5.93776L26.2911 5.93935ZM26.6123 13.8148C26.6123 14.9147 26.6028 15.9439 26.617 16.9715C26.6234 17.45 26.4414 17.7759 26.0268 18.0103C24.9364 18.6285 23.8619 19.2723 22.7747 19.8953C22.4314 20.0928 22.1512 20.3641 22.1402 20.7559C22.1085 21.9088 22.1291 23.0632 22.1291 24.2578C22.2177 24.2144 22.2636 24.1951 22.3063 24.1694C24.563 22.856 26.8212 21.5427 29.0763 20.2277C29.5336 19.9611 29.7014 19.5469 29.7014 19.0218C29.695 15.8829 29.6982 12.7455 29.6982 9.60655C29.6982 8.63675 29.0969 8.28518 28.266 8.76843C24.3794 11.0308 20.4943 13.2979 16.6029 15.5538C16.1899 15.793 16.0158 16.1012 16.0158 16.5861C16.0269 21.5812 16.0221 26.5747 16.0238 31.5697C16.0238 31.695 16.0396 31.8186 16.0506 32C16.9099 31.4991 17.7107 31.019 18.5241 30.5646C19.0543 30.2692 19.2821 29.8469 19.2805 29.232C19.2679 25.7606 19.2805 22.2877 19.2679 18.8163C19.2663 18.3138 19.4515 17.9991 19.8756 17.7518C22.0072 16.5107 24.1278 15.2519 26.2531 13.9995C26.3512 13.9417 26.4556 13.8936 26.6107 13.8133L26.6123 13.8148Z" fill="#46BDB0"/>
</svg>
