<svg width="32" height="32" viewBox="0 0 32 32" fill="none" xmlns="http://www.w3.org/2000/svg">
<path fill-rule="evenodd" clip-rule="evenodd" d="M16.1101 0.00364053C24.8908 0.00364053 31.9815 7.14058 31.9999 15.9742C32.0366 24.8262 24.8541 32 15.9816 32C7.14578 32 0 24.8631 0 16.011C0.0367392 6.6611 7.75197 -0.180777 16.1101 0.00364053ZM4.50055 22.1337V9.39047L6.4038 10.4916C9.47162 12.2664 12.4849 14.0096 15.4856 15.7529V28.4961C11.7749 26.3384 8.13774 24.236 4.50055 22.1337ZM10.9667 19.3674C10.8013 18.1872 9.99307 17.2835 8.98274 17.1544C8.39491 17.4311 8.43165 17.9474 8.5235 18.4638C8.72556 19.4596 9.22154 20.2526 10.2502 20.6215C10.985 20.4002 11.0401 19.9022 10.9667 19.3674ZM7.03556 18.9617C6.81512 18.8142 6.35588 18.722 6.19056 18.8511C5.97012 18.9986 5.78643 19.4043 5.8048 19.6994C5.82317 20.5846 6.2273 21.3591 6.94371 21.8755C7.18252 22.0415 7.60502 22.1521 7.86219 22.0599C8.03248 21.9942 8.13738 21.769 8.21686 21.5984C8.24884 21.5298 8.27671 21.4699 8.30306 21.4329C8.21121 20.2895 7.82545 19.4965 7.03556 18.9617ZM12.5832 15.8819C12.2893 15.6975 11.7933 15.5316 11.5545 15.6791C11.3157 15.8266 11.1687 16.343 11.1871 16.6749C11.2422 17.5048 11.628 18.224 12.326 18.7035C12.5648 18.8695 12.9873 18.9802 13.2445 18.8695C13.4212 18.8013 13.5275 18.5613 13.6304 18.329C13.6666 18.2475 13.7023 18.1668 13.7405 18.095C13.6486 17.2466 13.2261 16.2877 12.5832 15.8819ZM27.4993 9.46424L16.5694 15.7344V28.4592C20.2617 26.32 23.8805 24.236 27.4993 22.1521V9.46424ZM21.8415 17.4679C22.0986 17.2651 22.613 17.0991 22.8702 17.2282C23.0661 17.3265 23.1886 17.5724 23.292 17.7801C23.3437 17.8839 23.3906 17.9782 23.4396 18.0396C23.2559 19.0355 23.0171 19.7916 22.264 20.2526C21.5843 20.6768 20.9965 20.3817 20.9414 19.5887C20.8679 18.7404 21.1985 18.0027 21.8415 17.4679ZM19.0309 22.4472C19.3065 22.189 19.8392 22.023 20.1698 22.1152C20.3591 22.1695 20.4886 22.4635 20.5878 22.6885C20.6234 22.7692 20.6551 22.8411 20.6842 22.8898C20.574 23.9594 20.28 24.6786 19.5453 25.1397C18.884 25.5638 18.3512 25.2872 18.241 24.5311C18.1308 23.7012 18.4431 22.982 19.0309 22.4472ZM24.4499 12.7284C24.7071 12.5256 25.2031 12.378 25.4786 12.4887C25.6738 12.554 25.7953 12.8044 25.8952 13.0104C25.9364 13.0952 25.9739 13.1726 26.0114 13.2263C25.9011 14.2591 25.6256 15.0152 24.9092 15.4762C24.6704 15.6238 24.2295 15.716 23.9907 15.6053C23.7703 15.4762 23.6049 15.0705 23.5682 14.7754C23.4764 13.9456 23.8254 13.2448 24.4499 12.7284ZM23.6784 22.2259C23.2927 21.4882 23.5131 20.7506 23.954 20.1051C24.3214 19.5703 24.7622 19.1092 25.497 19.3305C26.3236 20.2895 25.6623 22.3181 24.4683 22.521C24.2111 22.5763 23.7886 22.4103 23.6784 22.2259ZM19.8759 18.0396C19.5636 18.3531 19.1228 18.6482 18.7186 18.3531C18.5371 18.2195 18.4273 17.9818 18.3158 17.7402C18.258 17.6151 18.1997 17.489 18.1308 17.3757C18.3145 16.5459 18.59 15.8819 19.2146 15.4393C19.4718 15.2549 19.931 15.1074 20.1882 15.218C20.427 15.3287 20.6291 15.7713 20.6658 16.0848C20.7393 16.8594 20.4086 17.5048 19.8759 18.0396ZM18.2086 13.5709C17.479 13.9906 16.7494 14.4103 16.0183 14.8308C12.6663 12.8933 9.32989 10.9557 5.89405 8.96048C5.60175 8.79073 5.30872 8.62056 5.0149 8.44994C6.75993 7.71501 8.47734 6.99592 10.1745 6.28532C12.1397 5.46246 14.0778 4.65099 15.9999 3.83952C18.1436 4.73262 20.2622 5.62572 22.4069 6.52981C23.9379 7.17521 25.4822 7.82622 27.0584 8.48682C24.0458 10.213 21.1272 11.8919 18.2086 13.5709ZM13.7956 8.80033C14.5487 9.81463 17.3042 9.88839 18.1308 8.91098C18.4615 8.52371 18.4063 8.13643 17.9655 7.78604C17.1021 7.06681 14.9161 7.06681 14.0527 7.80448C13.9216 7.90981 13.8279 8.05272 13.7316 8.19969C13.693 8.25859 13.6539 8.31814 13.6119 8.37617C13.6522 8.46524 13.6819 8.54008 13.7072 8.60383C13.7395 8.68528 13.7647 8.74861 13.7956 8.80033Z" fill="#A89157"/>
</svg>
